<ttFont>
    <TTGlyph name=".notdef" xMin="61" yMin="1" xMax="419" yMax="712">
      <contour>
        <pt x="61" y="1" on="1"/>
        <pt x="61" y="712" on="1"/>
        <pt x="419" y="712" on="1"/>
        <pt x="419" y="1" on="1"/>
      </contour>
    </TTGlyph>
    <TTGlyph name="A" xMin="15" yMin="0" xMax="623" yMax="712">
      <contour>
        <pt x="623" y="0" on="1"/>
        <pt x="478" y="0" on="1"/>
        <pt x="438" y="123" on="1"/>
        <pt x="199" y="123" on="1"/>
        <pt x="160" y="0" on="1"/>
        <pt x="15" y="0" on="1"/>
        <pt x="243" y="652" on="1"/>
        <pt x="258" y="686" on="0"/>
        <pt x="295" y="712" on="0"/>
        <pt x="349" y="712" on="0"/>
        <pt x="382" y="688" on="0"/>
        <pt x="395" y="652" on="1"/>
      </contour>
      <contour>
        <pt x="406" y="240" on="1"/>
        <pt x="322" y="522" on="1"/>
        <pt x="234" y="240" on="1"/>
      </contour>
    </TTGlyph>
    <TTGlyph name="AE" xMin="19" yMin="0" xMax="927" yMax="712">
      <contour>
        <pt x="458" y="240" on="1"/>
        <pt x="458" y="502" on="1"/>
        <pt x="296" y="240" on="1"/>
      </contour>
      <contour>
        <pt x="927" y="0" on="1"/>
        <pt x="685" y="0" on="1"/>
        <pt x="589" y="0" on="0"/>
        <pt x="483" y="58" on="0"/>
        <pt x="466" y="123" on="1"/>
        <pt x="238" y="123" on="1"/>
        <pt x="164" y="0" on="1"/>
        <pt x="19" y="0" on="1"/>
        <pt x="458" y="712" on="1"/>
        <pt x="927" y="712" on="1"/>
        <pt x="927" y="588" on="1"/>
        <pt x="597" y="588" on="1"/>
        <pt x="597" y="421" on="1"/>
        <pt x="828" y="421" on="1"/>
        <pt x="808" y="297" on="1"/>
        <pt x="597" y="297" on="1"/>
        <pt x="597" y="198" on="1"/>
        <pt x="597" y="156" on="0"/>
        <pt x="635" y="124" on="0"/>
        <pt x="685" y="124" on="1"/>
        <pt x="927" y="124" on="1"/>
      </contour>
    </TTGlyph>
    <TTGlyph name="Aacute" xMin="15" yMin="0" xMax="623" yMax="959">
      <contour>
        <pt x="623" y="0" on="1"/>
        <pt x="478" y="0" on="1"/>
        <pt x="438" y="123" on="1"/>
        <pt x="199" y="123" on="1"/>
        <pt x="160" y="0" on="1"/>
        <pt x="15" y="0" on="1"/>
        <pt x="243" y="652" on="1"/>
        <pt x="258" y="686" on="0"/>
        <pt x="295" y="712" on="0"/>
        <pt x="349" y="712" on="0"/>
        <pt x="382" y="688" on="0"/>
        <pt x="395" y="652" on="1"/>
      </contour>
      <contour>
        <pt x="406" y="240" on="1"/>
        <pt x="322" y="502" on="1"/>
        <pt x="234" y="240" on="1"/>
      </contour>
      <contour>
        <pt x="468" y="959" on="1"/>
        <pt x="394" y="853" on="1"/>
        <pt x="360" y="805" on="0"/>
        <pt x="317" y="805" on="1"/>
        <pt x="289" y="805" on="0"/>
        <pt x="289" y="831" on="1"/>
        <pt x="289" y="841" on="0"/>
        <pt x="293" y="853" on="1"/>
        <pt x="331" y="959" on="1"/>
      </contour>
    </TTGlyph>
    <TTGlyph name="Acircumflex" xMin="15" yMin="0" xMax="623" yMax="950">
      <contour>
        <pt x="623" y="0" on="1"/>
        <pt x="478" y="0" on="1"/>
        <pt x="438" y="123" on="1"/>
        <pt x="199" y="123" on="1"/>
        <pt x="160" y="0" on="1"/>
        <pt x="15" y="0" on="1"/>
        <pt x="243" y="652" on="1"/>
        <pt x="258" y="686" on="0"/>
        <pt x="295" y="712" on="0"/>
        <pt x="349" y="712" on="0"/>
        <pt x="382" y="688" on="0"/>
        <pt x="395" y="652" on="1"/>
      </contour>
      <contour>
        <pt x="406" y="240" on="1"/>
        <pt x="322" y="502" on="1"/>
        <pt x="234" y="240" on="1"/>
      </contour>
      <contour>
        <pt x="317" y="885" on="1"/>
        <pt x="272" y="829" on="1"/>
        <pt x="233" y="781" on="0"/>
        <pt x="195" y="781" on="1"/>
        <pt x="182" y="781" on="0"/>
        <pt x="166" y="799" on="0"/>
        <pt x="166" y="821" on="0"/>
        <pt x="171" y="829" on="1"/>
        <pt x="265" y="950" on="1"/>
        <pt x="369" y="950" on="1"/>
        <pt x="463" y="829" on="1"/>
        <pt x="468" y="821" on="0"/>
        <pt x="468" y="800" on="0"/>
        <pt x="451" y="781" on="0"/>
        <pt x="439" y="781" on="1"/>
        <pt x="401" y="781" on="0"/>
        <pt x="362" y="829" on="1"/>
      </contour>
    </TTGlyph>
    <TTGlyph name="Adieresis" xMin="15" yMin="0" xMax="623" yMax="938">
      <contour>
        <pt x="623" y="0" on="1"/>
        <pt x="478" y="0" on="1"/>
        <pt x="438" y="123" on="1"/>
        <pt x="199" y="123" on="1"/>
        <pt x="160" y="0" on="1"/>
        <pt x="15" y="0" on="1"/>
        <pt x="243" y="652" on="1"/>
        <pt x="258" y="686" on="0"/>
        <pt x="295" y="712" on="0"/>
        <pt x="349" y="712" on="0"/>
        <pt x="382" y="688" on="0"/>
        <pt x="395" y="652" on="1"/>
      </contour>
      <contour>
        <pt x="406" y="240" on="1"/>
        <pt x="322" y="502" on="1"/>
        <pt x="234" y="240" on="1"/>
      </contour>
      <contour>
        <pt x="497" y="910" on="0"/>
        <pt x="497" y="832" on="0"/>
        <pt x="462" y="804" on="0"/>
        <pt x="398" y="804" on="0"/>
        <pt x="363" y="832" on="0"/>
        <pt x="363" y="910" on="0"/>
        <pt x="398" y="938" on="0"/>
        <pt x="462" y="938" on="0"/>
      </contour>
      <contour>
        <pt x="271" y="910" on="0"/>
        <pt x="271" y="832" on="0"/>
        <pt x="236" y="804" on="0"/>
        <pt x="172" y="804" on="0"/>
        <pt x="137" y="832" on="0"/>
        <pt x="137" y="910" on="0"/>
        <pt x="172" y="938" on="0"/>
        <pt x="236" y="938" on="0"/>
      </contour>
    </TTGlyph>
    <TTGlyph name="Agrave" xMin="15" yMin="0" xMax="623" yMax="959">
      <contour>
        <pt x="623" y="0" on="1"/>
        <pt x="478" y="0" on="1"/>
        <pt x="438" y="123" on="1"/>
        <pt x="199" y="123" on="1"/>
        <pt x="160" y="0" on="1"/>
        <pt x="15" y="0" on="1"/>
        <pt x="243" y="652" on="1"/>
        <pt x="258" y="686" on="0"/>
        <pt x="295" y="712" on="0"/>
        <pt x="349" y="712" on="0"/>
        <pt x="382" y="688" on="0"/>
        <pt x="395" y="652" on="1"/>
      </contour>
      <contour>
        <pt x="406" y="240" on="1"/>
        <pt x="322" y="502" on="1"/>
        <pt x="234" y="240" on="1"/>
      </contour>
      <contour>
        <pt x="243" y="853" on="1"/>
        <pt x="169" y="959" on="1"/>
        <pt x="306" y="959" on="1"/>
        <pt x="344" y="853" on="1"/>
        <pt x="348" y="841" on="0"/>
        <pt x="348" y="831" on="1"/>
        <pt x="348" y="805" on="0"/>
        <pt x="320" y="805" on="1"/>
        <pt x="277" y="805" on="0"/>
      </contour>
    </TTGlyph>
    <TTGlyph name="Aring" xMin="15" yMin="0" xMax="623" yMax="1015">
      <contour>
        <pt x="623" y="0" on="1"/>
        <pt x="478" y="0" on="1"/>
        <pt x="438" y="123" on="1"/>
        <pt x="199" y="123" on="1"/>
        <pt x="160" y="0" on="1"/>
        <pt x="15" y="0" on="1"/>
        <pt x="243" y="652" on="1"/>
        <pt x="258" y="686" on="0"/>
        <pt x="295" y="712" on="0"/>
        <pt x="349" y="712" on="0"/>
        <pt x="382" y="688" on="0"/>
        <pt x="395" y="652" on="1"/>
      </contour>
      <contour>
        <pt x="406" y="240" on="1"/>
        <pt x="322" y="502" on="1"/>
        <pt x="234" y="240" on="1"/>
      </contour>
      <contour>
        <pt x="448" y="1015" on="0"/>
        <pt x="448" y="753" on="0"/>
        <pt x="186" y="753" on="0"/>
        <pt x="186" y="1015" on="0"/>
      </contour>
      <contour>
        <pt x="375" y="848" on="0"/>
        <pt x="375" y="920" on="0"/>
        <pt x="346" y="942" on="0"/>
        <pt x="288" y="942" on="0"/>
        <pt x="259" y="920" on="0"/>
        <pt x="259" y="848" on="0"/>
        <pt x="289" y="825" on="0"/>
        <pt x="345" y="825" on="0"/>
      </contour>
    </TTGlyph>
    <TTGlyph name="Atilde" xMin="15" yMin="0" xMax="623" yMax="920">
      <contour>
        <pt x="623" y="0" on="1"/>
        <pt x="478" y="0" on="1"/>
        <pt x="438" y="123" on="1"/>
        <pt x="199" y="123" on="1"/>
        <pt x="160" y="0" on="1"/>
        <pt x="15" y="0" on="1"/>
        <pt x="243" y="652" on="1"/>
        <pt x="258" y="686" on="0"/>
        <pt x="295" y="712" on="0"/>
        <pt x="349" y="712" on="0"/>
        <pt x="382" y="688" on="0"/>
        <pt x="395" y="652" on="1"/>
      </contour>
      <contour>
        <pt x="406" y="240" on="1"/>
        <pt x="322" y="502" on="1"/>
        <pt x="234" y="240" on="1"/>
      </contour>
      <contour>
        <pt x="451" y="901" on="1"/>
        <pt x="497" y="851" on="1"/>
        <pt x="438" y="792" on="0"/>
        <pt x="384" y="792" on="1"/>
        <pt x="347" y="792" on="0"/>
        <pt x="276" y="833" on="0"/>
        <pt x="213" y="833" on="0"/>
        <pt x="186" y="809" on="1"/>
        <pt x="136" y="861" on="1"/>
        <pt x="169" y="894" on="0"/>
        <pt x="219" y="920" on="0"/>
        <pt x="287" y="920" on="0"/>
        <pt x="358" y="878" on="0"/>
        <pt x="427" y="878" on="0"/>
      </contour>
    </TTGlyph>
    <TTGlyph name="B" xMin="83" yMin="0" xMax="599" yMax="712">
      <contour>
        <pt x="599" y="205" on="1"/>
        <pt x="599" y="106" on="0"/>
        <pt x="492" y="0" on="0"/>
        <pt x="396" y="0" on="1"/>
        <pt x="300" y="0" on="1"/>
        <pt x="182" y="0" on="0"/>
        <pt x="83" y="82" on="0"/>
        <pt x="83" y="183" on="1"/>
        <pt x="83" y="712" on="1"/>
        <pt x="384" y="712" on="1"/>
        <pt x="486" y="712" on="0"/>
        <pt x="589" y="610" on="0"/>
        <pt x="589" y="517" on="1"/>
        <pt x="589" y="463" on="0"/>
        <pt x="534" y="387" on="0"/>
        <pt x="501" y="371" on="1"/>
        <pt x="599" y="325" on="0"/>
      </contour>
      <contour>
        <pt x="373" y="434" on="1"/>
        <pt x="450" y="434" on="0"/>
        <pt x="450" y="588" on="0"/>
        <pt x="373" y="588" on="1"/>
        <pt x="222" y="588" on="1"/>
        <pt x="222" y="434" on="1"/>
      </contour>
      <contour>
        <pt x="460" y="212" on="1"/>
        <pt x="460" y="260" on="0"/>
        <pt x="426" y="309" on="0"/>
        <pt x="382" y="309" on="1"/>
        <pt x="222" y="309" on="1"/>
        <pt x="222" y="197" on="1"/>
        <pt x="222" y="156" on="0"/>
        <pt x="263" y="124" on="0"/>
        <pt x="310" y="124" on="1"/>
        <pt x="382" y="124" on="1"/>
        <pt x="460" y="124" on="0"/>
      </contour>
    </TTGlyph>
    <TTGlyph name="C" xMin="39" yMin="-6" xMax="572" yMax="718">
      <contour>
        <pt x="443" y="276" on="1"/>
        <pt x="572" y="276" on="1"/>
        <pt x="572" y="140" on="0"/>
        <pt x="436" y="-6" on="0"/>
        <pt x="312" y="-6" on="1"/>
        <pt x="39" y="-6" on="0"/>
        <pt x="39" y="315" on="1"/>
        <pt x="39" y="375" on="1"/>
        <pt x="39" y="628" on="0"/>
        <pt x="179" y="692" on="1"/>
        <pt x="234" y="718" on="0"/>
        <pt x="312" y="718" on="1"/>
        <pt x="426" y="718" on="0"/>
        <pt x="569" y="593" on="0"/>
        <pt x="569" y="475" on="1"/>
        <pt x="439" y="475" on="1"/>
        <pt x="428" y="534" on="0"/>
        <pt x="372" y="594" on="0"/>
        <pt x="312" y="594" on="1"/>
        <pt x="242" y="594" on="0"/>
        <pt x="208" y="550" on="1"/>
        <pt x="184" y="519" on="0"/>
        <pt x="180" y="444" on="1"/>
        <pt x="178" y="420" on="0"/>
        <pt x="178" y="379" on="1"/>
        <pt x="178" y="317" on="1"/>
        <pt x="178" y="202" on="0"/>
        <pt x="210" y="160" on="1"/>
        <pt x="243" y="118" on="0"/>
        <pt x="382" y="118" on="0"/>
        <pt x="435" y="195" on="0"/>
      </contour>
    </TTGlyph>
    <TTGlyph name="Ccedilla" xMin="39" yMin="-171" xMax="572" yMax="718">
      <contour>
        <pt x="443" y="276" on="1"/>
        <pt x="572" y="276" on="1"/>
        <pt x="572" y="150" on="0"/>
        <pt x="455" y="6" on="0"/>
        <pt x="347" y="-4" on="1"/>
        <pt x="339" y="-24" on="1"/>
        <pt x="387" y="-37" on="0"/>
        <pt x="387" y="-122" on="0"/>
        <pt x="330" y="-171" on="0"/>
        <pt x="271" y="-171" on="1"/>
        <pt x="258" y="-171" on="0"/>
        <pt x="224" y="-167" on="1"/>
        <pt x="245" y="-116" on="1"/>
        <pt x="263" y="-119" on="0"/>
        <pt x="280" y="-119" on="1"/>
        <pt x="321" y="-119" on="0"/>
        <pt x="321" y="-88" on="1"/>
        <pt x="321" y="-54" on="0"/>
        <pt x="263" y="-54" on="1"/>
        <pt x="282" y="-5" on="1"/>
        <pt x="39" y="12" on="0"/>
        <pt x="39" y="315" on="1"/>
        <pt x="39" y="375" on="1"/>
        <pt x="39" y="628" on="0"/>
        <pt x="179" y="692" on="1"/>
        <pt x="234" y="718" on="0"/>
        <pt x="312" y="718" on="1"/>
        <pt x="426" y="718" on="0"/>
        <pt x="569" y="593" on="0"/>
        <pt x="569" y="475" on="1"/>
        <pt x="439" y="475" on="1"/>
        <pt x="428" y="534" on="0"/>
        <pt x="372" y="594" on="0"/>
        <pt x="312" y="594" on="1"/>
        <pt x="242" y="594" on="0"/>
        <pt x="208" y="550" on="1"/>
        <pt x="184" y="519" on="0"/>
        <pt x="180" y="444" on="1"/>
        <pt x="178" y="420" on="0"/>
        <pt x="178" y="379" on="1"/>
        <pt x="178" y="317" on="1"/>
        <pt x="178" y="202" on="0"/>
        <pt x="210" y="160" on="1"/>
        <pt x="243" y="118" on="0"/>
        <pt x="382" y="118" on="0"/>
        <pt x="435" y="195" on="0"/>
      </contour>
    </TTGlyph>
    <TTGlyph name="D" xMin="83" yMin="0" xMax="621" yMax="712">
      <contour>
        <pt x="620" y="359" on="1"/>
        <pt x="621" y="282" on="1"/>
        <pt x="617" y="209" on="0"/>
        <pt x="589" y="109" on="0"/>
        <pt x="548" y="68" on="1"/>
        <pt x="480" y="0" on="0"/>
        <pt x="350" y="0" on="1"/>
        <pt x="197" y="0" on="0"/>
        <pt x="83" y="81" on="0"/>
        <pt x="83" y="187" on="1"/>
        <pt x="83" y="712" on="1"/>
        <pt x="360" y="712" on="1"/>
        <pt x="480" y="712" on="0"/>
        <pt x="548" y="644" on="1"/>
        <pt x="603" y="589" on="0"/>
        <pt x="613" y="510" on="1"/>
        <pt x="620" y="454" on="0"/>
      </contour>
      <contour>
        <pt x="470" y="191" on="0"/>
        <pt x="481" y="272" on="0"/>
        <pt x="481" y="444" on="0"/>
        <pt x="470" y="521" on="0"/>
        <pt x="451" y="544" on="1"/>
        <pt x="415" y="588" on="0"/>
        <pt x="347" y="588" on="1"/>
        <pt x="222" y="588" on="1"/>
        <pt x="222" y="194" on="1"/>
        <pt x="222" y="154" on="0"/>
        <pt x="276" y="124" on="0"/>
        <pt x="415" y="124" on="0"/>
        <pt x="451" y="168" on="1"/>
      </contour>
    </TTGlyph>
    <TTGlyph name="Delta" xMin="3" yMin="0" xMax="631" yMax="712">
      <contour>
        <pt x="631" y="0" on="1"/>
        <pt x="3" y="0" on="1"/>
        <pt x="240" y="657" on="1"/>
        <pt x="264" y="712" on="0"/>
        <pt x="372" y="712" on="0"/>
        <pt x="392" y="658" on="1"/>
      </contour>
      <contour>
        <pt x="450" y="117" on="1"/>
        <pt x="320" y="522" on="1"/>
        <pt x="186" y="117" on="1"/>
      </contour>
    </TTGlyph>
    <TTGlyph name="E" xMin="83" yMin="0" xMax="552" yMax="712">
      <contour>
        <pt x="552" y="0" on="1"/>
        <pt x="300" y="0" on="1"/>
        <pt x="180" y="0" on="0"/>
        <pt x="83" y="83" on="0"/>
        <pt x="83" y="188" on="1"/>
        <pt x="83" y="712" on="1"/>
        <pt x="552" y="712" on="1"/>
        <pt x="552" y="588" on="1"/>
        <pt x="222" y="588" on="1"/>
        <pt x="222" y="421" on="1"/>
        <pt x="453" y="421" on="1"/>
        <pt x="443" y="297" on="1"/>
        <pt x="222" y="297" on="1"/>
        <pt x="222" y="198" on="1"/>
        <pt x="222" y="156" on="0"/>
        <pt x="260" y="124" on="0"/>
        <pt x="310" y="124" on="1"/>
        <pt x="552" y="124" on="1"/>
      </contour>
    </TTGlyph>
    <TTGlyph name="Eacute" xMin="83" yMin="0" xMax="552" yMax="959">
      <contour>
        <pt x="552" y="0" on="1"/>
        <pt x="310" y="0" on="1"/>
        <pt x="190" y="0" on="0"/>
        <pt x="83" y="93" on="0"/>
        <pt x="83" y="198" on="1"/>
        <pt x="83" y="712" on="1"/>
        <pt x="552" y="712" on="1"/>
        <pt x="552" y="588" on="1"/>
        <pt x="222" y="588" on="1"/>
        <pt x="222" y="421" on="1"/>
        <pt x="453" y="421" on="1"/>
        <pt x="433" y="297" on="1"/>
        <pt x="222" y="297" on="1"/>
        <pt x="222" y="198" on="1"/>
        <pt x="222" y="156" on="0"/>
        <pt x="260" y="124" on="0"/>
        <pt x="310" y="124" on="1"/>
        <pt x="552" y="124" on="1"/>
      </contour>
      <contour>
        <pt x="460" y="959" on="1"/>
        <pt x="386" y="853" on="1"/>
        <pt x="352" y="805" on="0"/>
        <pt x="309" y="805" on="1"/>
        <pt x="281" y="805" on="0"/>
        <pt x="281" y="831" on="1"/>
        <pt x="281" y="841" on="0"/>
        <pt x="285" y="853" on="1"/>
        <pt x="323" y="959" on="1"/>
      </contour>
    </TTGlyph>
    <TTGlyph name="Ecircumflex" xMin="83" yMin="0" xMax="552" yMax="950">
      <contour>
        <pt x="552" y="0" on="1"/>
        <pt x="310" y="0" on="1"/>
        <pt x="190" y="0" on="0"/>
        <pt x="83" y="93" on="0"/>
        <pt x="83" y="198" on="1"/>
        <pt x="83" y="712" on="1"/>
        <pt x="552" y="712" on="1"/>
        <pt x="552" y="588" on="1"/>
        <pt x="222" y="588" on="1"/>
        <pt x="222" y="421" on="1"/>
        <pt x="453" y="421" on="1"/>
        <pt x="433" y="297" on="1"/>
        <pt x="222" y="297" on="1"/>
        <pt x="222" y="198" on="1"/>
        <pt x="222" y="156" on="0"/>
        <pt x="260" y="124" on="0"/>
        <pt x="310" y="124" on="1"/>
        <pt x="552" y="124" on="1"/>
      </contour>
      <contour>
        <pt x="310" y="885" on="1"/>
        <pt x="265" y="829" on="1"/>
        <pt x="226" y="781" on="0"/>
        <pt x="188" y="781" on="1"/>
        <pt x="175" y="781" on="0"/>
        <pt x="159" y="799" on="0"/>
        <pt x="159" y="821" on="0"/>
        <pt x="164" y="829" on="1"/>
        <pt x="258" y="950" on="1"/>
        <pt x="362" y="950" on="1"/>
        <pt x="456" y="829" on="1"/>
        <pt x="461" y="821" on="0"/>
        <pt x="461" y="800" on="0"/>
        <pt x="444" y="781" on="0"/>
        <pt x="432" y="781" on="1"/>
        <pt x="394" y="781" on="0"/>
        <pt x="355" y="829" on="1"/>
      </contour>
    </TTGlyph>
    <TTGlyph name="Edieresis" xMin="83" yMin="0" xMax="552" yMax="938">
      <contour>
        <pt x="552" y="0" on="1"/>
        <pt x="310" y="0" on="1"/>
        <pt x="190" y="0" on="0"/>
        <pt x="83" y="93" on="0"/>
        <pt x="83" y="198" on="1"/>
        <pt x="83" y="712" on="1"/>
        <pt x="552" y="712" on="1"/>
        <pt x="552" y="588" on="1"/>
        <pt x="222" y="588" on="1"/>
        <pt x="222" y="421" on="1"/>
        <pt x="453" y="421" on="1"/>
        <pt x="433" y="297" on="1"/>
        <pt x="222" y="297" on="1"/>
        <pt x="222" y="198" on="1"/>
        <pt x="222" y="156" on="0"/>
        <pt x="260" y="124" on="0"/>
        <pt x="310" y="124" on="1"/>
        <pt x="552" y="124" on="1"/>
      </contour>
      <contour>
        <pt x="490" y="910" on="0"/>
        <pt x="490" y="832" on="0"/>
        <pt x="455" y="804" on="0"/>
        <pt x="391" y="804" on="0"/>
        <pt x="356" y="832" on="0"/>
        <pt x="356" y="910" on="0"/>
        <pt x="391" y="938" on="0"/>
        <pt x="455" y="938" on="0"/>
      </contour>
      <contour>
        <pt x="264" y="910" on="0"/>
        <pt x="264" y="832" on="0"/>
        <pt x="229" y="804" on="0"/>
        <pt x="165" y="804" on="0"/>
        <pt x="130" y="832" on="0"/>
        <pt x="130" y="910" on="0"/>
        <pt x="165" y="938" on="0"/>
        <pt x="229" y="938" on="0"/>
      </contour>
    </TTGlyph>
    <TTGlyph name="Egrave" xMin="83" yMin="0" xMax="552" yMax="959">
      <contour>
        <pt x="552" y="0" on="1"/>
        <pt x="310" y="0" on="1"/>
        <pt x="190" y="0" on="0"/>
        <pt x="83" y="93" on="0"/>
        <pt x="83" y="198" on="1"/>
        <pt x="83" y="712" on="1"/>
        <pt x="552" y="712" on="1"/>
        <pt x="552" y="588" on="1"/>
        <pt x="222" y="588" on="1"/>
        <pt x="222" y="421" on="1"/>
        <pt x="453" y="421" on="1"/>
        <pt x="433" y="297" on="1"/>
        <pt x="222" y="297" on="1"/>
        <pt x="222" y="198" on="1"/>
        <pt x="222" y="156" on="0"/>
        <pt x="260" y="124" on="0"/>
        <pt x="310" y="124" on="1"/>
        <pt x="552" y="124" on="1"/>
      </contour>
      <contour>
        <pt x="236" y="853" on="1"/>
        <pt x="162" y="959" on="1"/>
        <pt x="299" y="959" on="1"/>
        <pt x="337" y="853" on="1"/>
        <pt x="341" y="841" on="0"/>
        <pt x="341" y="831" on="1"/>
        <pt x="341" y="805" on="0"/>
        <pt x="313" y="805" on="1"/>
        <pt x="270" y="805" on="0"/>
      </contour>
    </TTGlyph>
    <TTGlyph name="Eth" xMin="36" yMin="0" xMax="631" yMax="712">
      <contour>
        <pt x="36" y="307" on="1"/>
        <pt x="36" y="413" on="1"/>
        <pt x="93" y="413" on="1"/>
        <pt x="93" y="712" on="1"/>
        <pt x="370" y="712" on="1"/>
        <pt x="490" y="712" on="0"/>
        <pt x="558" y="644" on="1"/>
        <pt x="613" y="589" on="0"/>
        <pt x="623" y="510" on="1"/>
        <pt x="630" y="454" on="0"/>
        <pt x="630" y="359" on="1"/>
        <pt x="631" y="282" on="1"/>
        <pt x="627" y="209" on="0"/>
        <pt x="599" y="109" on="0"/>
        <pt x="558" y="68" on="1"/>
        <pt x="490" y="0" on="0"/>
        <pt x="370" y="0" on="1"/>
        <pt x="217" y="0" on="0"/>
        <pt x="93" y="91" on="0"/>
        <pt x="93" y="197" on="1"/>
        <pt x="93" y="307" on="1"/>
      </contour>
      <contour>
        <pt x="480" y="191" on="0"/>
        <pt x="491" y="272" on="0"/>
        <pt x="491" y="444" on="0"/>
        <pt x="480" y="521" on="0"/>
        <pt x="461" y="544" on="1"/>
        <pt x="425" y="588" on="0"/>
        <pt x="357" y="588" on="1"/>
        <pt x="232" y="588" on="1"/>
        <pt x="232" y="413" on="1"/>
        <pt x="362" y="413" on="1"/>
        <pt x="362" y="307" on="1"/>
        <pt x="232" y="307" on="1"/>
        <pt x="232" y="194" on="1"/>
        <pt x="232" y="154" on="0"/>
        <pt x="286" y="124" on="0"/>
        <pt x="425" y="124" on="0"/>
        <pt x="461" y="168" on="1"/>
      </contour>
    </TTGlyph>
    <TTGlyph name="Euro" xMin="10" yMin="-6" xMax="506" yMax="718">
      <contour>
        <pt x="10" y="400" on="1"/>
        <pt x="10" y="496" on="1"/>
        <pt x="59" y="496" on="1"/>
        <pt x="73" y="606" on="0"/>
        <pt x="184" y="718" on="0"/>
        <pt x="397" y="718" on="0"/>
        <pt x="459" y="640" on="1"/>
        <pt x="497" y="594" on="0"/>
        <pt x="503" y="475" on="1"/>
        <pt x="374" y="475" on="1"/>
        <pt x="373" y="482" on="0"/>
        <pt x="368" y="525" on="0"/>
        <pt x="365" y="540" on="0"/>
        <pt x="355" y="571" on="0"/>
        <pt x="348" y="577" on="1"/>
        <pt x="328" y="594" on="0"/>
        <pt x="298" y="594" on="1"/>
        <pt x="214" y="594" on="0"/>
        <pt x="196" y="496" on="1"/>
        <pt x="279" y="496" on="1"/>
        <pt x="279" y="400" on="1"/>
        <pt x="189" y="400" on="1"/>
        <pt x="189" y="331" on="1"/>
        <pt x="279" y="331" on="1"/>
        <pt x="279" y="235" on="1"/>
        <pt x="192" y="235" on="1"/>
        <pt x="207" y="118" on="0"/>
        <pt x="298" y="118" on="1"/>
        <pt x="359" y="118" on="0"/>
        <pt x="370" y="170" on="1"/>
        <pt x="376" y="197" on="0"/>
        <pt x="376" y="264" on="0"/>
        <pt x="377" y="276" on="1"/>
        <pt x="506" y="276" on="1"/>
        <pt x="504" y="221" on="0"/>
        <pt x="500" y="174" on="0"/>
        <pt x="479" y="97" on="0"/>
        <pt x="459" y="72" on="1"/>
        <pt x="397" y="-6" on="0"/>
        <pt x="298" y="-6" on="1"/>
        <pt x="175" y="-6" on="0"/>
        <pt x="65" y="112" on="0"/>
        <pt x="56" y="235" on="1"/>
        <pt x="10" y="235" on="1"/>
        <pt x="10" y="331" on="1"/>
        <pt x="54" y="331" on="1"/>
        <pt x="54" y="400" on="1"/>
      </contour>
    </TTGlyph>
    <TTGlyph name="F" xMin="83" yMin="0" xMax="552" yMax="712">
      <contour>
        <pt x="552" y="588" on="1"/>
        <pt x="301" y="588" on="1"/>
        <pt x="257" y="588" on="0"/>
        <pt x="222" y="554" on="0"/>
        <pt x="222" y="512" on="1"/>
        <pt x="222" y="413" on="1"/>
        <pt x="483" y="413" on="1"/>
        <pt x="473" y="289" on="1"/>
        <pt x="222" y="289" on="1"/>
        <pt x="222" y="0" on="1"/>
        <pt x="83" y="0" on="1"/>
        <pt x="83" y="567" on="1"/>
        <pt x="83" y="646" on="0"/>
        <pt x="152" y="712" on="0"/>
        <pt x="236" y="712" on="1"/>
        <pt x="552" y="712" on="1"/>
      </contour>
    </TTGlyph>
    <TTGlyph name="G" xMin="39" yMin="-6" xMax="576" yMax="718">
      <contour>
        <pt x="39" y="335" on="1"/>
        <pt x="39" y="423" on="1"/>
        <pt x="39" y="562" on="0"/>
        <pt x="185" y="718" on="0"/>
        <pt x="443" y="718" on="0"/>
        <pt x="521" y="640" on="1"/>
        <pt x="576" y="585" on="0"/>
        <pt x="576" y="475" on="1"/>
        <pt x="446" y="475" on="1"/>
        <pt x="446" y="594" on="0"/>
        <pt x="319" y="594" on="1"/>
        <pt x="281" y="594" on="0"/>
        <pt x="228" y="565" on="0"/>
        <pt x="202" y="527" on="0"/>
        <pt x="188" y="453" on="0"/>
        <pt x="186" y="403" on="0"/>
        <pt x="186" y="319" on="0"/>
        <pt x="187" y="290" on="0"/>
        <pt x="192" y="225" on="0"/>
        <pt x="203" y="197" on="0"/>
        <pt x="224" y="153" on="0"/>
        <pt x="240" y="144" on="1"/>
        <pt x="281" y="118" on="0"/>
        <pt x="333" y="118" on="1"/>
        <pt x="420" y="118" on="0"/>
        <pt x="456" y="192" on="1"/>
        <pt x="456" y="240" on="1"/>
        <pt x="370" y="240" on="1"/>
        <pt x="370" y="356" on="1"/>
        <pt x="575" y="356" on="1"/>
        <pt x="575" y="141" on="1"/>
        <pt x="544" y="68" on="0"/>
        <pt x="410" y="-6" on="0"/>
        <pt x="325" y="-6" on="1"/>
        <pt x="174" y="-6" on="0"/>
        <pt x="39" y="163" on="0"/>
      </contour>
    </TTGlyph>
    <TTGlyph name="H" xMin="73" yMin="0" xMax="612" yMax="712">
      <contour>
        <pt x="612" y="0" on="1"/>
        <pt x="473" y="0" on="1"/>
        <pt x="473" y="288" on="1"/>
        <pt x="212" y="288" on="1"/>
        <pt x="212" y="0" on="1"/>
        <pt x="73" y="0" on="1"/>
        <pt x="73" y="712" on="1"/>
        <pt x="212" y="712" on="1"/>
        <pt x="212" y="411" on="1"/>
        <pt x="473" y="411" on="1"/>
        <pt x="473" y="712" on="1"/>
        <pt x="612" y="712" on="1"/>
      </contour>
    </TTGlyph>
    <TTGlyph name="I" xMin="83" yMin="0" xMax="222" yMax="712">
      <contour>
        <pt x="222" y="0" on="1"/>
        <pt x="83" y="0" on="1"/>
        <pt x="83" y="712" on="1"/>
        <pt x="222" y="712" on="1"/>
      </contour>
    </TTGlyph>
    <TTGlyph name="IJ" xMin="83" yMin="-6" xMax="752" yMax="712">
      <contour>
        <pt x="222" y="0" on="1"/>
        <pt x="83" y="0" on="1"/>
        <pt x="83" y="712" on="1"/>
        <pt x="222" y="712" on="1"/>
      </contour>
      <contour>
        <pt x="752" y="712" on="1"/>
        <pt x="752" y="254" on="1"/>
        <pt x="752" y="111" on="0"/>
        <pt x="634" y="-6" on="0"/>
        <pt x="522" y="-6" on="1"/>
        <pt x="450" y="-6" on="0"/>
        <pt x="353" y="32" on="0"/>
        <pt x="312" y="73" on="1"/>
        <pt x="390" y="158" on="1"/>
        <pt x="407" y="141" on="0"/>
        <pt x="476" y="118" on="0"/>
        <pt x="565" y="118" on="0"/>
        <pt x="613" y="161" on="0"/>
        <pt x="613" y="220" on="1"/>
        <pt x="613" y="712" on="1"/>
      </contour>
    </TTGlyph>
    <TTGlyph name="Iacute" xMin="83" yMin="0" xMax="280" yMax="959">
      <contour>
        <pt x="222" y="0" on="1"/>
        <pt x="83" y="0" on="1"/>
        <pt x="83" y="712" on="1"/>
        <pt x="222" y="712" on="1"/>
      </contour>
      <contour>
        <pt x="280" y="959" on="1"/>
        <pt x="206" y="853" on="1"/>
        <pt x="172" y="805" on="0"/>
        <pt x="129" y="805" on="1"/>
        <pt x="101" y="805" on="0"/>
        <pt x="101" y="831" on="1"/>
        <pt x="101" y="841" on="0"/>
        <pt x="105" y="853" on="1"/>
        <pt x="143" y="959" on="1"/>
      </contour>
    </TTGlyph>
    <TTGlyph name="Icircumflex" xMin="0" yMin="0" xMax="302" yMax="950">
      <contour>
        <pt x="222" y="0" on="1"/>
        <pt x="83" y="0" on="1"/>
        <pt x="83" y="712" on="1"/>
        <pt x="222" y="712" on="1"/>
      </contour>
      <contour>
        <pt x="151" y="885" on="1"/>
        <pt x="106" y="829" on="1"/>
        <pt x="67" y="781" on="0"/>
        <pt x="29" y="781" on="1"/>
        <pt x="16" y="781" on="0"/>
        <pt x="0" y="799" on="0"/>
        <pt x="0" y="821" on="0"/>
        <pt x="5" y="829" on="1"/>
        <pt x="99" y="950" on="1"/>
        <pt x="203" y="950" on="1"/>
        <pt x="297" y="829" on="1"/>
        <pt x="302" y="821" on="0"/>
        <pt x="302" y="800" on="0"/>
        <pt x="285" y="781" on="0"/>
        <pt x="273" y="781" on="1"/>
        <pt x="235" y="781" on="0"/>
        <pt x="196" y="829" on="1"/>
      </contour>
    </TTGlyph>
    <TTGlyph name="Idieresis" xMin="-27" yMin="0" xMax="333" yMax="938">
      <contour>
        <pt x="222" y="0" on="1"/>
        <pt x="83" y="0" on="1"/>
        <pt x="83" y="712" on="1"/>
        <pt x="222" y="712" on="1"/>
      </contour>
      <contour>
        <pt x="333" y="910" on="0"/>
        <pt x="333" y="832" on="0"/>
        <pt x="298" y="804" on="0"/>
        <pt x="234" y="804" on="0"/>
        <pt x="199" y="832" on="0"/>
        <pt x="199" y="910" on="0"/>
        <pt x="234" y="938" on="0"/>
        <pt x="298" y="938" on="0"/>
      </contour>
      <contour>
        <pt x="107" y="910" on="0"/>
        <pt x="107" y="832" on="0"/>
        <pt x="72" y="804" on="0"/>
        <pt x="8" y="804" on="0"/>
        <pt x="-27" y="832" on="0"/>
        <pt x="-27" y="910" on="0"/>
        <pt x="8" y="938" on="0"/>
        <pt x="72" y="938" on="0"/>
      </contour>
    </TTGlyph>
    <TTGlyph name="Igrave" xMin="31" yMin="0" xMax="222" yMax="959">
      <contour>
        <pt x="222" y="0" on="1"/>
        <pt x="83" y="0" on="1"/>
        <pt x="83" y="712" on="1"/>
        <pt x="222" y="712" on="1"/>
      </contour>
      <contour>
        <pt x="105" y="853" on="1"/>
        <pt x="31" y="959" on="1"/>
        <pt x="168" y="959" on="1"/>
        <pt x="206" y="853" on="1"/>
        <pt x="210" y="841" on="0"/>
        <pt x="210" y="831" on="1"/>
        <pt x="210" y="805" on="0"/>
        <pt x="182" y="805" on="1"/>
        <pt x="139" y="805" on="0"/>
      </contour>
    </TTGlyph>
    <TTGlyph name="Itilde" xMin="-28" yMin="0" xMax="333" yMax="920">
      <contour>
        <pt x="287" y="901" on="1"/>
        <pt x="333" y="851" on="1"/>
        <pt x="274" y="792" on="0"/>
        <pt x="220" y="792" on="1"/>
        <pt x="183" y="792" on="0"/>
        <pt x="112" y="833" on="0"/>
        <pt x="49" y="833" on="0"/>
        <pt x="22" y="809" on="1"/>
        <pt x="-28" y="861" on="1"/>
        <pt x="5" y="894" on="0"/>
        <pt x="55" y="920" on="0"/>
        <pt x="123" y="920" on="0"/>
        <pt x="194" y="878" on="0"/>
        <pt x="263" y="878" on="0"/>
      </contour>
      <contour>
        <pt x="222" y="0" on="1"/>
        <pt x="83" y="0" on="1"/>
        <pt x="83" y="712" on="1"/>
        <pt x="222" y="712" on="1"/>
      </contour>
    </TTGlyph>
    <TTGlyph name="J" xMin="7" yMin="-6" xMax="447" yMax="712">
      <contour>
        <pt x="447" y="712" on="1"/>
        <pt x="447" y="254" on="1"/>
        <pt x="447" y="111" on="0"/>
        <pt x="329" y="-6" on="0"/>
        <pt x="217" y="-6" on="1"/>
        <pt x="145" y="-6" on="0"/>
        <pt x="48" y="32" on="0"/>
        <pt x="7" y="73" on="1"/>
        <pt x="85" y="158" on="1"/>
        <pt x="102" y="141" on="0"/>
        <pt x="171" y="118" on="0"/>
        <pt x="260" y="118" on="0"/>
        <pt x="308" y="161" on="0"/>
        <pt x="308" y="220" on="1"/>
        <pt x="308" y="712" on="1"/>
      </contour>
    </TTGlyph>
    <TTGlyph name="Jcircumflex" xMin="7" yMin="-6" xMax="536" yMax="949">
      <contour>
        <pt x="385" y="884" on="1"/>
        <pt x="340" y="828" on="1"/>
        <pt x="301" y="780" on="0"/>
        <pt x="263" y="780" on="1"/>
        <pt x="250" y="780" on="0"/>
        <pt x="234" y="798" on="0"/>
        <pt x="234" y="820" on="0"/>
        <pt x="239" y="828" on="1"/>
        <pt x="333" y="949" on="1"/>
        <pt x="437" y="949" on="1"/>
        <pt x="531" y="828" on="1"/>
        <pt x="536" y="820" on="0"/>
        <pt x="536" y="799" on="0"/>
        <pt x="519" y="780" on="0"/>
        <pt x="507" y="780" on="1"/>
        <pt x="469" y="780" on="0"/>
        <pt x="430" y="828" on="1"/>
      </contour>
      <contour>
        <pt x="447" y="712" on="1"/>
        <pt x="447" y="254" on="1"/>
        <pt x="447" y="111" on="0"/>
        <pt x="329" y="-6" on="0"/>
        <pt x="217" y="-6" on="1"/>
        <pt x="145" y="-6" on="0"/>
        <pt x="48" y="32" on="0"/>
        <pt x="7" y="73" on="1"/>
        <pt x="85" y="158" on="1"/>
        <pt x="102" y="141" on="0"/>
        <pt x="171" y="118" on="0"/>
        <pt x="260" y="118" on="0"/>
        <pt x="308" y="161" on="0"/>
        <pt x="308" y="220" on="1"/>
        <pt x="308" y="712" on="1"/>
      </contour>
    </TTGlyph>
    <TTGlyph name="K" xMin="83" yMin="0" xMax="649" yMax="712">
      <contour>
        <pt x="404" y="377" on="1"/>
        <pt x="649" y="0" on="1"/>
        <pt x="487" y="0" on="1"/>
        <pt x="319" y="269" on="1"/>
        <pt x="222" y="139" on="1"/>
        <pt x="222" y="0" on="1"/>
        <pt x="83" y="0" on="1"/>
        <pt x="83" y="712" on="1"/>
        <pt x="222" y="712" on="1"/>
        <pt x="222" y="314" on="1"/>
        <pt x="491" y="712" on="1"/>
        <pt x="631" y="712" on="1"/>
      </contour>
    </TTGlyph>
    <TTGlyph name="L" xMin="83" yMin="0" xMax="522" yMax="712">
      <contour>
        <pt x="522" y="0" on="1"/>
        <pt x="310" y="0" on="1"/>
        <pt x="190" y="0" on="0"/>
        <pt x="83" y="93" on="0"/>
        <pt x="83" y="198" on="1"/>
        <pt x="83" y="712" on="1"/>
        <pt x="222" y="712" on="1"/>
        <pt x="222" y="198" on="1"/>
        <pt x="222" y="156" on="0"/>
        <pt x="260" y="124" on="0"/>
        <pt x="310" y="124" on="1"/>
        <pt x="522" y="124" on="1"/>
      </contour>
    </TTGlyph>
    <TTGlyph name="Ldotaccent" xMin="83" yMin="0" xMax="522" yMax="712">
      <contour>
        <pt x="522" y="0" on="1"/>
        <pt x="310" y="0" on="1"/>
        <pt x="190" y="0" on="0"/>
        <pt x="83" y="93" on="0"/>
        <pt x="83" y="198" on="1"/>
        <pt x="83" y="712" on="1"/>
        <pt x="222" y="712" on="1"/>
        <pt x="222" y="198" on="1"/>
        <pt x="222" y="156" on="0"/>
        <pt x="260" y="124" on="0"/>
        <pt x="310" y="124" on="1"/>
        <pt x="522" y="124" on="1"/>
      </contour>
      <contour>
        <pt x="461" y="489" on="0"/>
        <pt x="487" y="463" on="0"/>
        <pt x="487" y="378" on="0"/>
        <pt x="461" y="351" on="0"/>
        <pt x="376" y="351" on="0"/>
        <pt x="349" y="378" on="0"/>
        <pt x="349" y="463" on="0"/>
        <pt x="376" y="489" on="0"/>
      </contour>
    </TTGlyph>
    <TTGlyph name="Lslash" xMin="37" yMin="0" xMax="542" yMax="712">
      <contour>
        <pt x="542" y="0" on="1"/>
        <pt x="330" y="0" on="1"/>
        <pt x="210" y="0" on="0"/>
        <pt x="103" y="93" on="0"/>
        <pt x="103" y="198" on="1"/>
        <pt x="103" y="255" on="1"/>
        <pt x="37" y="213" on="1"/>
        <pt x="37" y="329" on="1"/>
        <pt x="103" y="370" on="1"/>
        <pt x="103" y="712" on="1"/>
        <pt x="242" y="712" on="1"/>
        <pt x="242" y="458" on="1"/>
        <pt x="368" y="538" on="1"/>
        <pt x="368" y="423" on="1"/>
        <pt x="242" y="343" on="1"/>
        <pt x="242" y="198" on="1"/>
        <pt x="242" y="156" on="0"/>
        <pt x="280" y="124" on="0"/>
        <pt x="330" y="124" on="1"/>
        <pt x="542" y="124" on="1"/>
      </contour>
    </TTGlyph>
    <TTGlyph name="M" xMin="73" yMin="0" xMax="748" yMax="712">
      <contour>
        <pt x="609" y="425" on="1"/>
        <pt x="481" y="155" on="1"/>
        <pt x="453" y="101" on="0"/>
        <pt x="370" y="101" on="0"/>
        <pt x="342" y="158" on="1"/>
        <pt x="212" y="425" on="1"/>
        <pt x="212" y="0" on="1"/>
        <pt x="73" y="0" on="1"/>
        <pt x="73" y="712" on="1"/>
        <pt x="210" y="712" on="1"/>
        <pt x="411" y="301" on="1"/>
        <pt x="611" y="712" on="1"/>
        <pt x="748" y="712" on="1"/>
        <pt x="748" y="0" on="1"/>
        <pt x="609" y="0" on="1"/>
      </contour>
    </TTGlyph>
    <TTGlyph name="N" xMin="73" yMin="-8" xMax="638" yMax="712">
      <contour>
        <pt x="638" y="712" on="1"/>
        <pt x="638" y="72" on="1"/>
        <pt x="638" y="39" on="0"/>
        <pt x="598" y="-8" on="0"/>
        <pt x="571" y="-8" on="1"/>
        <pt x="502" y="-8" on="0"/>
        <pt x="458" y="72" on="1"/>
        <pt x="212" y="457" on="1"/>
        <pt x="212" y="0" on="1"/>
        <pt x="73" y="0" on="1"/>
        <pt x="73" y="712" on="1"/>
        <pt x="207" y="712" on="1"/>
        <pt x="499" y="246" on="1"/>
        <pt x="499" y="712" on="1"/>
      </contour>
    </TTGlyph>
    <TTGlyph name="Nacute" xMin="73" yMin="-8" xMax="638" yMax="950">
      <contour>
        <pt x="509" y="950" on="1"/>
        <pt x="435" y="844" on="1"/>
        <pt x="401" y="796" on="0"/>
        <pt x="358" y="796" on="1"/>
        <pt x="330" y="796" on="0"/>
        <pt x="330" y="822" on="1"/>
        <pt x="330" y="832" on="0"/>
        <pt x="334" y="844" on="1"/>
        <pt x="372" y="950" on="1"/>
      </contour>
      <contour>
        <pt x="638" y="712" on="1"/>
        <pt x="638" y="72" on="1"/>
        <pt x="638" y="39" on="0"/>
        <pt x="598" y="-8" on="0"/>
        <pt x="571" y="-8" on="1"/>
        <pt x="502" y="-8" on="0"/>
        <pt x="458" y="72" on="1"/>
        <pt x="212" y="457" on="1"/>
        <pt x="212" y="0" on="1"/>
        <pt x="73" y="0" on="1"/>
        <pt x="73" y="712" on="1"/>
        <pt x="207" y="712" on="1"/>
        <pt x="499" y="246" on="1"/>
        <pt x="499" y="712" on="1"/>
      </contour>
    </TTGlyph>
    <TTGlyph name="Ntilde" xMin="73" yMin="-8" xMax="638" yMax="920">
      <contour>
        <pt x="638" y="712" on="1"/>
        <pt x="638" y="72" on="1"/>
        <pt x="638" y="39" on="0"/>
        <pt x="598" y="-8" on="0"/>
        <pt x="571" y="-8" on="1"/>
        <pt x="502" y="-8" on="0"/>
        <pt x="458" y="72" on="1"/>
        <pt x="212" y="457" on="1"/>
        <pt x="212" y="0" on="1"/>
        <pt x="73" y="0" on="1"/>
        <pt x="73" y="712" on="1"/>
        <pt x="207" y="712" on="1"/>
        <pt x="499" y="246" on="1"/>
        <pt x="499" y="712" on="1"/>
      </contour>
      <contour>
        <pt x="490" y="901" on="1"/>
        <pt x="536" y="851" on="1"/>
        <pt x="477" y="792" on="0"/>
        <pt x="423" y="792" on="1"/>
        <pt x="386" y="792" on="0"/>
        <pt x="315" y="833" on="0"/>
        <pt x="252" y="833" on="0"/>
        <pt x="225" y="809" on="1"/>
        <pt x="175" y="861" on="1"/>
        <pt x="208" y="894" on="0"/>
        <pt x="258" y="920" on="0"/>
        <pt x="326" y="920" on="0"/>
        <pt x="397" y="878" on="0"/>
        <pt x="466" y="878" on="0"/>
      </contour>
    </TTGlyph>
    <TTGlyph name="O" xMin="39" yMin="-6" xMax="605" yMax="718">
      <contour>
        <pt x="605" y="389" on="1"/>
        <pt x="605" y="335" on="1"/>
        <pt x="605" y="156" on="0"/>
        <pt x="470" y="-6" on="0"/>
        <pt x="172" y="-6" on="0"/>
        <pt x="39" y="156" on="0"/>
        <pt x="39" y="338" on="1"/>
        <pt x="39" y="390" on="1"/>
        <pt x="39" y="556" on="0"/>
        <pt x="174" y="718" on="0"/>
        <pt x="467" y="718" on="0"/>
        <pt x="605" y="554" on="0"/>
      </contour>
      <contour>
        <pt x="466" y="338" on="1"/>
        <pt x="466" y="375" on="1"/>
        <pt x="466" y="471" on="0"/>
        <pt x="442" y="528" on="1"/>
        <pt x="414" y="594" on="0"/>
        <pt x="322" y="594" on="1"/>
        <pt x="229" y="594" on="0"/>
        <pt x="201" y="528" on="1"/>
        <pt x="178" y="474" on="0"/>
        <pt x="178" y="375" on="1"/>
        <pt x="178" y="338" on="1"/>
        <pt x="178" y="209" on="0"/>
        <pt x="214" y="164" on="1"/>
        <pt x="228" y="145" on="0"/>
        <pt x="283" y="118" on="0"/>
        <pt x="360" y="118" on="0"/>
        <pt x="414" y="144" on="0"/>
        <pt x="444" y="182" on="0"/>
        <pt x="452" y="213" on="1"/>
        <pt x="466" y="262" on="0"/>
      </contour>
    </TTGlyph>
    <TTGlyph name="OE" xMin="39" yMin="-6" xMax="934" yMax="712">
      <contour>
        <pt x="466" y="341" on="1"/>
        <pt x="466" y="389" on="1"/>
        <pt x="466" y="514" on="0"/>
        <pt x="432" y="553" on="1"/>
        <pt x="398" y="594" on="0"/>
        <pt x="246" y="594" on="0"/>
        <pt x="210" y="552" on="1"/>
        <pt x="184" y="521" on="0"/>
        <pt x="180" y="444" on="1"/>
        <pt x="178" y="419" on="0"/>
        <pt x="178" y="375" on="1"/>
        <pt x="178" y="338" on="1"/>
        <pt x="179" y="232" on="0"/>
        <pt x="194" y="193" on="1"/>
        <pt x="222" y="118" on="0"/>
        <pt x="322" y="118" on="1"/>
        <pt x="409" y="118" on="0"/>
        <pt x="438" y="168" on="1"/>
        <pt x="457" y="204" on="0"/>
        <pt x="461" y="238" on="1"/>
        <pt x="466" y="281" on="0"/>
      </contour>
      <contour>
        <pt x="934" y="0" on="1"/>
        <pt x="692" y="0" on="1"/>
        <pt x="565" y="0" on="0"/>
        <pt x="514" y="50" on="1"/>
        <pt x="448" y="-6" on="0"/>
        <pt x="322" y="-6" on="1"/>
        <pt x="172" y="-6" on="0"/>
        <pt x="39" y="155" on="0"/>
        <pt x="39" y="337" on="1"/>
        <pt x="39" y="375" on="1"/>
        <pt x="39" y="550" on="0"/>
        <pt x="173" y="712" on="0"/>
        <pt x="322" y="712" on="1"/>
        <pt x="934" y="712" on="1"/>
        <pt x="934" y="588" on="1"/>
        <pt x="604" y="588" on="1"/>
        <pt x="604" y="421" on="1"/>
        <pt x="835" y="421" on="1"/>
        <pt x="815" y="297" on="1"/>
        <pt x="604" y="297" on="1"/>
        <pt x="604" y="198" on="1"/>
        <pt x="604" y="156" on="0"/>
        <pt x="642" y="124" on="0"/>
        <pt x="692" y="124" on="1"/>
        <pt x="934" y="124" on="1"/>
      </contour>
    </TTGlyph>
    <TTGlyph name="Oacute" xMin="39" yMin="-6" xMax="605" yMax="959">
      <contour>
        <pt x="605" y="389" on="1"/>
        <pt x="605" y="335" on="1"/>
        <pt x="605" y="156" on="0"/>
        <pt x="470" y="-6" on="0"/>
        <pt x="172" y="-6" on="0"/>
        <pt x="39" y="155" on="0"/>
        <pt x="39" y="337" on="1"/>
        <pt x="39" y="375" on="1"/>
        <pt x="39" y="551" on="0"/>
        <pt x="174" y="718" on="0"/>
        <pt x="322" y="718" on="1"/>
        <pt x="605" y="718" on="0"/>
      </contour>
      <contour>
        <pt x="466" y="341" on="1"/>
        <pt x="466" y="389" on="1"/>
        <pt x="466" y="514" on="0"/>
        <pt x="432" y="553" on="1"/>
        <pt x="398" y="594" on="0"/>
        <pt x="246" y="594" on="0"/>
        <pt x="210" y="552" on="1"/>
        <pt x="184" y="521" on="0"/>
        <pt x="180" y="444" on="1"/>
        <pt x="178" y="419" on="0"/>
        <pt x="178" y="375" on="1"/>
        <pt x="178" y="338" on="1"/>
        <pt x="179" y="232" on="0"/>
        <pt x="194" y="193" on="1"/>
        <pt x="222" y="118" on="0"/>
        <pt x="322" y="118" on="1"/>
        <pt x="409" y="118" on="0"/>
        <pt x="438" y="168" on="1"/>
        <pt x="457" y="204" on="0"/>
        <pt x="461" y="238" on="1"/>
        <pt x="466" y="281" on="0"/>
      </contour>
      <contour>
        <pt x="473" y="959" on="1"/>
        <pt x="399" y="853" on="1"/>
        <pt x="365" y="805" on="0"/>
        <pt x="322" y="805" on="1"/>
        <pt x="294" y="805" on="0"/>
        <pt x="294" y="831" on="1"/>
        <pt x="294" y="841" on="0"/>
        <pt x="298" y="853" on="1"/>
        <pt x="336" y="959" on="1"/>
      </contour>
    </TTGlyph>
    <TTGlyph name="Ocircumflex" xMin="39" yMin="-6" xMax="605" yMax="950">
      <contour>
        <pt x="605" y="389" on="1"/>
        <pt x="605" y="335" on="1"/>
        <pt x="605" y="156" on="0"/>
        <pt x="470" y="-6" on="0"/>
        <pt x="172" y="-6" on="0"/>
        <pt x="39" y="155" on="0"/>
        <pt x="39" y="337" on="1"/>
        <pt x="39" y="375" on="1"/>
        <pt x="39" y="551" on="0"/>
        <pt x="174" y="718" on="0"/>
        <pt x="322" y="718" on="1"/>
        <pt x="605" y="718" on="0"/>
      </contour>
      <contour>
        <pt x="466" y="341" on="1"/>
        <pt x="466" y="389" on="1"/>
        <pt x="466" y="514" on="0"/>
        <pt x="432" y="553" on="1"/>
        <pt x="398" y="594" on="0"/>
        <pt x="246" y="594" on="0"/>
        <pt x="210" y="552" on="1"/>
        <pt x="184" y="521" on="0"/>
        <pt x="180" y="444" on="1"/>
        <pt x="178" y="419" on="0"/>
        <pt x="178" y="375" on="1"/>
        <pt x="178" y="338" on="1"/>
        <pt x="179" y="232" on="0"/>
        <pt x="194" y="193" on="1"/>
        <pt x="222" y="118" on="0"/>
        <pt x="322" y="118" on="1"/>
        <pt x="409" y="118" on="0"/>
        <pt x="438" y="168" on="1"/>
        <pt x="457" y="204" on="0"/>
        <pt x="461" y="238" on="1"/>
        <pt x="466" y="281" on="0"/>
      </contour>
      <contour>
        <pt x="322" y="885" on="1"/>
        <pt x="277" y="829" on="1"/>
        <pt x="238" y="781" on="0"/>
        <pt x="200" y="781" on="1"/>
        <pt x="187" y="781" on="0"/>
        <pt x="171" y="799" on="0"/>
        <pt x="171" y="821" on="0"/>
        <pt x="176" y="829" on="1"/>
        <pt x="270" y="950" on="1"/>
        <pt x="374" y="950" on="1"/>
        <pt x="468" y="829" on="1"/>
        <pt x="473" y="821" on="0"/>
        <pt x="473" y="800" on="0"/>
        <pt x="456" y="781" on="0"/>
        <pt x="444" y="781" on="1"/>
        <pt x="406" y="781" on="0"/>
        <pt x="367" y="829" on="1"/>
      </contour>
    </TTGlyph>
    <TTGlyph name="Odieresis" xMin="39" yMin="-6" xMax="605" yMax="938">
      <contour>
        <pt x="605" y="389" on="1"/>
        <pt x="605" y="335" on="1"/>
        <pt x="605" y="156" on="0"/>
        <pt x="470" y="-6" on="0"/>
        <pt x="172" y="-6" on="0"/>
        <pt x="39" y="155" on="0"/>
        <pt x="39" y="337" on="1"/>
        <pt x="39" y="375" on="1"/>
        <pt x="39" y="551" on="0"/>
        <pt x="174" y="718" on="0"/>
        <pt x="322" y="718" on="1"/>
        <pt x="605" y="718" on="0"/>
      </contour>
      <contour>
        <pt x="466" y="341" on="1"/>
        <pt x="466" y="389" on="1"/>
        <pt x="466" y="514" on="0"/>
        <pt x="432" y="553" on="1"/>
        <pt x="398" y="594" on="0"/>
        <pt x="246" y="594" on="0"/>
        <pt x="210" y="552" on="1"/>
        <pt x="184" y="521" on="0"/>
        <pt x="180" y="444" on="1"/>
        <pt x="178" y="419" on="0"/>
        <pt x="178" y="375" on="1"/>
        <pt x="178" y="338" on="1"/>
        <pt x="179" y="232" on="0"/>
        <pt x="194" y="193" on="1"/>
        <pt x="222" y="118" on="0"/>
        <pt x="322" y="118" on="1"/>
        <pt x="409" y="118" on="0"/>
        <pt x="438" y="168" on="1"/>
        <pt x="457" y="204" on="0"/>
        <pt x="461" y="238" on="1"/>
        <pt x="466" y="281" on="0"/>
      </contour>
      <contour>
        <pt x="502" y="910" on="0"/>
        <pt x="502" y="832" on="0"/>
        <pt x="467" y="804" on="0"/>
        <pt x="403" y="804" on="0"/>
        <pt x="368" y="832" on="0"/>
        <pt x="368" y="910" on="0"/>
        <pt x="403" y="938" on="0"/>
        <pt x="467" y="938" on="0"/>
      </contour>
      <contour>
        <pt x="276" y="910" on="0"/>
        <pt x="276" y="832" on="0"/>
        <pt x="241" y="804" on="0"/>
        <pt x="177" y="804" on="0"/>
        <pt x="142" y="832" on="0"/>
        <pt x="142" y="910" on="0"/>
        <pt x="177" y="938" on="0"/>
        <pt x="241" y="938" on="0"/>
      </contour>
    </TTGlyph>
    <TTGlyph name="Ograve" xMin="39" yMin="-6" xMax="605" yMax="959">
      <contour>
        <pt x="605" y="389" on="1"/>
        <pt x="605" y="335" on="1"/>
        <pt x="605" y="156" on="0"/>
        <pt x="470" y="-6" on="0"/>
        <pt x="172" y="-6" on="0"/>
        <pt x="39" y="155" on="0"/>
        <pt x="39" y="337" on="1"/>
        <pt x="39" y="375" on="1"/>
        <pt x="39" y="551" on="0"/>
        <pt x="174" y="718" on="0"/>
        <pt x="322" y="718" on="1"/>
        <pt x="605" y="718" on="0"/>
      </contour>
      <contour>
        <pt x="466" y="341" on="1"/>
        <pt x="466" y="389" on="1"/>
        <pt x="466" y="514" on="0"/>
        <pt x="432" y="553" on="1"/>
        <pt x="398" y="594" on="0"/>
        <pt x="246" y="594" on="0"/>
        <pt x="210" y="552" on="1"/>
        <pt x="184" y="521" on="0"/>
        <pt x="180" y="444" on="1"/>
        <pt x="178" y="419" on="0"/>
        <pt x="178" y="375" on="1"/>
        <pt x="178" y="338" on="1"/>
        <pt x="179" y="232" on="0"/>
        <pt x="194" y="193" on="1"/>
        <pt x="222" y="118" on="0"/>
        <pt x="322" y="118" on="1"/>
        <pt x="409" y="118" on="0"/>
        <pt x="438" y="168" on="1"/>
        <pt x="457" y="204" on="0"/>
        <pt x="461" y="238" on="1"/>
        <pt x="466" y="281" on="0"/>
      </contour>
      <contour>
        <pt x="248" y="853" on="1"/>
        <pt x="174" y="959" on="1"/>
        <pt x="311" y="959" on="1"/>
        <pt x="349" y="853" on="1"/>
        <pt x="353" y="841" on="0"/>
        <pt x="353" y="831" on="1"/>
        <pt x="353" y="805" on="0"/>
        <pt x="325" y="805" on="1"/>
        <pt x="282" y="805" on="0"/>
      </contour>
    </TTGlyph>
    <TTGlyph name="Omega" xMin="36" yMin="0" xMax="613" yMax="718">
      <contour>
        <pt x="36" y="0" on="1"/>
        <pt x="36" y="122" on="1"/>
        <pt x="106" y="122" on="1"/>
        <pt x="39" y="198" on="0"/>
        <pt x="39" y="358" on="1"/>
        <pt x="39" y="390" on="1"/>
        <pt x="39" y="556" on="0"/>
        <pt x="174" y="718" on="0"/>
        <pt x="467" y="718" on="0"/>
        <pt x="605" y="554" on="0"/>
        <pt x="605" y="389" on="1"/>
        <pt x="605" y="335" on="1"/>
        <pt x="605" y="191" on="0"/>
        <pt x="542" y="122" on="1"/>
        <pt x="613" y="122" on="1"/>
        <pt x="613" y="0" on="1"/>
        <pt x="396" y="0" on="1"/>
        <pt x="397" y="16" on="0"/>
        <pt x="397" y="85" on="0"/>
        <pt x="387" y="135" on="1"/>
        <pt x="429" y="159" on="0"/>
        <pt x="466" y="284" on="0"/>
        <pt x="466" y="358" on="1"/>
        <pt x="466" y="375" on="1"/>
        <pt x="466" y="471" on="0"/>
        <pt x="442" y="528" on="1"/>
        <pt x="414" y="594" on="0"/>
        <pt x="322" y="594" on="1"/>
        <pt x="229" y="594" on="0"/>
        <pt x="201" y="528" on="1"/>
        <pt x="178" y="474" on="0"/>
        <pt x="178" y="375" on="1"/>
        <pt x="178" y="358" on="1"/>
        <pt x="180" y="170" on="0"/>
        <pt x="262" y="131" on="1"/>
        <pt x="252" y="85" on="0"/>
        <pt x="252" y="15" on="0"/>
        <pt x="253" y="0" on="1"/>
      </contour>
    </TTGlyph>
    <TTGlyph name="Oslash" xMin="39" yMin="-45" xMax="605" yMax="754">
      <contour>
        <pt x="80" y="-45" on="1"/>
        <pt x="126" y="53" on="1"/>
        <pt x="39" y="131" on="0"/>
        <pt x="39" y="338" on="1"/>
        <pt x="39" y="390" on="1"/>
        <pt x="39" y="556" on="0"/>
        <pt x="174" y="718" on="0"/>
        <pt x="322" y="718" on="1"/>
        <pt x="381" y="718" on="0"/>
        <pt x="432" y="702" on="1"/>
        <pt x="457" y="754" on="1"/>
        <pt x="559" y="754" on="1"/>
        <pt x="514" y="658" on="1"/>
        <pt x="605" y="579" on="0"/>
        <pt x="605" y="389" on="1"/>
        <pt x="605" y="335" on="1"/>
        <pt x="605" y="156" on="0"/>
        <pt x="470" y="-6" on="0"/>
        <pt x="322" y="-6" on="1"/>
        <pt x="256" y="-6" on="0"/>
        <pt x="207" y="9" on="1"/>
        <pt x="182" y="-45" on="1"/>
      </contour>
      <contour>
        <pt x="466" y="338" on="1"/>
        <pt x="466" y="375" on="1"/>
        <pt x="466" y="468" on="0"/>
        <pt x="447" y="517" on="1"/>
        <pt x="263" y="127" on="1"/>
        <pt x="287" y="118" on="0"/>
        <pt x="360" y="118" on="0"/>
        <pt x="414" y="144" on="0"/>
        <pt x="444" y="182" on="0"/>
        <pt x="452" y="213" on="1"/>
        <pt x="466" y="262" on="0"/>
      </contour>
      <contour>
        <pt x="178" y="375" on="1"/>
        <pt x="178" y="338" on="1"/>
        <pt x="178" y="243" on="0"/>
        <pt x="195" y="198" on="1"/>
        <pt x="377" y="585" on="1"/>
        <pt x="354" y="594" on="0"/>
        <pt x="275" y="594" on="0"/>
        <pt x="215" y="561" on="0"/>
        <pt x="201" y="528" on="1"/>
        <pt x="178" y="474" on="0"/>
      </contour>
    </TTGlyph>
    <TTGlyph name="Otilde" xMin="39" yMin="-6" xMax="605" yMax="920">
      <contour>
        <pt x="605" y="389" on="1"/>
        <pt x="605" y="335" on="1"/>
        <pt x="605" y="156" on="0"/>
        <pt x="470" y="-6" on="0"/>
        <pt x="172" y="-6" on="0"/>
        <pt x="39" y="155" on="0"/>
        <pt x="39" y="337" on="1"/>
        <pt x="39" y="375" on="1"/>
        <pt x="39" y="551" on="0"/>
        <pt x="174" y="718" on="0"/>
        <pt x="322" y="718" on="1"/>
        <pt x="605" y="718" on="0"/>
      </contour>
      <contour>
        <pt x="466" y="341" on="1"/>
        <pt x="466" y="389" on="1"/>
        <pt x="466" y="514" on="0"/>
        <pt x="432" y="553" on="1"/>
        <pt x="398" y="594" on="0"/>
        <pt x="246" y="594" on="0"/>
        <pt x="210" y="552" on="1"/>
        <pt x="184" y="521" on="0"/>
        <pt x="180" y="444" on="1"/>
        <pt x="178" y="419" on="0"/>
        <pt x="178" y="375" on="1"/>
        <pt x="178" y="338" on="1"/>
        <pt x="179" y="232" on="0"/>
        <pt x="194" y="193" on="1"/>
        <pt x="222" y="118" on="0"/>
        <pt x="322" y="118" on="1"/>
        <pt x="409" y="118" on="0"/>
        <pt x="438" y="168" on="1"/>
        <pt x="457" y="204" on="0"/>
        <pt x="461" y="238" on="1"/>
        <pt x="466" y="281" on="0"/>
      </contour>
      <contour>
        <pt x="456" y="901" on="1"/>
        <pt x="502" y="851" on="1"/>
        <pt x="443" y="792" on="0"/>
        <pt x="389" y="792" on="1"/>
        <pt x="352" y="792" on="0"/>
        <pt x="281" y="833" on="0"/>
        <pt x="218" y="833" on="0"/>
        <pt x="191" y="809" on="1"/>
        <pt x="141" y="861" on="1"/>
        <pt x="174" y="894" on="0"/>
        <pt x="224" y="920" on="0"/>
        <pt x="292" y="920" on="0"/>
        <pt x="363" y="878" on="0"/>
        <pt x="432" y="878" on="0"/>
      </contour>
    </TTGlyph>
    <TTGlyph name="P" xMin="83" yMin="0" xMax="594" yMax="712">
      <contour>
        <pt x="594" y="589" on="0"/>
        <pt x="594" y="351" on="0"/>
        <pt x="471" y="228" on="0"/>
        <pt x="359" y="228" on="1"/>
        <pt x="222" y="228" on="1"/>
        <pt x="222" y="0" on="1"/>
        <pt x="83" y="0" on="1"/>
        <pt x="83" y="712" on="1"/>
        <pt x="359" y="712" on="1"/>
        <pt x="471" y="712" on="0"/>
      </contour>
      <contour>
        <pt x="455" y="470" on="1"/>
        <pt x="455" y="588" on="0"/>
        <pt x="352" y="588" on="1"/>
        <pt x="222" y="588" on="1"/>
        <pt x="222" y="353" on="1"/>
        <pt x="352" y="353" on="1"/>
        <pt x="402" y="353" on="0"/>
        <pt x="455" y="407" on="0"/>
      </contour>
    </TTGlyph>
    <TTGlyph name="Q" xMin="39" yMin="-6" xMax="622" yMax="718">
      <contour>
        <pt x="605" y="376" on="1"/>
        <pt x="605" y="335" on="1"/>
        <pt x="605" y="165" on="0"/>
        <pt x="520" y="100" on="1"/>
        <pt x="575" y="103" on="0"/>
        <pt x="622" y="117" on="1"/>
        <pt x="622" y="-6" on="1"/>
        <pt x="322" y="-6" on="1"/>
        <pt x="260" y="-6" on="0"/>
        <pt x="146" y="35" on="0"/>
        <pt x="63" y="118" on="0"/>
        <pt x="39" y="234" on="0"/>
        <pt x="39" y="337" on="1"/>
        <pt x="39" y="375" on="1"/>
        <pt x="39" y="478" on="0"/>
        <pt x="63" y="594" on="0"/>
        <pt x="146" y="677" on="0"/>
        <pt x="260" y="718" on="0"/>
        <pt x="384" y="718" on="0"/>
        <pt x="497" y="677" on="0"/>
        <pt x="582" y="592" on="0"/>
        <pt x="605" y="482" on="0"/>
      </contour>
      <contour>
        <pt x="466" y="341" on="1"/>
        <pt x="466" y="389" on="1"/>
        <pt x="466" y="514" on="0"/>
        <pt x="432" y="553" on="1"/>
        <pt x="398" y="594" on="0"/>
        <pt x="246" y="594" on="0"/>
        <pt x="210" y="552" on="1"/>
        <pt x="184" y="521" on="0"/>
        <pt x="180" y="444" on="1"/>
        <pt x="178" y="419" on="0"/>
        <pt x="178" y="375" on="1"/>
        <pt x="178" y="338" on="1"/>
        <pt x="179" y="232" on="0"/>
        <pt x="194" y="193" on="1"/>
        <pt x="222" y="118" on="0"/>
        <pt x="322" y="118" on="1"/>
        <pt x="409" y="118" on="0"/>
        <pt x="438" y="168" on="1"/>
        <pt x="457" y="204" on="0"/>
        <pt x="461" y="238" on="1"/>
        <pt x="466" y="281" on="0"/>
      </contour>
    </TTGlyph>
    <TTGlyph name="R" xMin="83" yMin="0" xMax="622" yMax="712">
      <contour>
        <pt x="622" y="0" on="1"/>
        <pt x="461" y="0" on="1"/>
        <pt x="322" y="264" on="1"/>
        <pt x="222" y="264" on="1"/>
        <pt x="222" y="0" on="1"/>
        <pt x="83" y="0" on="1"/>
        <pt x="83" y="559" on="1"/>
        <pt x="83" y="639" on="0"/>
        <pt x="157" y="712" on="0"/>
        <pt x="244" y="712" on="1"/>
        <pt x="362" y="712" on="1"/>
        <pt x="468" y="712" on="0"/>
        <pt x="593" y="583" on="0"/>
        <pt x="593" y="484" on="1"/>
        <pt x="593" y="412" on="0"/>
        <pt x="518" y="307" on="0"/>
        <pt x="463" y="287" on="1"/>
      </contour>
      <contour>
        <pt x="397" y="380" on="0"/>
        <pt x="454" y="441" on="0"/>
        <pt x="454" y="532" on="0"/>
        <pt x="399" y="588" on="0"/>
        <pt x="353" y="588" on="1"/>
        <pt x="284" y="588" on="1"/>
        <pt x="222" y="588" on="0"/>
        <pt x="222" y="525" on="1"/>
        <pt x="222" y="380" on="1"/>
        <pt x="353" y="380" on="1"/>
      </contour>
    </TTGlyph>
    <TTGlyph name="Racute" xMin="83" yMin="0" xMax="622" yMax="959">
      <contour>
        <pt x="457" y="959" on="1"/>
        <pt x="383" y="853" on="1"/>
        <pt x="349" y="805" on="0"/>
        <pt x="306" y="805" on="1"/>
        <pt x="278" y="805" on="0"/>
        <pt x="278" y="831" on="1"/>
        <pt x="278" y="841" on="0"/>
        <pt x="282" y="853" on="1"/>
        <pt x="320" y="959" on="1"/>
      </contour>
      <contour>
        <pt x="622" y="0" on="1"/>
        <pt x="461" y="0" on="1"/>
        <pt x="322" y="264" on="1"/>
        <pt x="222" y="264" on="1"/>
        <pt x="222" y="0" on="1"/>
        <pt x="83" y="0" on="1"/>
        <pt x="83" y="559" on="1"/>
        <pt x="83" y="639" on="0"/>
        <pt x="157" y="712" on="0"/>
        <pt x="244" y="712" on="1"/>
        <pt x="362" y="712" on="1"/>
        <pt x="468" y="712" on="0"/>
        <pt x="593" y="583" on="0"/>
        <pt x="593" y="484" on="1"/>
        <pt x="593" y="412" on="0"/>
        <pt x="518" y="307" on="0"/>
        <pt x="463" y="287" on="1"/>
      </contour>
      <contour>
        <pt x="397" y="380" on="0"/>
        <pt x="454" y="441" on="0"/>
        <pt x="454" y="532" on="0"/>
        <pt x="399" y="588" on="0"/>
        <pt x="353" y="588" on="1"/>
        <pt x="284" y="588" on="1"/>
        <pt x="222" y="588" on="0"/>
        <pt x="222" y="525" on="1"/>
        <pt x="222" y="380" on="1"/>
        <pt x="353" y="380" on="1"/>
      </contour>
    </TTGlyph>
    <TTGlyph name="Rcaron" xMin="83" yMin="0" xMax="622" yMax="951">
      <contour>
        <pt x="327" y="847" on="1"/>
        <pt x="372" y="903" on="1"/>
        <pt x="411" y="951" on="0"/>
        <pt x="449" y="951" on="1"/>
        <pt x="462" y="951" on="0"/>
        <pt x="478" y="933" on="0"/>
        <pt x="478" y="911" on="0"/>
        <pt x="473" y="903" on="1"/>
        <pt x="379" y="782" on="1"/>
        <pt x="275" y="782" on="1"/>
        <pt x="181" y="903" on="1"/>
        <pt x="176" y="911" on="0"/>
        <pt x="176" y="932" on="0"/>
        <pt x="193" y="951" on="0"/>
        <pt x="205" y="951" on="1"/>
        <pt x="243" y="951" on="0"/>
        <pt x="282" y="903" on="1"/>
      </contour>
      <contour>
        <pt x="622" y="0" on="1"/>
        <pt x="461" y="0" on="1"/>
        <pt x="322" y="264" on="1"/>
        <pt x="222" y="264" on="1"/>
        <pt x="222" y="0" on="1"/>
        <pt x="83" y="0" on="1"/>
        <pt x="83" y="559" on="1"/>
        <pt x="83" y="639" on="0"/>
        <pt x="157" y="712" on="0"/>
        <pt x="244" y="712" on="1"/>
        <pt x="362" y="712" on="1"/>
        <pt x="468" y="712" on="0"/>
        <pt x="593" y="583" on="0"/>
        <pt x="593" y="484" on="1"/>
        <pt x="593" y="412" on="0"/>
        <pt x="518" y="307" on="0"/>
        <pt x="463" y="287" on="1"/>
      </contour>
      <contour>
        <pt x="397" y="380" on="0"/>
        <pt x="454" y="441" on="0"/>
        <pt x="454" y="532" on="0"/>
        <pt x="399" y="588" on="0"/>
        <pt x="353" y="588" on="1"/>
        <pt x="284" y="588" on="1"/>
        <pt x="222" y="588" on="0"/>
        <pt x="222" y="525" on="1"/>
        <pt x="222" y="380" on="1"/>
        <pt x="353" y="380" on="1"/>
      </contour>
    </TTGlyph>
    <TTGlyph name="Rcommaaccent" xMin="83" yMin="-329" xMax="622" yMax="712">
      <contour>
        <pt x="622" y="0" on="1"/>
        <pt x="461" y="0" on="1"/>
        <pt x="322" y="264" on="1"/>
        <pt x="222" y="264" on="1"/>
        <pt x="222" y="0" on="1"/>
        <pt x="83" y="0" on="1"/>
        <pt x="83" y="559" on="1"/>
        <pt x="83" y="639" on="0"/>
        <pt x="157" y="712" on="0"/>
        <pt x="244" y="712" on="1"/>
        <pt x="362" y="712" on="1"/>
        <pt x="468" y="712" on="0"/>
        <pt x="593" y="583" on="0"/>
        <pt x="593" y="484" on="1"/>
        <pt x="593" y="412" on="0"/>
        <pt x="518" y="307" on="0"/>
        <pt x="463" y="287" on="1"/>
      </contour>
      <contour>
        <pt x="397" y="380" on="0"/>
        <pt x="454" y="441" on="0"/>
        <pt x="454" y="532" on="0"/>
        <pt x="399" y="588" on="0"/>
        <pt x="353" y="588" on="1"/>
        <pt x="284" y="588" on="1"/>
        <pt x="222" y="588" on="0"/>
        <pt x="222" y="525" on="1"/>
        <pt x="222" y="380" on="1"/>
        <pt x="353" y="380" on="1"/>
      </contour>
      <contour>
        <pt x="394" y="-62" on="1"/>
        <pt x="394" y="-147" on="1"/>
        <pt x="394" y="-206" on="0"/>
        <pt x="309" y="-310" on="0"/>
        <pt x="261" y="-329" on="1"/>
        <pt x="261" y="-62" on="1"/>
      </contour>
    </TTGlyph>
    <TTGlyph name="S" xMin="28" yMin="-6" xMax="563" yMax="718">
      <contour>
        <pt x="563" y="210" on="1"/>
        <pt x="563" y="109" on="0"/>
        <pt x="415" y="-6" on="0"/>
        <pt x="300" y="-6" on="1"/>
        <pt x="209" y="-6" on="0"/>
        <pt x="124" y="44" on="1"/>
        <pt x="82" y="70" on="0"/>
        <pt x="28" y="165" on="0"/>
        <pt x="28" y="226" on="1"/>
        <pt x="154" y="232" on="1"/>
        <pt x="154" y="178" on="0"/>
        <pt x="246" y="118" on="0"/>
        <pt x="302" y="118" on="1"/>
        <pt x="427" y="118" on="0"/>
        <pt x="427" y="206" on="1"/>
        <pt x="427" y="278" on="0"/>
        <pt x="342" y="291" on="1"/>
        <pt x="226" y="303" on="1"/>
        <pt x="139" y="316" on="0"/>
        <pt x="37" y="414" on="0"/>
        <pt x="37" y="598" on="0"/>
        <pt x="183" y="718" on="0"/>
        <pt x="406" y="718" on="0"/>
        <pt x="542" y="605" on="0"/>
        <pt x="542" y="516" on="1"/>
        <pt x="418" y="510" on="1"/>
        <pt x="401" y="597" on="0"/>
        <pt x="301" y="597" on="1"/>
        <pt x="240" y="597" on="0"/>
        <pt x="171" y="545" on="0"/>
        <pt x="171" y="474" on="0"/>
        <pt x="221" y="433" on="0"/>
        <pt x="258" y="428" on="1"/>
        <pt x="372" y="416" on="1"/>
        <pt x="563" y="390" on="0"/>
      </contour>
    </TTGlyph>
    <TTGlyph name="Scaron" xMin="28" yMin="-6" xMax="563" yMax="949">
      <contour>
        <pt x="563" y="210" on="1"/>
        <pt x="563" y="111" on="0"/>
        <pt x="397" y="-6" on="0"/>
        <pt x="279" y="-6" on="1"/>
        <pt x="190" y="-6" on="0"/>
        <pt x="114" y="44" on="1"/>
        <pt x="75" y="70" on="0"/>
        <pt x="28" y="164" on="0"/>
        <pt x="28" y="226" on="1"/>
        <pt x="154" y="232" on="1"/>
        <pt x="154" y="177" on="0"/>
        <pt x="228" y="118" on="0"/>
        <pt x="345" y="118" on="0"/>
        <pt x="427" y="165" on="0"/>
        <pt x="427" y="206" on="1"/>
        <pt x="427" y="278" on="0"/>
        <pt x="342" y="291" on="1"/>
        <pt x="226" y="303" on="1"/>
        <pt x="139" y="316" on="0"/>
        <pt x="37" y="414" on="0"/>
        <pt x="37" y="598" on="0"/>
        <pt x="180" y="718" on="0"/>
        <pt x="398" y="718" on="0"/>
        <pt x="552" y="604" on="0"/>
        <pt x="552" y="516" on="1"/>
        <pt x="428" y="510" on="1"/>
        <pt x="422" y="542" on="0"/>
        <pt x="396" y="563" on="1"/>
        <pt x="355" y="597" on="0"/>
        <pt x="237" y="597" on="0"/>
        <pt x="171" y="545" on="0"/>
        <pt x="171" y="474" on="0"/>
        <pt x="221" y="433" on="0"/>
        <pt x="258" y="428" on="1"/>
        <pt x="372" y="416" on="1"/>
        <pt x="563" y="390" on="0"/>
      </contour>
      <contour>
        <pt x="294" y="845" on="1"/>
        <pt x="339" y="901" on="1"/>
        <pt x="378" y="949" on="0"/>
        <pt x="416" y="949" on="1"/>
        <pt x="429" y="949" on="0"/>
        <pt x="445" y="931" on="0"/>
        <pt x="445" y="909" on="0"/>
        <pt x="440" y="901" on="1"/>
        <pt x="346" y="780" on="1"/>
        <pt x="242" y="780" on="1"/>
        <pt x="148" y="901" on="1"/>
        <pt x="143" y="909" on="0"/>
        <pt x="143" y="930" on="0"/>
        <pt x="160" y="949" on="0"/>
        <pt x="172" y="949" on="1"/>
        <pt x="210" y="949" on="0"/>
        <pt x="249" y="901" on="1"/>
      </contour>
    </TTGlyph>
    <TTGlyph name="T" xMin="26" yMin="0" xMax="546" yMax="712">
      <contour>
        <pt x="546" y="588" on="1"/>
        <pt x="355" y="588" on="1"/>
        <pt x="355" y="0" on="1"/>
        <pt x="216" y="0" on="1"/>
        <pt x="216" y="588" on="1"/>
        <pt x="26" y="588" on="1"/>
        <pt x="26" y="712" on="1"/>
        <pt x="546" y="712" on="1"/>
      </contour>
    </TTGlyph>
    <TTGlyph name="Thorn" xMin="83" yMin="0" xMax="574" yMax="712">
      <contour>
        <pt x="574" y="360" on="1"/>
        <pt x="574" y="138" on="0"/>
        <pt x="339" y="138" on="1"/>
        <pt x="222" y="138" on="1"/>
        <pt x="222" y="0" on="1"/>
        <pt x="83" y="0" on="1"/>
        <pt x="83" y="712" on="1"/>
        <pt x="222" y="712" on="1"/>
        <pt x="222" y="581" on="1"/>
        <pt x="339" y="581" on="1"/>
        <pt x="463" y="581" on="0"/>
        <pt x="574" y="474" on="0"/>
      </contour>
      <contour>
        <pt x="435" y="301" on="0"/>
        <pt x="435" y="419" on="0"/>
        <pt x="394" y="457" on="0"/>
        <pt x="332" y="457" on="1"/>
        <pt x="222" y="457" on="1"/>
        <pt x="222" y="262" on="1"/>
        <pt x="332" y="262" on="1"/>
        <pt x="394" y="262" on="0"/>
      </contour>
    </TTGlyph>
    <TTGlyph name="U" xMin="62" yMin="-6" xMax="606" yMax="712">
      <contour>
        <pt x="606" y="712" on="1"/>
        <pt x="606" y="244" on="1"/>
        <pt x="606" y="128" on="0"/>
        <pt x="449" y="-6" on="0"/>
        <pt x="219" y="-6" on="0"/>
        <pt x="62" y="128" on="0"/>
        <pt x="62" y="244" on="1"/>
        <pt x="62" y="712" on="1"/>
        <pt x="201" y="712" on="1"/>
        <pt x="201" y="249" on="1"/>
        <pt x="201" y="183" on="0"/>
        <pt x="274" y="118" on="0"/>
        <pt x="394" y="118" on="0"/>
        <pt x="468" y="183" on="0"/>
        <pt x="468" y="249" on="1"/>
        <pt x="468" y="712" on="1"/>
      </contour>
    </TTGlyph>
    <TTGlyph name="Uacute" xMin="62" yMin="-6" xMax="606" yMax="959">
      <contour>
        <pt x="606" y="712" on="1"/>
        <pt x="606" y="244" on="1"/>
        <pt x="606" y="128" on="0"/>
        <pt x="449" y="-6" on="0"/>
        <pt x="219" y="-6" on="0"/>
        <pt x="62" y="128" on="0"/>
        <pt x="62" y="244" on="1"/>
        <pt x="62" y="712" on="1"/>
        <pt x="201" y="712" on="1"/>
        <pt x="201" y="249" on="1"/>
        <pt x="201" y="183" on="0"/>
        <pt x="274" y="118" on="0"/>
        <pt x="394" y="118" on="0"/>
        <pt x="468" y="183" on="0"/>
        <pt x="468" y="249" on="1"/>
        <pt x="468" y="712" on="1"/>
      </contour>
      <contour>
        <pt x="485" y="959" on="1"/>
        <pt x="411" y="853" on="1"/>
        <pt x="377" y="805" on="0"/>
        <pt x="334" y="805" on="1"/>
        <pt x="306" y="805" on="0"/>
        <pt x="306" y="831" on="1"/>
        <pt x="306" y="841" on="0"/>
        <pt x="310" y="853" on="1"/>
        <pt x="348" y="959" on="1"/>
      </contour>
    </TTGlyph>
    <TTGlyph name="Ucircumflex" xMin="62" yMin="-6" xMax="606" yMax="950">
      <contour>
        <pt x="606" y="712" on="1"/>
        <pt x="606" y="244" on="1"/>
        <pt x="606" y="128" on="0"/>
        <pt x="449" y="-6" on="0"/>
        <pt x="219" y="-6" on="0"/>
        <pt x="62" y="128" on="0"/>
        <pt x="62" y="244" on="1"/>
        <pt x="62" y="712" on="1"/>
        <pt x="201" y="712" on="1"/>
        <pt x="201" y="249" on="1"/>
        <pt x="201" y="183" on="0"/>
        <pt x="274" y="118" on="0"/>
        <pt x="394" y="118" on="0"/>
        <pt x="468" y="183" on="0"/>
        <pt x="468" y="249" on="1"/>
        <pt x="468" y="712" on="1"/>
      </contour>
      <contour>
        <pt x="334" y="885" on="1"/>
        <pt x="289" y="829" on="1"/>
        <pt x="250" y="781" on="0"/>
        <pt x="212" y="781" on="1"/>
        <pt x="199" y="781" on="0"/>
        <pt x="183" y="799" on="0"/>
        <pt x="183" y="821" on="0"/>
        <pt x="188" y="829" on="1"/>
        <pt x="282" y="950" on="1"/>
        <pt x="386" y="950" on="1"/>
        <pt x="480" y="829" on="1"/>
        <pt x="485" y="821" on="0"/>
        <pt x="485" y="800" on="0"/>
        <pt x="468" y="781" on="0"/>
        <pt x="456" y="781" on="1"/>
        <pt x="418" y="781" on="0"/>
        <pt x="379" y="829" on="1"/>
      </contour>
    </TTGlyph>
    <TTGlyph name="Udieresis" xMin="62" yMin="-6" xMax="606" yMax="938">
      <contour>
        <pt x="606" y="712" on="1"/>
        <pt x="606" y="244" on="1"/>
        <pt x="606" y="128" on="0"/>
        <pt x="449" y="-6" on="0"/>
        <pt x="219" y="-6" on="0"/>
        <pt x="62" y="128" on="0"/>
        <pt x="62" y="244" on="1"/>
        <pt x="62" y="712" on="1"/>
        <pt x="201" y="712" on="1"/>
        <pt x="201" y="249" on="1"/>
        <pt x="201" y="183" on="0"/>
        <pt x="274" y="118" on="0"/>
        <pt x="394" y="118" on="0"/>
        <pt x="468" y="183" on="0"/>
        <pt x="468" y="249" on="1"/>
        <pt x="468" y="712" on="1"/>
      </contour>
      <contour>
        <pt x="514" y="910" on="0"/>
        <pt x="514" y="832" on="0"/>
        <pt x="479" y="804" on="0"/>
        <pt x="415" y="804" on="0"/>
        <pt x="380" y="832" on="0"/>
        <pt x="380" y="910" on="0"/>
        <pt x="415" y="938" on="0"/>
        <pt x="479" y="938" on="0"/>
      </contour>
      <contour>
        <pt x="288" y="910" on="0"/>
        <pt x="288" y="832" on="0"/>
        <pt x="253" y="804" on="0"/>
        <pt x="189" y="804" on="0"/>
        <pt x="154" y="832" on="0"/>
        <pt x="154" y="910" on="0"/>
        <pt x="189" y="938" on="0"/>
        <pt x="253" y="938" on="0"/>
      </contour>
    </TTGlyph>
    <TTGlyph name="Ugrave" xMin="62" yMin="-6" xMax="606" yMax="959">
      <contour>
        <pt x="606" y="712" on="1"/>
        <pt x="606" y="244" on="1"/>
        <pt x="606" y="128" on="0"/>
        <pt x="449" y="-6" on="0"/>
        <pt x="219" y="-6" on="0"/>
        <pt x="62" y="128" on="0"/>
        <pt x="62" y="244" on="1"/>
        <pt x="62" y="712" on="1"/>
        <pt x="201" y="712" on="1"/>
        <pt x="201" y="249" on="1"/>
        <pt x="201" y="183" on="0"/>
        <pt x="274" y="118" on="0"/>
        <pt x="394" y="118" on="0"/>
        <pt x="468" y="183" on="0"/>
        <pt x="468" y="249" on="1"/>
        <pt x="468" y="712" on="1"/>
      </contour>
      <contour>
        <pt x="260" y="853" on="1"/>
        <pt x="186" y="959" on="1"/>
        <pt x="323" y="959" on="1"/>
        <pt x="361" y="853" on="1"/>
        <pt x="365" y="841" on="0"/>
        <pt x="365" y="831" on="1"/>
        <pt x="365" y="805" on="0"/>
        <pt x="337" y="805" on="1"/>
        <pt x="294" y="805" on="0"/>
      </contour>
    </TTGlyph>
    <TTGlyph name="V" xMin="3" yMin="-6" xMax="578" yMax="712">
      <contour>
        <pt x="578" y="712" on="1"/>
        <pt x="354" y="40" on="1"/>
        <pt x="336" y="-6" on="0"/>
        <pt x="290" y="-6" on="1"/>
        <pt x="242" y="-6" on="0"/>
        <pt x="224" y="40" on="1"/>
        <pt x="3" y="712" on="1"/>
        <pt x="147" y="712" on="1"/>
        <pt x="290" y="248" on="1"/>
        <pt x="433" y="712" on="1"/>
      </contour>
    </TTGlyph>
    <TTGlyph name="W" xMin="6" yMin="0" xMax="881" yMax="717">
      <contour>
        <pt x="881" y="712" on="1"/>
        <pt x="690" y="0" on="1"/>
        <pt x="574" y="0" on="1"/>
        <pt x="443" y="432" on="1"/>
        <pt x="312" y="0" on="1"/>
        <pt x="196" y="0" on="1"/>
        <pt x="6" y="712" on="1"/>
        <pt x="151" y="712" on="1"/>
        <pt x="261" y="263" on="1"/>
        <pt x="370" y="634" on="1"/>
        <pt x="388" y="717" on="0"/>
        <pt x="446" y="717" on="1"/>
        <pt x="475" y="717" on="0"/>
        <pt x="505" y="674" on="0"/>
        <pt x="517" y="634" on="1"/>
        <pt x="625" y="263" on="1"/>
        <pt x="736" y="712" on="1"/>
      </contour>
    </TTGlyph>
    <TTGlyph name="X" xMin="5" yMin="0" xMax="645" yMax="712">
      <contour>
        <pt x="645" y="0" on="1"/>
        <pt x="473" y="0" on="1"/>
        <pt x="324" y="248" on="1"/>
        <pt x="177" y="0" on="1"/>
        <pt x="5" y="0" on="1"/>
        <pt x="244" y="365" on="1"/>
        <pt x="20" y="712" on="1"/>
        <pt x="191" y="712" on="1"/>
        <pt x="324" y="482" on="1"/>
        <pt x="459" y="712" on="1"/>
        <pt x="629" y="712" on="1"/>
        <pt x="405" y="365" on="1"/>
      </contour>
    </TTGlyph>
    <TTGlyph name="Y" xMin="3" yMin="0" xMax="569" yMax="712">
      <contour>
        <pt x="569" y="712" on="1"/>
        <pt x="355" y="292" on="1"/>
        <pt x="355" y="0" on="1"/>
        <pt x="217" y="0" on="1"/>
        <pt x="217" y="292" on="1"/>
        <pt x="3" y="712" on="1"/>
        <pt x="154" y="712" on="1"/>
        <pt x="287" y="425" on="1"/>
        <pt x="418" y="712" on="1"/>
      </contour>
    </TTGlyph>
    <TTGlyph name="Yacute" xMin="3" yMin="0" xMax="569" yMax="959">
      <contour>
        <pt x="569" y="712" on="1"/>
        <pt x="355" y="292" on="1"/>
        <pt x="355" y="0" on="1"/>
        <pt x="217" y="0" on="1"/>
        <pt x="217" y="292" on="1"/>
        <pt x="3" y="712" on="1"/>
        <pt x="154" y="712" on="1"/>
        <pt x="287" y="425" on="1"/>
        <pt x="418" y="712" on="1"/>
      </contour>
      <contour>
        <pt x="436" y="959" on="1"/>
        <pt x="362" y="853" on="1"/>
        <pt x="328" y="805" on="0"/>
        <pt x="285" y="805" on="1"/>
        <pt x="257" y="805" on="0"/>
        <pt x="257" y="831" on="1"/>
        <pt x="257" y="841" on="0"/>
        <pt x="261" y="853" on="1"/>
        <pt x="299" y="959" on="1"/>
      </contour>
    </TTGlyph>
    <TTGlyph name="Ydieresis" xMin="3" yMin="0" xMax="569" yMax="938">
      <contour>
        <pt x="569" y="712" on="1"/>
        <pt x="355" y="292" on="1"/>
        <pt x="355" y="0" on="1"/>
        <pt x="217" y="0" on="1"/>
        <pt x="217" y="292" on="1"/>
        <pt x="3" y="712" on="1"/>
        <pt x="154" y="712" on="1"/>
        <pt x="287" y="425" on="1"/>
        <pt x="418" y="712" on="1"/>
      </contour>
      <contour>
        <pt x="465" y="910" on="0"/>
        <pt x="465" y="832" on="0"/>
        <pt x="430" y="804" on="0"/>
        <pt x="366" y="804" on="0"/>
        <pt x="331" y="832" on="0"/>
        <pt x="331" y="910" on="0"/>
        <pt x="366" y="938" on="0"/>
        <pt x="430" y="938" on="0"/>
      </contour>
      <contour>
        <pt x="239" y="910" on="0"/>
        <pt x="239" y="832" on="0"/>
        <pt x="204" y="804" on="0"/>
        <pt x="140" y="804" on="0"/>
        <pt x="105" y="832" on="0"/>
        <pt x="105" y="910" on="0"/>
        <pt x="140" y="938" on="0"/>
        <pt x="204" y="938" on="0"/>
      </contour>
    </TTGlyph>
    <TTGlyph name="Z" xMin="33" yMin="0" xMax="508" yMax="712">
      <contour>
        <pt x="508" y="0" on="1"/>
        <pt x="146" y="0" on="1"/>
        <pt x="91" y="0" on="0"/>
        <pt x="33" y="52" on="0"/>
        <pt x="33" y="136" on="0"/>
        <pt x="64" y="182" on="1"/>
        <pt x="344" y="588" on="1"/>
        <pt x="53" y="588" on="1"/>
        <pt x="53" y="712" on="1"/>
        <pt x="508" y="712" on="1"/>
        <pt x="508" y="602" on="1"/>
        <pt x="183" y="124" on="1"/>
        <pt x="508" y="124" on="1"/>
      </contour>
    </TTGlyph>
    <TTGlyph name="Zcaron" xMin="33" yMin="0" xMax="508" yMax="949">
      <contour>
        <pt x="508" y="0" on="1"/>
        <pt x="146" y="0" on="1"/>
        <pt x="91" y="0" on="0"/>
        <pt x="33" y="52" on="0"/>
        <pt x="33" y="136" on="0"/>
        <pt x="64" y="182" on="1"/>
        <pt x="344" y="588" on="1"/>
        <pt x="53" y="588" on="1"/>
        <pt x="53" y="712" on="1"/>
        <pt x="508" y="712" on="1"/>
        <pt x="508" y="602" on="1"/>
        <pt x="183" y="124" on="1"/>
        <pt x="508" y="124" on="1"/>
      </contour>
      <contour>
        <pt x="277" y="845" on="1"/>
        <pt x="322" y="901" on="1"/>
        <pt x="361" y="949" on="0"/>
        <pt x="399" y="949" on="1"/>
        <pt x="412" y="949" on="0"/>
        <pt x="428" y="931" on="0"/>
        <pt x="428" y="909" on="0"/>
        <pt x="423" y="901" on="1"/>
        <pt x="329" y="780" on="1"/>
        <pt x="225" y="780" on="1"/>
        <pt x="131" y="901" on="1"/>
        <pt x="126" y="909" on="0"/>
        <pt x="126" y="930" on="0"/>
        <pt x="143" y="949" on="0"/>
        <pt x="155" y="949" on="1"/>
        <pt x="193" y="949" on="0"/>
        <pt x="232" y="901" on="1"/>
      </contour>
    </TTGlyph>
    <TTGlyph name="a" xMin="9" yMin="-6" xMax="466" yMax="575">
      <contour>
        <pt x="466" y="0" on="1"/>
        <pt x="379" y="0" on="1"/>
        <pt x="339" y="69" on="1"/>
        <pt x="200" y="-6" on="1"/>
        <pt x="84" y="-6" on="0"/>
        <pt x="44" y="78" on="1"/>
        <pt x="24" y="119" on="0"/>
        <pt x="9" y="214" on="0"/>
        <pt x="9" y="317" on="0"/>
        <pt x="11" y="366" on="0"/>
        <pt x="19" y="431" on="0"/>
        <pt x="34" y="475" on="0"/>
        <pt x="62" y="522" on="0"/>
        <pt x="82" y="536" on="1"/>
        <pt x="127" y="567" on="0"/>
        <pt x="199" y="567" on="1"/>
        <pt x="336" y="567" on="1"/>
        <pt x="466" y="575" on="1"/>
      </contour>
      <contour>
        <pt x="336" y="182" on="1"/>
        <pt x="336" y="450" on="1"/>
        <pt x="237" y="450" on="1"/>
        <pt x="182" y="450" on="0"/>
        <pt x="139" y="366" on="0"/>
        <pt x="139" y="199" on="0"/>
        <pt x="180" y="131" on="0"/>
        <pt x="237" y="131" on="1"/>
      </contour>
    </TTGlyph>
    <TTGlyph name="a.alt" xMin="34" yMin="-5" xMax="490" yMax="579">
      <contour>
        <pt x="264" y="472" on="1"/>
        <pt x="203" y="472" on="0"/>
        <pt x="152" y="431" on="0"/>
        <pt x="152" y="382" on="1"/>
        <pt x="44" y="382" on="1"/>
        <pt x="44" y="478" on="0"/>
        <pt x="155" y="579" on="0"/>
        <pt x="373" y="579" on="0"/>
        <pt x="490" y="472" on="0"/>
        <pt x="490" y="384" on="1"/>
        <pt x="490" y="0" on="1"/>
        <pt x="394" y="0" on="1"/>
        <pt x="364" y="65" on="1"/>
        <pt x="216" y="-5" on="1"/>
        <pt x="138" y="-5" on="0"/>
        <pt x="34" y="84" on="0"/>
        <pt x="34" y="233" on="0"/>
        <pt x="127" y="339" on="0"/>
        <pt x="218" y="339" on="1"/>
        <pt x="361" y="339" on="1"/>
        <pt x="361" y="383" on="1"/>
        <pt x="361" y="472" on="0"/>
      </contour>
      <contour>
        <pt x="361" y="169" on="1"/>
        <pt x="361" y="243" on="1"/>
        <pt x="238" y="243" on="1"/>
        <pt x="197" y="243" on="0"/>
        <pt x="155" y="199" on="0"/>
        <pt x="155" y="138" on="0"/>
        <pt x="194" y="101" on="0"/>
        <pt x="231" y="101" on="1"/>
      </contour>
    </TTGlyph>
    <TTGlyph name="aacute" xMin="9" yMin="-6" xMax="466" yMax="782">
      <contour>
        <pt x="402" y="782" on="1"/>
        <pt x="328" y="676" on="1"/>
        <pt x="294" y="628" on="0"/>
        <pt x="251" y="628" on="1"/>
        <pt x="223" y="628" on="0"/>
        <pt x="223" y="654" on="1"/>
        <pt x="223" y="664" on="0"/>
        <pt x="227" y="676" on="1"/>
        <pt x="265" y="782" on="1"/>
      </contour>
      <contour>
        <pt x="466" y="0" on="1"/>
        <pt x="379" y="0" on="1"/>
        <pt x="339" y="69" on="1"/>
        <pt x="200" y="-6" on="1"/>
        <pt x="84" y="-6" on="0"/>
        <pt x="44" y="78" on="1"/>
        <pt x="24" y="119" on="0"/>
        <pt x="9" y="214" on="0"/>
        <pt x="9" y="317" on="0"/>
        <pt x="11" y="366" on="0"/>
        <pt x="19" y="431" on="0"/>
        <pt x="34" y="475" on="0"/>
        <pt x="62" y="522" on="0"/>
        <pt x="82" y="536" on="1"/>
        <pt x="127" y="567" on="0"/>
        <pt x="199" y="567" on="1"/>
        <pt x="336" y="567" on="1"/>
        <pt x="466" y="575" on="1"/>
      </contour>
      <contour>
        <pt x="336" y="182" on="1"/>
        <pt x="336" y="450" on="1"/>
        <pt x="237" y="450" on="1"/>
        <pt x="182" y="450" on="0"/>
        <pt x="139" y="366" on="0"/>
        <pt x="139" y="199" on="0"/>
        <pt x="180" y="131" on="0"/>
        <pt x="237" y="131" on="1"/>
      </contour>
    </TTGlyph>
    <TTGlyph name="aacute.alt" xMin="34" yMin="-5" xMax="490" yMax="782">
      <contour>
        <pt x="402" y="782" on="1"/>
        <pt x="328" y="676" on="1"/>
        <pt x="294" y="628" on="0"/>
        <pt x="251" y="628" on="1"/>
        <pt x="223" y="628" on="0"/>
        <pt x="223" y="654" on="1"/>
        <pt x="223" y="664" on="0"/>
        <pt x="227" y="676" on="1"/>
        <pt x="265" y="782" on="1"/>
      </contour>
      <contour>
        <pt x="264" y="472" on="1"/>
        <pt x="203" y="472" on="0"/>
        <pt x="152" y="431" on="0"/>
        <pt x="152" y="382" on="1"/>
        <pt x="44" y="382" on="1"/>
        <pt x="44" y="478" on="0"/>
        <pt x="155" y="579" on="0"/>
        <pt x="373" y="579" on="0"/>
        <pt x="490" y="472" on="0"/>
        <pt x="490" y="384" on="1"/>
        <pt x="490" y="0" on="1"/>
        <pt x="394" y="0" on="1"/>
        <pt x="364" y="65" on="1"/>
        <pt x="216" y="-5" on="1"/>
        <pt x="138" y="-5" on="0"/>
        <pt x="34" y="84" on="0"/>
        <pt x="34" y="233" on="0"/>
        <pt x="127" y="339" on="0"/>
        <pt x="218" y="339" on="1"/>
        <pt x="361" y="339" on="1"/>
        <pt x="361" y="383" on="1"/>
        <pt x="361" y="472" on="0"/>
      </contour>
      <contour>
        <pt x="361" y="169" on="1"/>
        <pt x="361" y="243" on="1"/>
        <pt x="238" y="243" on="1"/>
        <pt x="197" y="243" on="0"/>
        <pt x="155" y="199" on="0"/>
        <pt x="155" y="138" on="0"/>
        <pt x="194" y="101" on="0"/>
        <pt x="231" y="101" on="1"/>
      </contour>
    </TTGlyph>
    <TTGlyph name="acircumflex" xMin="9" yMin="-6" xMax="466" yMax="783">
      <contour>
        <pt x="261" y="718" on="1"/>
        <pt x="216" y="662" on="1"/>
        <pt x="177" y="614" on="0"/>
        <pt x="139" y="614" on="1"/>
        <pt x="126" y="614" on="0"/>
        <pt x="110" y="632" on="0"/>
        <pt x="110" y="654" on="0"/>
        <pt x="115" y="662" on="1"/>
        <pt x="209" y="783" on="1"/>
        <pt x="313" y="783" on="1"/>
        <pt x="407" y="662" on="1"/>
        <pt x="412" y="654" on="0"/>
        <pt x="412" y="633" on="0"/>
        <pt x="395" y="614" on="0"/>
        <pt x="383" y="614" on="1"/>
        <pt x="345" y="614" on="0"/>
        <pt x="306" y="662" on="1"/>
      </contour>
      <contour>
        <pt x="466" y="0" on="1"/>
        <pt x="379" y="0" on="1"/>
        <pt x="339" y="69" on="1"/>
        <pt x="200" y="-6" on="1"/>
        <pt x="84" y="-6" on="0"/>
        <pt x="44" y="78" on="1"/>
        <pt x="24" y="119" on="0"/>
        <pt x="9" y="214" on="0"/>
        <pt x="9" y="317" on="0"/>
        <pt x="11" y="366" on="0"/>
        <pt x="19" y="431" on="0"/>
        <pt x="34" y="475" on="0"/>
        <pt x="62" y="522" on="0"/>
        <pt x="82" y="536" on="1"/>
        <pt x="127" y="567" on="0"/>
        <pt x="199" y="567" on="1"/>
        <pt x="336" y="567" on="1"/>
        <pt x="466" y="575" on="1"/>
      </contour>
      <contour>
        <pt x="336" y="182" on="1"/>
        <pt x="336" y="450" on="1"/>
        <pt x="237" y="450" on="1"/>
        <pt x="182" y="450" on="0"/>
        <pt x="139" y="366" on="0"/>
        <pt x="139" y="199" on="0"/>
        <pt x="180" y="131" on="0"/>
        <pt x="237" y="131" on="1"/>
      </contour>
    </TTGlyph>
    <TTGlyph name="acircumflex.alt" xMin="34" yMin="-5" xMax="490" yMax="783">
      <contour>
        <pt x="261" y="718" on="1"/>
        <pt x="216" y="662" on="1"/>
        <pt x="177" y="614" on="0"/>
        <pt x="139" y="614" on="1"/>
        <pt x="126" y="614" on="0"/>
        <pt x="110" y="632" on="0"/>
        <pt x="110" y="654" on="0"/>
        <pt x="115" y="662" on="1"/>
        <pt x="209" y="783" on="1"/>
        <pt x="313" y="783" on="1"/>
        <pt x="407" y="662" on="1"/>
        <pt x="412" y="654" on="0"/>
        <pt x="412" y="633" on="0"/>
        <pt x="395" y="614" on="0"/>
        <pt x="383" y="614" on="1"/>
        <pt x="345" y="614" on="0"/>
        <pt x="306" y="662" on="1"/>
      </contour>
      <contour>
        <pt x="264" y="472" on="1"/>
        <pt x="203" y="472" on="0"/>
        <pt x="152" y="431" on="0"/>
        <pt x="152" y="382" on="1"/>
        <pt x="44" y="382" on="1"/>
        <pt x="44" y="478" on="0"/>
        <pt x="155" y="579" on="0"/>
        <pt x="373" y="579" on="0"/>
        <pt x="490" y="472" on="0"/>
        <pt x="490" y="384" on="1"/>
        <pt x="490" y="0" on="1"/>
        <pt x="394" y="0" on="1"/>
        <pt x="364" y="65" on="1"/>
        <pt x="216" y="-5" on="1"/>
        <pt x="138" y="-5" on="0"/>
        <pt x="34" y="84" on="0"/>
        <pt x="34" y="233" on="0"/>
        <pt x="127" y="339" on="0"/>
        <pt x="218" y="339" on="1"/>
        <pt x="361" y="339" on="1"/>
        <pt x="361" y="383" on="1"/>
        <pt x="361" y="472" on="0"/>
      </contour>
      <contour>
        <pt x="361" y="169" on="1"/>
        <pt x="361" y="243" on="1"/>
        <pt x="238" y="243" on="1"/>
        <pt x="197" y="243" on="0"/>
        <pt x="155" y="199" on="0"/>
        <pt x="155" y="138" on="0"/>
        <pt x="194" y="101" on="0"/>
        <pt x="231" y="101" on="1"/>
      </contour>
    </TTGlyph>
    <TTGlyph name="acute" xMin="222" yMin="628" xMax="401" yMax="782">
      <contour>
        <pt x="401" y="782" on="1"/>
        <pt x="327" y="676" on="1"/>
        <pt x="293" y="628" on="0"/>
        <pt x="250" y="628" on="1"/>
        <pt x="222" y="628" on="0"/>
        <pt x="222" y="654" on="1"/>
        <pt x="222" y="664" on="0"/>
        <pt x="226" y="676" on="1"/>
        <pt x="264" y="782" on="1"/>
      </contour>
    </TTGlyph>
    <TTGlyph name="adieresis" xMin="9" yMin="-6" xMax="466" yMax="761">
      <contour>
        <pt x="441" y="733" on="0"/>
        <pt x="441" y="655" on="0"/>
        <pt x="406" y="627" on="0"/>
        <pt x="342" y="627" on="0"/>
        <pt x="307" y="655" on="0"/>
        <pt x="307" y="733" on="0"/>
        <pt x="342" y="761" on="0"/>
        <pt x="406" y="761" on="0"/>
      </contour>
      <contour>
        <pt x="215" y="733" on="0"/>
        <pt x="215" y="655" on="0"/>
        <pt x="180" y="627" on="0"/>
        <pt x="116" y="627" on="0"/>
        <pt x="81" y="655" on="0"/>
        <pt x="81" y="733" on="0"/>
        <pt x="116" y="761" on="0"/>
        <pt x="180" y="761" on="0"/>
      </contour>
      <contour>
        <pt x="466" y="0" on="1"/>
        <pt x="379" y="0" on="1"/>
        <pt x="339" y="69" on="1"/>
        <pt x="200" y="-6" on="1"/>
        <pt x="84" y="-6" on="0"/>
        <pt x="44" y="78" on="1"/>
        <pt x="24" y="119" on="0"/>
        <pt x="9" y="214" on="0"/>
        <pt x="9" y="317" on="0"/>
        <pt x="11" y="366" on="0"/>
        <pt x="19" y="431" on="0"/>
        <pt x="34" y="475" on="0"/>
        <pt x="62" y="522" on="0"/>
        <pt x="82" y="536" on="1"/>
        <pt x="127" y="567" on="0"/>
        <pt x="199" y="567" on="1"/>
        <pt x="336" y="567" on="1"/>
        <pt x="466" y="575" on="1"/>
      </contour>
      <contour>
        <pt x="336" y="182" on="1"/>
        <pt x="336" y="450" on="1"/>
        <pt x="237" y="450" on="1"/>
        <pt x="182" y="450" on="0"/>
        <pt x="139" y="366" on="0"/>
        <pt x="139" y="199" on="0"/>
        <pt x="180" y="131" on="0"/>
        <pt x="237" y="131" on="1"/>
      </contour>
    </TTGlyph>
    <TTGlyph name="adieresis.alt" xMin="34" yMin="-5" xMax="490" yMax="761">
      <contour>
        <pt x="441" y="733" on="0"/>
        <pt x="441" y="655" on="0"/>
        <pt x="406" y="627" on="0"/>
        <pt x="342" y="627" on="0"/>
        <pt x="307" y="655" on="0"/>
        <pt x="307" y="733" on="0"/>
        <pt x="342" y="761" on="0"/>
        <pt x="406" y="761" on="0"/>
      </contour>
      <contour>
        <pt x="215" y="733" on="0"/>
        <pt x="215" y="655" on="0"/>
        <pt x="180" y="627" on="0"/>
        <pt x="116" y="627" on="0"/>
        <pt x="81" y="655" on="0"/>
        <pt x="81" y="733" on="0"/>
        <pt x="116" y="761" on="0"/>
        <pt x="180" y="761" on="0"/>
      </contour>
      <contour>
        <pt x="264" y="472" on="1"/>
        <pt x="203" y="472" on="0"/>
        <pt x="152" y="431" on="0"/>
        <pt x="152" y="382" on="1"/>
        <pt x="44" y="382" on="1"/>
        <pt x="44" y="478" on="0"/>
        <pt x="155" y="579" on="0"/>
        <pt x="373" y="579" on="0"/>
        <pt x="490" y="472" on="0"/>
        <pt x="490" y="384" on="1"/>
        <pt x="490" y="0" on="1"/>
        <pt x="394" y="0" on="1"/>
        <pt x="364" y="65" on="1"/>
        <pt x="216" y="-5" on="1"/>
        <pt x="138" y="-5" on="0"/>
        <pt x="34" y="84" on="0"/>
        <pt x="34" y="233" on="0"/>
        <pt x="127" y="339" on="0"/>
        <pt x="218" y="339" on="1"/>
        <pt x="361" y="339" on="1"/>
        <pt x="361" y="383" on="1"/>
        <pt x="361" y="472" on="0"/>
      </contour>
      <contour>
        <pt x="361" y="169" on="1"/>
        <pt x="361" y="243" on="1"/>
        <pt x="238" y="243" on="1"/>
        <pt x="197" y="243" on="0"/>
        <pt x="155" y="199" on="0"/>
        <pt x="155" y="138" on="0"/>
        <pt x="194" y="101" on="0"/>
        <pt x="231" y="101" on="1"/>
      </contour>
    </TTGlyph>
    <TTGlyph name="ae" xMin="31" yMin="-14" xMax="820" yMax="579">
      <contour>
        <pt x="358" y="169" on="1"/>
        <pt x="358" y="253" on="1"/>
        <pt x="235" y="253" on="1"/>
        <pt x="195" y="253" on="0"/>
        <pt x="152" y="200" on="0"/>
        <pt x="152" y="138" on="0"/>
        <pt x="191" y="101" on="0"/>
        <pt x="228" y="101" on="1"/>
      </contour>
      <contour>
        <pt x="488" y="344" on="1"/>
        <pt x="702" y="344" on="1"/>
        <pt x="702" y="423" on="0"/>
        <pt x="656" y="475" on="0"/>
        <pt x="547" y="475" on="0"/>
        <pt x="488" y="421" on="0"/>
      </contour>
      <contour>
        <pt x="818" y="255" on="1"/>
        <pt x="488" y="255" on="1"/>
        <pt x="488" y="168" on="0"/>
        <pt x="534" y="95" on="0"/>
        <pt x="608" y="95" on="1"/>
        <pt x="660" y="95" on="0"/>
        <pt x="702" y="146" on="0"/>
        <pt x="702" y="199" on="1"/>
        <pt x="819" y="199" on="1"/>
        <pt x="819" y="86" on="0"/>
        <pt x="707" y="-13" on="0"/>
        <pt x="611" y="-13" on="1"/>
        <pt x="527" y="-13" on="0"/>
        <pt x="422" y="31" on="0"/>
        <pt x="395" y="83" on="1"/>
        <pt x="213" y="-5" on="1"/>
        <pt x="135" y="-5" on="0"/>
        <pt x="31" y="84" on="0"/>
        <pt x="31" y="234" on="0"/>
        <pt x="124" y="346" on="0"/>
        <pt x="215" y="346" on="1"/>
        <pt x="357" y="346" on="1"/>
        <pt x="358" y="351" on="0"/>
        <pt x="358" y="360" on="1"/>
        <pt x="358" y="383" on="1"/>
        <pt x="358" y="472" on="0"/>
        <pt x="261" y="472" on="1"/>
        <pt x="200" y="472" on="0"/>
        <pt x="149" y="431" on="0"/>
        <pt x="149" y="382" on="1"/>
        <pt x="41" y="382" on="1"/>
        <pt x="41" y="478" on="0"/>
        <pt x="152" y="579" on="0"/>
        <pt x="370" y="579" on="0"/>
        <pt x="430" y="525" on="1"/>
        <pt x="490" y="578" on="0"/>
        <pt x="603" y="578" on="1"/>
        <pt x="820" y="578" on="0"/>
        <pt x="820" y="337" on="1"/>
        <pt x="820" y="311" on="0"/>
      </contour>
    </TTGlyph>
    <TTGlyph name="agrave" xMin="9" yMin="-6" xMax="466" yMax="782">
      <contour>
        <pt x="187" y="676" on="1"/>
        <pt x="113" y="782" on="1"/>
        <pt x="250" y="782" on="1"/>
        <pt x="288" y="676" on="1"/>
        <pt x="292" y="664" on="0"/>
        <pt x="292" y="654" on="1"/>
        <pt x="292" y="628" on="0"/>
        <pt x="264" y="628" on="1"/>
        <pt x="221" y="628" on="0"/>
      </contour>
      <contour>
        <pt x="466" y="0" on="1"/>
        <pt x="379" y="0" on="1"/>
        <pt x="339" y="69" on="1"/>
        <pt x="200" y="-6" on="1"/>
        <pt x="84" y="-6" on="0"/>
        <pt x="44" y="78" on="1"/>
        <pt x="24" y="119" on="0"/>
        <pt x="9" y="214" on="0"/>
        <pt x="9" y="317" on="0"/>
        <pt x="11" y="366" on="0"/>
        <pt x="19" y="431" on="0"/>
        <pt x="34" y="475" on="0"/>
        <pt x="62" y="522" on="0"/>
        <pt x="82" y="536" on="1"/>
        <pt x="127" y="567" on="0"/>
        <pt x="199" y="567" on="1"/>
        <pt x="336" y="567" on="1"/>
        <pt x="466" y="575" on="1"/>
      </contour>
      <contour>
        <pt x="336" y="182" on="1"/>
        <pt x="336" y="450" on="1"/>
        <pt x="237" y="450" on="1"/>
        <pt x="182" y="450" on="0"/>
        <pt x="139" y="366" on="0"/>
        <pt x="139" y="199" on="0"/>
        <pt x="180" y="131" on="0"/>
        <pt x="237" y="131" on="1"/>
      </contour>
    </TTGlyph>
    <TTGlyph name="agrave.alt" xMin="34" yMin="-5" xMax="490" yMax="782">
      <contour>
        <pt x="187" y="676" on="1"/>
        <pt x="113" y="782" on="1"/>
        <pt x="250" y="782" on="1"/>
        <pt x="288" y="676" on="1"/>
        <pt x="292" y="664" on="0"/>
        <pt x="292" y="654" on="1"/>
        <pt x="292" y="628" on="0"/>
        <pt x="264" y="628" on="1"/>
        <pt x="221" y="628" on="0"/>
      </contour>
      <contour>
        <pt x="264" y="472" on="1"/>
        <pt x="203" y="472" on="0"/>
        <pt x="152" y="431" on="0"/>
        <pt x="152" y="382" on="1"/>
        <pt x="44" y="382" on="1"/>
        <pt x="44" y="478" on="0"/>
        <pt x="155" y="579" on="0"/>
        <pt x="373" y="579" on="0"/>
        <pt x="490" y="472" on="0"/>
        <pt x="490" y="384" on="1"/>
        <pt x="490" y="0" on="1"/>
        <pt x="394" y="0" on="1"/>
        <pt x="364" y="65" on="1"/>
        <pt x="216" y="-5" on="1"/>
        <pt x="138" y="-5" on="0"/>
        <pt x="34" y="84" on="0"/>
        <pt x="34" y="233" on="0"/>
        <pt x="127" y="339" on="0"/>
        <pt x="218" y="339" on="1"/>
        <pt x="361" y="339" on="1"/>
        <pt x="361" y="383" on="1"/>
        <pt x="361" y="472" on="0"/>
      </contour>
      <contour>
        <pt x="361" y="169" on="1"/>
        <pt x="361" y="243" on="1"/>
        <pt x="238" y="243" on="1"/>
        <pt x="197" y="243" on="0"/>
        <pt x="155" y="199" on="0"/>
        <pt x="155" y="138" on="0"/>
        <pt x="194" y="101" on="0"/>
        <pt x="231" y="101" on="1"/>
      </contour>
    </TTGlyph>
    <TTGlyph name="ampersand" xMin="100" yMin="-6" xMax="703" yMax="727">
      <contour>
        <pt x="434" y="299" on="1"/>
        <pt x="434" y="405" on="1"/>
        <pt x="703" y="405" on="1"/>
        <pt x="703" y="299" on="1"/>
        <pt x="611" y="299" on="1"/>
        <pt x="611" y="286" on="0"/>
        <pt x="611" y="213" on="0"/>
        <pt x="593" y="112" on="0"/>
        <pt x="555" y="45" on="0"/>
        <pt x="489" y="7" on="0"/>
        <pt x="415" y="-6" on="0"/>
        <pt x="361" y="-6" on="1"/>
        <pt x="231" y="-6" on="0"/>
        <pt x="100" y="101" on="0"/>
        <pt x="100" y="196" on="1"/>
        <pt x="100" y="250" on="0"/>
        <pt x="135" y="336" on="0"/>
        <pt x="184" y="374" on="1"/>
        <pt x="127" y="440" on="0"/>
        <pt x="127" y="634" on="0"/>
        <pt x="244" y="727" on="0"/>
        <pt x="471" y="727" on="0"/>
        <pt x="587" y="617" on="0"/>
        <pt x="587" y="501" on="1"/>
        <pt x="456" y="501" on="1"/>
        <pt x="456" y="564" on="0"/>
        <pt x="415" y="607" on="0"/>
        <pt x="307" y="607" on="0"/>
        <pt x="261" y="558" on="0"/>
        <pt x="261" y="538" on="1"/>
        <pt x="261" y="479" on="0"/>
        <pt x="286" y="434" on="1"/>
        <pt x="327" y="452" on="0"/>
        <pt x="338" y="456" on="1"/>
        <pt x="362" y="345" on="1"/>
        <pt x="305" y="321" on="0"/>
        <pt x="240" y="258" on="0"/>
        <pt x="240" y="159" on="0"/>
        <pt x="295" y="114" on="0"/>
        <pt x="432" y="114" on="0"/>
        <pt x="480" y="193" on="0"/>
        <pt x="482" y="299" on="1"/>
      </contour>
    </TTGlyph>
    <TTGlyph name="approxequal" xMin="37" yMin="81" xMax="569" yMax="490">
      <contour>
        <pt x="486" y="475" on="1"/>
        <pt x="569" y="393" on="1"/>
        <pt x="522" y="346" on="0"/>
        <pt x="449" y="307" on="0"/>
        <pt x="349" y="307" on="0"/>
        <pt x="241" y="364" on="0"/>
        <pt x="161" y="364" on="0"/>
        <pt x="119" y="322" on="1"/>
        <pt x="37" y="404" on="1"/>
        <pt x="85" y="452" on="0"/>
        <pt x="156" y="490" on="0"/>
        <pt x="256" y="490" on="0"/>
        <pt x="366" y="432" on="0"/>
        <pt x="443" y="432" on="0"/>
      </contour>
      <contour>
        <pt x="487" y="249" on="1"/>
        <pt x="569" y="167" on="1"/>
        <pt x="521" y="119" on="0"/>
        <pt x="450" y="81" on="0"/>
        <pt x="350" y="81" on="0"/>
        <pt x="240" y="139" on="0"/>
        <pt x="163" y="139" on="0"/>
        <pt x="120" y="96" on="1"/>
        <pt x="37" y="178" on="1"/>
        <pt x="84" y="225" on="0"/>
        <pt x="158" y="264" on="0"/>
        <pt x="257" y="264" on="0"/>
        <pt x="365" y="207" on="0"/>
        <pt x="445" y="207" on="0"/>
      </contour>
    </TTGlyph>
    <TTGlyph name="aring" xMin="9" yMin="-6" xMax="466" yMax="846">
      <contour>
        <pt x="392" y="846" on="0"/>
        <pt x="392" y="584" on="0"/>
        <pt x="130" y="584" on="0"/>
        <pt x="130" y="846" on="0"/>
      </contour>
      <contour>
        <pt x="319" y="679" on="0"/>
        <pt x="319" y="751" on="0"/>
        <pt x="290" y="773" on="0"/>
        <pt x="232" y="773" on="0"/>
        <pt x="203" y="751" on="0"/>
        <pt x="203" y="679" on="0"/>
        <pt x="233" y="656" on="0"/>
        <pt x="289" y="656" on="0"/>
      </contour>
      <contour>
        <pt x="466" y="0" on="1"/>
        <pt x="379" y="0" on="1"/>
        <pt x="339" y="69" on="1"/>
        <pt x="200" y="-6" on="1"/>
        <pt x="84" y="-6" on="0"/>
        <pt x="44" y="78" on="1"/>
        <pt x="24" y="119" on="0"/>
        <pt x="9" y="214" on="0"/>
        <pt x="9" y="317" on="0"/>
        <pt x="11" y="366" on="0"/>
        <pt x="19" y="431" on="0"/>
        <pt x="34" y="475" on="0"/>
        <pt x="62" y="522" on="0"/>
        <pt x="82" y="536" on="1"/>
        <pt x="127" y="567" on="0"/>
        <pt x="199" y="567" on="1"/>
        <pt x="336" y="567" on="1"/>
        <pt x="466" y="575" on="1"/>
      </contour>
      <contour>
        <pt x="336" y="182" on="1"/>
        <pt x="336" y="450" on="1"/>
        <pt x="237" y="450" on="1"/>
        <pt x="182" y="450" on="0"/>
        <pt x="139" y="366" on="0"/>
        <pt x="139" y="199" on="0"/>
        <pt x="180" y="131" on="0"/>
        <pt x="237" y="131" on="1"/>
      </contour>
    </TTGlyph>
    <TTGlyph name="aring.alt" xMin="34" yMin="-5" xMax="490" yMax="846">
      <contour>
        <pt x="395" y="846" on="0"/>
        <pt x="395" y="584" on="0"/>
        <pt x="133" y="584" on="0"/>
        <pt x="133" y="846" on="0"/>
      </contour>
      <contour>
        <pt x="322" y="679" on="0"/>
        <pt x="322" y="751" on="0"/>
        <pt x="293" y="773" on="0"/>
        <pt x="235" y="773" on="0"/>
        <pt x="206" y="751" on="0"/>
        <pt x="206" y="679" on="0"/>
        <pt x="236" y="656" on="0"/>
        <pt x="292" y="656" on="0"/>
      </contour>
      <contour>
        <pt x="264" y="472" on="1"/>
        <pt x="203" y="472" on="0"/>
        <pt x="152" y="431" on="0"/>
        <pt x="152" y="382" on="1"/>
        <pt x="44" y="382" on="1"/>
        <pt x="44" y="478" on="0"/>
        <pt x="155" y="579" on="0"/>
        <pt x="373" y="579" on="0"/>
        <pt x="490" y="472" on="0"/>
        <pt x="490" y="384" on="1"/>
        <pt x="490" y="0" on="1"/>
        <pt x="394" y="0" on="1"/>
        <pt x="364" y="65" on="1"/>
        <pt x="216" y="-5" on="1"/>
        <pt x="138" y="-5" on="0"/>
        <pt x="34" y="84" on="0"/>
        <pt x="34" y="233" on="0"/>
        <pt x="127" y="339" on="0"/>
        <pt x="218" y="339" on="1"/>
        <pt x="361" y="339" on="1"/>
        <pt x="361" y="383" on="1"/>
        <pt x="361" y="472" on="0"/>
      </contour>
      <contour>
        <pt x="361" y="169" on="1"/>
        <pt x="361" y="243" on="1"/>
        <pt x="238" y="243" on="1"/>
        <pt x="197" y="243" on="0"/>
        <pt x="155" y="199" on="0"/>
        <pt x="155" y="138" on="0"/>
        <pt x="194" y="101" on="0"/>
        <pt x="231" y="101" on="1"/>
      </contour>
    </TTGlyph>
    <TTGlyph name="asciicircum" xMin="63" yMin="389" xMax="539" yMax="719">
      <contour>
        <pt x="539" y="389" on="1"/>
        <pt x="403" y="389" on="1"/>
        <pt x="313" y="578" on="1"/>
        <pt x="288" y="577" on="1"/>
        <pt x="199" y="389" on="1"/>
        <pt x="63" y="389" on="1"/>
        <pt x="241" y="719" on="1"/>
        <pt x="361" y="719" on="1"/>
      </contour>
    </TTGlyph>
    <TTGlyph name="asciitilde" xMin="37" yMin="195" xMax="569" yMax="379">
      <contour>
        <pt x="486" y="363" on="1"/>
        <pt x="569" y="281" on="1"/>
        <pt x="522" y="234" on="0"/>
        <pt x="449" y="195" on="0"/>
        <pt x="351" y="195" on="0"/>
        <pt x="241" y="253" on="0"/>
        <pt x="161" y="253" on="0"/>
        <pt x="119" y="211" on="1"/>
        <pt x="37" y="293" on="1"/>
        <pt x="85" y="341" on="0"/>
        <pt x="156" y="379" on="0"/>
        <pt x="254" y="379" on="0"/>
        <pt x="364" y="321" on="0"/>
        <pt x="444" y="321" on="0"/>
      </contour>
    </TTGlyph>
    <TTGlyph name="asterisk" xMin="53" yMin="333" xMax="440" yMax="720">
      <contour>
        <pt x="440" y="461" on="1"/>
        <pt x="390" y="385" on="1"/>
        <pt x="277" y="452" on="1"/>
        <pt x="264" y="448" on="1"/>
        <pt x="210" y="333" on="1"/>
        <pt x="124" y="369" on="1"/>
        <pt x="194" y="492" on="1"/>
        <pt x="53" y="512" on="1"/>
        <pt x="74" y="601" on="1"/>
        <pt x="192" y="576" on="1"/>
        <pt x="152" y="694" on="1"/>
        <pt x="242" y="720" on="1"/>
        <pt x="272" y="598" on="1"/>
        <pt x="357" y="682" on="1"/>
        <pt x="423" y="618" on="1"/>
        <pt x="313" y="526" on="1"/>
      </contour>
    </TTGlyph>
    <TTGlyph name="at" xMin="28" yMin="-169" xMax="838" yMax="718">
      <contour>
        <pt x="838" y="348" on="1"/>
        <pt x="838" y="6" on="0"/>
        <pt x="681" y="6" on="1"/>
        <pt x="635" y="6" on="0"/>
        <pt x="567" y="32" on="0"/>
        <pt x="552" y="52" on="1"/>
        <pt x="522" y="90" on="0"/>
        <pt x="522" y="128" on="1"/>
        <pt x="522" y="144" on="0"/>
        <pt x="524" y="166" on="1"/>
        <pt x="502" y="97" on="0"/>
        <pt x="439" y="41" on="0"/>
        <pt x="391" y="41" on="1"/>
        <pt x="306" y="41" on="0"/>
        <pt x="209" y="161" on="0"/>
        <pt x="209" y="277" on="1"/>
        <pt x="209" y="422" on="0"/>
        <pt x="310" y="523" on="0"/>
        <pt x="435" y="523" on="1"/>
        <pt x="535" y="523" on="1"/>
        <pt x="607" y="529" on="1"/>
        <pt x="607" y="206" on="1"/>
        <pt x="607" y="131" on="0"/>
        <pt x="635" y="63" on="0"/>
        <pt x="681" y="63" on="1"/>
        <pt x="779" y="63" on="0"/>
        <pt x="779" y="347" on="1"/>
        <pt x="779" y="515" on="0"/>
        <pt x="615" y="658" on="0"/>
        <pt x="257" y="658" on="0"/>
        <pt x="88" y="486" on="0"/>
        <pt x="88" y="108" on="0"/>
        <pt x="275" y="-110" on="0"/>
        <pt x="464" y="-110" on="1"/>
        <pt x="457" y="-169" on="1"/>
        <pt x="361" y="-169" on="0"/>
        <pt x="211" y="-119" on="0"/>
        <pt x="115" y="-36" on="0"/>
        <pt x="84" y="24" on="1"/>
        <pt x="28" y="131" on="0"/>
        <pt x="28" y="286" on="1"/>
        <pt x="28" y="530" on="0"/>
        <pt x="136" y="626" on="1"/>
        <pt x="190" y="675" on="0"/>
        <pt x="332" y="718" on="0"/>
        <pt x="429" y="718" on="1"/>
        <pt x="638" y="718" on="0"/>
        <pt x="838" y="551" on="0"/>
      </contour>
      <contour>
        <pt x="506" y="424" on="1"/>
        <pt x="435" y="424" on="1"/>
        <pt x="365" y="424" on="0"/>
        <pt x="316" y="357" on="0"/>
        <pt x="316" y="201" on="0"/>
        <pt x="365" y="147" on="0"/>
        <pt x="416" y="147" on="1"/>
        <pt x="448" y="147" on="0"/>
        <pt x="506" y="241" on="0"/>
        <pt x="506" y="304" on="1"/>
      </contour>
    </TTGlyph>
    <TTGlyph name="atilde" xMin="9" yMin="-6" xMax="466" yMax="743">
      <contour>
        <pt x="395" y="724" on="1"/>
        <pt x="441" y="674" on="1"/>
        <pt x="382" y="615" on="0"/>
        <pt x="328" y="615" on="1"/>
        <pt x="291" y="615" on="0"/>
        <pt x="220" y="656" on="0"/>
        <pt x="157" y="656" on="0"/>
        <pt x="130" y="632" on="1"/>
        <pt x="80" y="684" on="1"/>
        <pt x="113" y="717" on="0"/>
        <pt x="163" y="743" on="0"/>
        <pt x="231" y="743" on="0"/>
        <pt x="302" y="701" on="0"/>
        <pt x="371" y="701" on="0"/>
      </contour>
      <contour>
        <pt x="466" y="0" on="1"/>
        <pt x="379" y="0" on="1"/>
        <pt x="339" y="69" on="1"/>
        <pt x="200" y="-6" on="1"/>
        <pt x="84" y="-6" on="0"/>
        <pt x="44" y="78" on="1"/>
        <pt x="24" y="119" on="0"/>
        <pt x="9" y="214" on="0"/>
        <pt x="9" y="317" on="0"/>
        <pt x="11" y="366" on="0"/>
        <pt x="19" y="431" on="0"/>
        <pt x="34" y="475" on="0"/>
        <pt x="62" y="522" on="0"/>
        <pt x="82" y="536" on="1"/>
        <pt x="127" y="567" on="0"/>
        <pt x="199" y="567" on="1"/>
        <pt x="336" y="567" on="1"/>
        <pt x="466" y="575" on="1"/>
      </contour>
      <contour>
        <pt x="336" y="182" on="1"/>
        <pt x="336" y="450" on="1"/>
        <pt x="237" y="450" on="1"/>
        <pt x="182" y="450" on="0"/>
        <pt x="139" y="366" on="0"/>
        <pt x="139" y="199" on="0"/>
        <pt x="180" y="131" on="0"/>
        <pt x="237" y="131" on="1"/>
      </contour>
    </TTGlyph>
    <TTGlyph name="atilde.alt" xMin="34" yMin="-5" xMax="490" yMax="743">
      <contour>
        <pt x="264" y="472" on="1"/>
        <pt x="203" y="472" on="0"/>
        <pt x="152" y="431" on="0"/>
        <pt x="152" y="382" on="1"/>
        <pt x="44" y="382" on="1"/>
        <pt x="44" y="478" on="0"/>
        <pt x="155" y="579" on="0"/>
        <pt x="373" y="579" on="0"/>
        <pt x="490" y="472" on="0"/>
        <pt x="490" y="384" on="1"/>
        <pt x="490" y="0" on="1"/>
        <pt x="394" y="0" on="1"/>
        <pt x="364" y="65" on="1"/>
        <pt x="216" y="-5" on="1"/>
        <pt x="138" y="-5" on="0"/>
        <pt x="34" y="84" on="0"/>
        <pt x="34" y="233" on="0"/>
        <pt x="127" y="339" on="0"/>
        <pt x="218" y="339" on="1"/>
        <pt x="361" y="339" on="1"/>
        <pt x="361" y="383" on="1"/>
        <pt x="361" y="472" on="0"/>
      </contour>
      <contour>
        <pt x="361" y="169" on="1"/>
        <pt x="361" y="243" on="1"/>
        <pt x="238" y="243" on="1"/>
        <pt x="197" y="243" on="0"/>
        <pt x="155" y="199" on="0"/>
        <pt x="155" y="138" on="0"/>
        <pt x="194" y="101" on="0"/>
        <pt x="231" y="101" on="1"/>
      </contour>
      <contour>
        <pt x="395" y="724" on="1"/>
        <pt x="441" y="674" on="1"/>
        <pt x="382" y="615" on="0"/>
        <pt x="328" y="615" on="1"/>
        <pt x="291" y="615" on="0"/>
        <pt x="220" y="656" on="0"/>
        <pt x="157" y="656" on="0"/>
        <pt x="130" y="632" on="1"/>
        <pt x="80" y="684" on="1"/>
        <pt x="113" y="717" on="0"/>
        <pt x="163" y="743" on="0"/>
        <pt x="231" y="743" on="0"/>
        <pt x="302" y="701" on="0"/>
        <pt x="371" y="701" on="0"/>
      </contour>
    </TTGlyph>
    <TTGlyph name="b" xMin="52" yMin="-1" xMax="517" yMax="752">
      <contour>
        <pt x="317" y="-1" on="1"/>
        <pt x="204" y="0" on="1"/>
        <pt x="129" y="0" on="0"/>
        <pt x="52" y="88" on="0"/>
        <pt x="52" y="149" on="1"/>
        <pt x="52" y="752" on="1"/>
        <pt x="182" y="752" on="1"/>
        <pt x="182" y="500" on="1"/>
        <pt x="337" y="572" on="1"/>
        <pt x="426" y="572" on="0"/>
        <pt x="468" y="524" on="1"/>
        <pt x="505" y="481" on="0"/>
        <pt x="514" y="385" on="1"/>
        <pt x="517" y="345" on="0"/>
        <pt x="517" y="286" on="1"/>
        <pt x="517" y="-1" on="0"/>
      </contour>
      <contour>
        <pt x="215" y="111" on="1"/>
        <pt x="279" y="111" on="1"/>
        <pt x="387" y="111" on="0"/>
        <pt x="387" y="286" on="1"/>
        <pt x="387" y="375" on="0"/>
        <pt x="354" y="445" on="0"/>
        <pt x="299" y="445" on="1"/>
        <pt x="182" y="382" on="1"/>
        <pt x="182" y="157" on="1"/>
        <pt x="182" y="117" on="0"/>
      </contour>
    </TTGlyph>
    <TTGlyph name="backslash" xMin="0" yMin="-74" xMax="403" yMax="773">
      <contour>
        <pt x="403" y="-74" on="1"/>
        <pt x="281" y="-74" on="1"/>
        <pt x="0" y="773" on="1"/>
        <pt x="122" y="773" on="1"/>
      </contour>
    </TTGlyph>
    <TTGlyph name="bar" xMin="110" yMin="-74" xMax="240" yMax="786">
      <contour>
        <pt x="240" y="-74" on="1"/>
        <pt x="110" y="-74" on="1"/>
        <pt x="110" y="786" on="1"/>
        <pt x="240" y="786" on="1"/>
      </contour>
    </TTGlyph>
    <TTGlyph name="braceleft" xMin="91" yMin="-74" xMax="414" yMax="786">
      <contour>
        <pt x="414" y="-74" on="1"/>
        <pt x="312" y="-74" on="1"/>
        <pt x="237" y="-74" on="0"/>
        <pt x="158" y="5" on="0"/>
        <pt x="158" y="74" on="1"/>
        <pt x="188" y="219" on="1"/>
        <pt x="188" y="249" on="0"/>
        <pt x="162" y="296" on="0"/>
        <pt x="113" y="298" on="0"/>
        <pt x="91" y="332" on="0"/>
        <pt x="91" y="379" on="0"/>
        <pt x="113" y="414" on="0"/>
        <pt x="160" y="414" on="0"/>
        <pt x="188" y="462" on="0"/>
        <pt x="188" y="493" on="1"/>
        <pt x="158" y="638" on="1"/>
        <pt x="158" y="707" on="0"/>
        <pt x="237" y="786" on="0"/>
        <pt x="312" y="786" on="1"/>
        <pt x="414" y="786" on="1"/>
        <pt x="414" y="669" on="1"/>
        <pt x="335" y="669" on="0"/>
        <pt x="288" y="638" on="0"/>
        <pt x="288" y="591" on="1"/>
        <pt x="318" y="476" on="1"/>
        <pt x="318" y="428" on="0"/>
        <pt x="274" y="366" on="0"/>
        <pt x="249" y="356" on="1"/>
        <pt x="274" y="346" on="0"/>
        <pt x="318" y="284" on="0"/>
        <pt x="318" y="236" on="1"/>
        <pt x="288" y="121" on="1"/>
        <pt x="288" y="91" on="0"/>
        <pt x="296" y="76" on="1"/>
        <pt x="312" y="43" on="0"/>
        <pt x="414" y="43" on="1"/>
      </contour>
    </TTGlyph>
    <TTGlyph name="braceright" xMin="73" yMin="-74" xMax="396" yMax="786">
      <contour>
        <pt x="175" y="-74" on="1"/>
        <pt x="73" y="-74" on="1"/>
        <pt x="73" y="43" on="1"/>
        <pt x="175" y="43" on="0"/>
        <pt x="192" y="76" on="1"/>
        <pt x="199" y="91" on="0"/>
        <pt x="199" y="121" on="1"/>
        <pt x="169" y="236" on="1"/>
        <pt x="169" y="284" on="0"/>
        <pt x="213" y="346" on="0"/>
        <pt x="238" y="356" on="1"/>
        <pt x="213" y="366" on="0"/>
        <pt x="169" y="428" on="0"/>
        <pt x="169" y="476" on="1"/>
        <pt x="199" y="591" on="1"/>
        <pt x="199" y="638" on="0"/>
        <pt x="152" y="669" on="0"/>
        <pt x="73" y="669" on="1"/>
        <pt x="73" y="786" on="1"/>
        <pt x="175" y="786" on="1"/>
        <pt x="250" y="786" on="0"/>
        <pt x="329" y="707" on="0"/>
        <pt x="329" y="638" on="1"/>
        <pt x="299" y="493" on="1"/>
        <pt x="299" y="462" on="0"/>
        <pt x="327" y="414" on="0"/>
        <pt x="374" y="414" on="0"/>
        <pt x="396" y="379" on="0"/>
        <pt x="396" y="332" on="0"/>
        <pt x="374" y="298" on="0"/>
        <pt x="325" y="296" on="0"/>
        <pt x="299" y="249" on="0"/>
        <pt x="299" y="219" on="1"/>
        <pt x="329" y="74" on="1"/>
        <pt x="329" y="5" on="0"/>
        <pt x="250" y="-74" on="0"/>
      </contour>
    </TTGlyph>
    <TTGlyph name="bracketleft" xMin="80" yMin="-74" xMax="337" yMax="786">
      <contour>
        <pt x="337" y="-74" on="1"/>
        <pt x="80" y="-74" on="1"/>
        <pt x="80" y="786" on="1"/>
        <pt x="337" y="786" on="1"/>
        <pt x="337" y="669" on="1"/>
        <pt x="210" y="669" on="1"/>
        <pt x="210" y="43" on="1"/>
        <pt x="337" y="43" on="1"/>
      </contour>
    </TTGlyph>
    <TTGlyph name="bracketright" xMin="42" yMin="-74" xMax="299" yMax="786">
      <contour>
        <pt x="299" y="-74" on="1"/>
        <pt x="42" y="-74" on="1"/>
        <pt x="42" y="42" on="1"/>
        <pt x="169" y="42" on="1"/>
        <pt x="169" y="670" on="1"/>
        <pt x="42" y="670" on="1"/>
        <pt x="42" y="786" on="1"/>
        <pt x="299" y="786" on="1"/>
      </contour>
    </TTGlyph>
    <TTGlyph name="breve" xMin="86" yMin="628" xMax="414" yMax="779">
      <contour>
        <pt x="327" y="779" on="1"/>
        <pt x="414" y="779" on="1"/>
        <pt x="410" y="702" on="0"/>
        <pt x="320" y="628" on="0"/>
        <pt x="181" y="628" on="0"/>
        <pt x="90" y="702" on="0"/>
        <pt x="86" y="779" on="1"/>
        <pt x="174" y="779" on="1"/>
        <pt x="181" y="719" on="0"/>
        <pt x="320" y="719" on="0"/>
      </contour>
    </TTGlyph>
    <TTGlyph name="brokenbar" xMin="110" yMin="-74" xMax="240" yMax="786">
      <contour>
        <pt x="240" y="436" on="1"/>
        <pt x="110" y="436" on="1"/>
        <pt x="110" y="786" on="1"/>
        <pt x="240" y="786" on="1"/>
      </contour>
      <contour>
        <pt x="240" y="-74" on="1"/>
        <pt x="110" y="-74" on="1"/>
        <pt x="110" y="276" on="1"/>
        <pt x="240" y="276" on="1"/>
      </contour>
    </TTGlyph>
    <TTGlyph name="bullet" xMin="83" yMin="171" xMax="409" yMax="497">
      <contour>
        <pt x="409" y="418" on="0"/>
        <pt x="409" y="250" on="0"/>
        <pt x="334" y="171" on="0"/>
        <pt x="158" y="171" on="0"/>
        <pt x="83" y="250" on="0"/>
        <pt x="83" y="418" on="0"/>
        <pt x="158" y="497" on="0"/>
        <pt x="334" y="497" on="0"/>
      </contour>
    </TTGlyph>
    <TTGlyph name="c" xMin="31" yMin="-14" xMax="483" yMax="579">
      <contour>
        <pt x="365" y="209" on="1"/>
        <pt x="483" y="210" on="1"/>
        <pt x="482" y="202" on="0"/>
        <pt x="480" y="160" on="0"/>
        <pt x="479" y="145" on="0"/>
        <pt x="475" y="113" on="0"/>
        <pt x="470" y="98" on="0"/>
        <pt x="466" y="86" on="1"/>
        <pt x="448" y="34" on="0"/>
        <pt x="368" y="4" on="1"/>
        <pt x="317" y="-14" on="0"/>
        <pt x="206" y="-14" on="0"/>
        <pt x="116" y="22" on="0"/>
        <pt x="90" y="50" on="1"/>
        <pt x="31" y="112" on="0"/>
        <pt x="31" y="453" on="0"/>
        <pt x="90" y="515" on="1"/>
        <pt x="116" y="543" on="0"/>
        <pt x="206" y="579" on="0"/>
        <pt x="261" y="579" on="1"/>
        <pt x="369" y="579" on="0"/>
        <pt x="481" y="471" on="0"/>
        <pt x="481" y="375" on="1"/>
        <pt x="363" y="375" on="1"/>
        <pt x="363" y="419" on="0"/>
        <pt x="319" y="462" on="0"/>
        <pt x="200" y="462" on="0"/>
        <pt x="161" y="388" on="0"/>
        <pt x="161" y="314" on="1"/>
        <pt x="161" y="262" on="1"/>
        <pt x="161" y="143" on="0"/>
        <pt x="207" y="116" on="1"/>
        <pt x="228" y="103" on="0"/>
        <pt x="296" y="103" on="0"/>
        <pt x="339" y="116" on="0"/>
        <pt x="358" y="148" on="0"/>
        <pt x="364" y="179" on="0"/>
      </contour>
    </TTGlyph>
    <TTGlyph name="caron" xMin="99" yMin="603" xMax="401" yMax="772">
      <contour>
        <pt x="250" y="668" on="1"/>
        <pt x="295" y="724" on="1"/>
        <pt x="334" y="772" on="0"/>
        <pt x="372" y="772" on="1"/>
        <pt x="385" y="772" on="0"/>
        <pt x="401" y="754" on="0"/>
        <pt x="401" y="732" on="0"/>
        <pt x="396" y="724" on="1"/>
        <pt x="302" y="603" on="1"/>
        <pt x="198" y="603" on="1"/>
        <pt x="104" y="724" on="1"/>
        <pt x="99" y="732" on="0"/>
        <pt x="99" y="753" on="0"/>
        <pt x="116" y="772" on="0"/>
        <pt x="128" y="772" on="1"/>
        <pt x="166" y="772" on="0"/>
        <pt x="205" y="724" on="1"/>
      </contour>
    </TTGlyph>
    <TTGlyph name="ccedilla" xMin="31" yMin="-180" xMax="483" yMax="579">
      <contour>
        <pt x="365" y="209" on="1"/>
        <pt x="483" y="210" on="1"/>
        <pt x="482" y="202" on="0"/>
        <pt x="480" y="160" on="0"/>
        <pt x="479" y="145" on="0"/>
        <pt x="475" y="113" on="0"/>
        <pt x="470" y="98" on="0"/>
        <pt x="466" y="86" on="1"/>
        <pt x="459" y="66" on="0"/>
        <pt x="443" y="50" on="1"/>
        <pt x="394" y="-1" on="0"/>
        <pt x="293" y="-12" on="1"/>
        <pt x="285" y="-33" on="1"/>
        <pt x="333" y="-46" on="0"/>
        <pt x="333" y="-131" on="0"/>
        <pt x="276" y="-180" on="0"/>
        <pt x="217" y="-180" on="1"/>
        <pt x="204" y="-180" on="0"/>
        <pt x="170" y="-176" on="1"/>
        <pt x="191" y="-125" on="1"/>
        <pt x="209" y="-128" on="0"/>
        <pt x="226" y="-128" on="1"/>
        <pt x="267" y="-128" on="0"/>
        <pt x="267" y="-97" on="1"/>
        <pt x="267" y="-63" on="0"/>
        <pt x="209" y="-63" on="1"/>
        <pt x="229" y="-12" on="1"/>
        <pt x="138" y="-2" on="0"/>
        <pt x="90" y="50" on="1"/>
        <pt x="31" y="112" on="0"/>
        <pt x="31" y="453" on="0"/>
        <pt x="90" y="515" on="1"/>
        <pt x="116" y="543" on="0"/>
        <pt x="206" y="579" on="0"/>
        <pt x="261" y="579" on="1"/>
        <pt x="369" y="579" on="0"/>
        <pt x="481" y="471" on="0"/>
        <pt x="481" y="375" on="1"/>
        <pt x="363" y="375" on="1"/>
        <pt x="363" y="419" on="0"/>
        <pt x="319" y="462" on="0"/>
        <pt x="261" y="462" on="1"/>
        <pt x="210" y="462" on="0"/>
        <pt x="184" y="436" on="1"/>
        <pt x="165" y="417" on="0"/>
        <pt x="162" y="363" on="1"/>
        <pt x="161" y="346" on="0"/>
        <pt x="161" y="314" on="1"/>
        <pt x="161" y="232" on="1"/>
        <pt x="161" y="190" on="0"/>
        <pt x="169" y="166" on="0"/>
        <pt x="178" y="138" on="0"/>
        <pt x="192" y="124" on="0"/>
        <pt x="202" y="116" on="1"/>
        <pt x="221" y="103" on="0"/>
        <pt x="296" y="103" on="0"/>
        <pt x="339" y="116" on="0"/>
        <pt x="358" y="148" on="0"/>
        <pt x="364" y="179" on="0"/>
      </contour>
    </TTGlyph>
    <TTGlyph name="cedilla" xMin="170" yMin="-171" xMax="333" yMax="21">
      <contour>
        <pt x="303" y="21" on="1"/>
        <pt x="285" y="-24" on="1"/>
        <pt x="333" y="-37" on="0"/>
        <pt x="333" y="-122" on="0"/>
        <pt x="276" y="-171" on="0"/>
        <pt x="217" y="-171" on="1"/>
        <pt x="204" y="-171" on="0"/>
        <pt x="170" y="-167" on="1"/>
        <pt x="191" y="-116" on="1"/>
        <pt x="209" y="-119" on="0"/>
        <pt x="226" y="-119" on="1"/>
        <pt x="267" y="-119" on="0"/>
        <pt x="267" y="-88" on="1"/>
        <pt x="267" y="-54" on="0"/>
        <pt x="209" y="-54" on="1"/>
        <pt x="239" y="21" on="1"/>
      </contour>
    </TTGlyph>
    <TTGlyph name="cent" xMin="31" yMin="-110" xMax="483" yMax="667">
      <contour>
        <pt x="218" y="-110" on="1"/>
        <pt x="218" y="-11" on="1"/>
        <pt x="126" y="5" on="0"/>
        <pt x="83" y="62" on="1"/>
        <pt x="44" y="113" on="0"/>
        <pt x="35" y="201" on="1"/>
        <pt x="31" y="239" on="0"/>
        <pt x="31" y="347" on="0"/>
        <pt x="45" y="433" on="0"/>
        <pt x="64" y="473" on="1"/>
        <pt x="103" y="554" on="0"/>
        <pt x="218" y="576" on="1"/>
        <pt x="218" y="667" on="1"/>
        <pt x="320" y="667" on="1"/>
        <pt x="320" y="574" on="1"/>
        <pt x="399" y="560" on="0"/>
        <pt x="481" y="457" on="0"/>
        <pt x="481" y="375" on="1"/>
        <pt x="363" y="375" on="1"/>
        <pt x="363" y="419" on="0"/>
        <pt x="319" y="462" on="0"/>
        <pt x="261" y="462" on="1"/>
        <pt x="210" y="462" on="0"/>
        <pt x="184" y="436" on="1"/>
        <pt x="165" y="417" on="0"/>
        <pt x="162" y="363" on="1"/>
        <pt x="161" y="346" on="0"/>
        <pt x="161" y="314" on="1"/>
        <pt x="161" y="262" on="1"/>
        <pt x="161" y="162" on="0"/>
        <pt x="183" y="134" on="1"/>
        <pt x="208" y="103" on="0"/>
        <pt x="261" y="103" on="1"/>
        <pt x="331" y="103" on="0"/>
        <pt x="348" y="132" on="1"/>
        <pt x="358" y="148" on="0"/>
        <pt x="364" y="179" on="0"/>
        <pt x="365" y="209" on="1"/>
        <pt x="483" y="210" on="1"/>
        <pt x="476" y="128" on="0"/>
        <pt x="453" y="58" on="0"/>
        <pt x="436" y="43" on="1"/>
        <pt x="398" y="8" on="0"/>
        <pt x="320" y="-8" on="1"/>
        <pt x="320" y="-110" on="1"/>
      </contour>
    </TTGlyph>
    <TTGlyph name="circumflex" xMin="99" yMin="604" xMax="401" yMax="773">
      <contour>
        <pt x="250" y="708" on="1"/>
        <pt x="205" y="652" on="1"/>
        <pt x="166" y="604" on="0"/>
        <pt x="128" y="604" on="1"/>
        <pt x="115" y="604" on="0"/>
        <pt x="99" y="622" on="0"/>
        <pt x="99" y="644" on="0"/>
        <pt x="104" y="652" on="1"/>
        <pt x="198" y="773" on="1"/>
        <pt x="302" y="773" on="1"/>
        <pt x="396" y="652" on="1"/>
        <pt x="401" y="644" on="0"/>
        <pt x="401" y="623" on="0"/>
        <pt x="384" y="604" on="0"/>
        <pt x="372" y="604" on="1"/>
        <pt x="334" y="604" on="0"/>
        <pt x="295" y="652" on="1"/>
      </contour>
    </TTGlyph>
    <TTGlyph name="colon" xMin="89" yMin="-13" xMax="254" yMax="428">
      <contour>
        <pt x="254" y="119" on="0"/>
        <pt x="254" y="19" on="0"/>
        <pt x="223" y="-13" on="0"/>
        <pt x="123" y="-13" on="0"/>
        <pt x="91" y="19" on="0"/>
        <pt x="91" y="119" on="0"/>
        <pt x="123" y="150" on="0"/>
        <pt x="223" y="150" on="0"/>
      </contour>
      <contour>
        <pt x="252" y="397" on="0"/>
        <pt x="252" y="297" on="0"/>
        <pt x="221" y="265" on="0"/>
        <pt x="121" y="265" on="0"/>
        <pt x="89" y="297" on="0"/>
        <pt x="89" y="397" on="0"/>
        <pt x="121" y="428" on="0"/>
        <pt x="221" y="428" on="0"/>
      </contour>
    </TTGlyph>
    <TTGlyph name="comma" xMin="68" yMin="-165" xMax="211" yMax="142">
      <contour>
        <pt x="211" y="142" on="1"/>
        <pt x="211" y="37" on="1"/>
        <pt x="211" y="-34" on="0"/>
        <pt x="120" y="-145" on="0"/>
        <pt x="68" y="-165" on="1"/>
        <pt x="68" y="142" on="1"/>
      </contour>
    </TTGlyph>
    <TTGlyph name="commaaccent" xMin="45" yMin="84" xMax="178" yMax="351">
      <contour>
        <pt x="178" y="351" on="1"/>
        <pt x="178" y="266" on="1"/>
        <pt x="178" y="207" on="0"/>
        <pt x="93" y="103" on="0"/>
        <pt x="45" y="84" on="1"/>
        <pt x="45" y="351" on="1"/>
      </contour>
    </TTGlyph>
    <TTGlyph name="copyright" xMin="60" yMin="-6" xMax="784" yMax="718">
      <contour>
        <pt x="491" y="321" on="1"/>
        <pt x="581" y="321" on="1"/>
        <pt x="581" y="237" on="0"/>
        <pt x="501" y="147" on="0"/>
        <pt x="429" y="147" on="1"/>
        <pt x="268" y="147" on="0"/>
        <pt x="268" y="333" on="1"/>
        <pt x="268" y="366" on="1"/>
        <pt x="268" y="459" on="0"/>
        <pt x="340" y="565" on="0"/>
        <pt x="429" y="565" on="1"/>
        <pt x="496" y="565" on="0"/>
        <pt x="580" y="486" on="0"/>
        <pt x="580" y="412" on="1"/>
        <pt x="490" y="412" on="1"/>
        <pt x="479" y="477" on="0"/>
        <pt x="429" y="477" on="1"/>
        <pt x="384" y="477" on="0"/>
        <pt x="374" y="442" on="1"/>
        <pt x="365" y="414" on="0"/>
        <pt x="365" y="368" on="1"/>
        <pt x="365" y="334" on="1"/>
        <pt x="365" y="260" on="0"/>
        <pt x="394" y="243" on="1"/>
        <pt x="407" y="235" on="0"/>
        <pt x="462" y="235" on="0"/>
        <pt x="488" y="277" on="0"/>
      </contour>
      <contour>
        <pt x="784" y="544" on="0"/>
        <pt x="784" y="168" on="0"/>
        <pt x="610" y="-6" on="0"/>
        <pt x="234" y="-6" on="0"/>
        <pt x="60" y="168" on="0"/>
        <pt x="60" y="544" on="0"/>
        <pt x="234" y="718" on="0"/>
        <pt x="610" y="718" on="0"/>
      </contour>
      <contour>
        <pt x="594" y="34" on="0"/>
        <pt x="744" y="184" on="0"/>
        <pt x="744" y="521" on="0"/>
        <pt x="587" y="678" on="0"/>
        <pt x="251" y="678" on="0"/>
        <pt x="110" y="530" on="0"/>
        <pt x="110" y="182" on="0"/>
        <pt x="251" y="34" on="0"/>
      </contour>
    </TTGlyph>
    <TTGlyph name="currency" xMin="58" yMin="10" xMax="610" yMax="562">
      <contour>
        <pt x="610" y="96" on="1"/>
        <pt x="525" y="10" on="1"/>
        <pt x="451" y="83" on="1"/>
        <pt x="397" y="51" on="0"/>
        <pt x="272" y="51" on="0"/>
        <pt x="218" y="83" on="1"/>
        <pt x="144" y="10" on="1"/>
        <pt x="58" y="96" on="1"/>
        <pt x="132" y="169" on="1"/>
        <pt x="99" y="225" on="0"/>
        <pt x="99" y="347" on="0"/>
        <pt x="132" y="403" on="1"/>
        <pt x="58" y="476" on="1"/>
        <pt x="144" y="562" on="1"/>
        <pt x="218" y="489" on="1"/>
        <pt x="272" y="521" on="0"/>
        <pt x="397" y="521" on="0"/>
        <pt x="451" y="489" on="1"/>
        <pt x="525" y="562" on="1"/>
        <pt x="610" y="476" on="1"/>
        <pt x="537" y="403" on="1"/>
        <pt x="569" y="349" on="0"/>
        <pt x="569" y="223" on="0"/>
        <pt x="537" y="169" on="1"/>
      </contour>
      <contour>
        <pt x="452" y="237" on="0"/>
        <pt x="452" y="335" on="0"/>
        <pt x="383" y="403" on="0"/>
        <pt x="285" y="403" on="0"/>
        <pt x="217" y="335" on="0"/>
        <pt x="217" y="237" on="0"/>
        <pt x="285" y="169" on="0"/>
        <pt x="383" y="169" on="0"/>
      </contour>
    </TTGlyph>
    <TTGlyph name="d" xMin="31" yMin="-6" xMax="488" yMax="752">
      <contour>
        <pt x="488" y="0" on="1"/>
        <pt x="401" y="0" on="1"/>
        <pt x="361" y="69" on="1"/>
        <pt x="222" y="-6" on="1"/>
        <pt x="106" y="-6" on="0"/>
        <pt x="66" y="78" on="1"/>
        <pt x="46" y="119" on="0"/>
        <pt x="31" y="214" on="0"/>
        <pt x="31" y="317" on="0"/>
        <pt x="33" y="366" on="0"/>
        <pt x="41" y="431" on="0"/>
        <pt x="56" y="475" on="0"/>
        <pt x="84" y="522" on="0"/>
        <pt x="104" y="536" on="1"/>
        <pt x="149" y="567" on="0"/>
        <pt x="221" y="567" on="1"/>
        <pt x="358" y="567" on="1"/>
        <pt x="358" y="752" on="1"/>
        <pt x="488" y="752" on="1"/>
      </contour>
      <contour>
        <pt x="358" y="182" on="1"/>
        <pt x="358" y="450" on="1"/>
        <pt x="259" y="450" on="1"/>
        <pt x="204" y="450" on="0"/>
        <pt x="161" y="366" on="0"/>
        <pt x="161" y="199" on="0"/>
        <pt x="202" y="131" on="0"/>
        <pt x="259" y="131" on="1"/>
      </contour>
    </TTGlyph>
    <TTGlyph name="dagger" xMin="67" yMin="0" xMax="512" yMax="712">
      <contour>
        <pt x="512" y="410" on="1"/>
        <pt x="377" y="410" on="1"/>
        <pt x="344" y="420" on="1"/>
        <pt x="354" y="380" on="1"/>
        <pt x="354" y="0" on="1"/>
        <pt x="224" y="0" on="1"/>
        <pt x="224" y="380" on="1"/>
        <pt x="234" y="420" on="1"/>
        <pt x="197" y="410" on="1"/>
        <pt x="67" y="410" on="1"/>
        <pt x="67" y="527" on="1"/>
        <pt x="193" y="527" on="1"/>
        <pt x="234" y="517" on="1"/>
        <pt x="224" y="552" on="1"/>
        <pt x="224" y="712" on="1"/>
        <pt x="354" y="712" on="1"/>
        <pt x="354" y="550" on="1"/>
        <pt x="344" y="517" on="1"/>
        <pt x="377" y="527" on="1"/>
        <pt x="512" y="527" on="1"/>
      </contour>
    </TTGlyph>
    <TTGlyph name="daggerdbl" xMin="57" yMin="-191" xMax="522" yMax="712">
      <contour>
        <pt x="522" y="-6" on="1"/>
        <pt x="354" y="-6" on="1"/>
        <pt x="354" y="-191" on="1"/>
        <pt x="224" y="-191" on="1"/>
        <pt x="224" y="-6" on="1"/>
        <pt x="57" y="-6" on="1"/>
        <pt x="57" y="111" on="1"/>
        <pt x="224" y="111" on="1"/>
        <pt x="224" y="410" on="1"/>
        <pt x="57" y="410" on="1"/>
        <pt x="57" y="527" on="1"/>
        <pt x="224" y="527" on="1"/>
        <pt x="224" y="712" on="1"/>
        <pt x="354" y="712" on="1"/>
        <pt x="354" y="527" on="1"/>
        <pt x="522" y="527" on="1"/>
        <pt x="522" y="410" on="1"/>
        <pt x="354" y="410" on="1"/>
        <pt x="354" y="111" on="1"/>
        <pt x="522" y="111" on="1"/>
      </contour>
    </TTGlyph>
    <TTGlyph name="degree" xMin="55" yMin="358" xMax="423" yMax="727">
      <contour>
        <pt x="423" y="645" on="0"/>
        <pt x="423" y="439" on="0"/>
        <pt x="335" y="358" on="0"/>
        <pt x="143" y="358" on="0"/>
        <pt x="55" y="439" on="0"/>
        <pt x="55" y="645" on="0"/>
        <pt x="144" y="727" on="0"/>
        <pt x="334" y="727" on="0"/>
      </contour>
      <contour>
        <pt x="318" y="495" on="0"/>
        <pt x="318" y="589" on="0"/>
        <pt x="281" y="622" on="0"/>
        <pt x="196" y="622" on="0"/>
        <pt x="160" y="589" on="0"/>
        <pt x="160" y="495" on="0"/>
        <pt x="196" y="462" on="0"/>
        <pt x="282" y="462" on="0"/>
      </contour>
    </TTGlyph>
    <TTGlyph name="dieresis" xMin="70" yMin="627" xMax="430" yMax="761">
      <contour>
        <pt x="430" y="733" on="0"/>
        <pt x="430" y="655" on="0"/>
        <pt x="395" y="627" on="0"/>
        <pt x="331" y="627" on="0"/>
        <pt x="296" y="655" on="0"/>
        <pt x="296" y="733" on="0"/>
        <pt x="331" y="761" on="0"/>
        <pt x="395" y="761" on="0"/>
      </contour>
      <contour>
        <pt x="204" y="733" on="0"/>
        <pt x="204" y="655" on="0"/>
        <pt x="169" y="627" on="0"/>
        <pt x="105" y="627" on="0"/>
        <pt x="70" y="655" on="0"/>
        <pt x="70" y="733" on="0"/>
        <pt x="105" y="761" on="0"/>
        <pt x="169" y="761" on="0"/>
      </contour>
    </TTGlyph>
    <TTGlyph name="divide" xMin="46" yMin="0" xMax="497" yMax="578">
      <contour>
        <pt x="497" y="225" on="1"/>
        <pt x="46" y="225" on="1"/>
        <pt x="46" y="346" on="1"/>
        <pt x="497" y="346" on="1"/>
      </contour>
      <contour>
        <pt x="354" y="547" on="0"/>
        <pt x="354" y="447" on="0"/>
        <pt x="323" y="415" on="0"/>
        <pt x="223" y="415" on="0"/>
        <pt x="191" y="447" on="0"/>
        <pt x="191" y="547" on="0"/>
        <pt x="223" y="578" on="0"/>
        <pt x="323" y="578" on="0"/>
      </contour>
      <contour>
        <pt x="354" y="132" on="0"/>
        <pt x="354" y="32" on="0"/>
        <pt x="323" y="0" on="0"/>
        <pt x="223" y="0" on="0"/>
        <pt x="191" y="32" on="0"/>
        <pt x="191" y="132" on="0"/>
        <pt x="223" y="163" on="0"/>
        <pt x="323" y="163" on="0"/>
      </contour>
    </TTGlyph>
    <TTGlyph name="dollar" xMin="22" yMin="-109" xMax="480" yMax="786">
      <contour>
        <pt x="190" y="-109" on="1"/>
        <pt x="190" y="-1" on="1"/>
        <pt x="117" y="13" on="0"/>
        <pt x="22" y="125" on="0"/>
        <pt x="22" y="226" on="1"/>
        <pt x="148" y="232" on="1"/>
        <pt x="148" y="172" on="0"/>
        <pt x="191" y="118" on="0"/>
        <pt x="281" y="118" on="0"/>
        <pt x="342" y="166" on="0"/>
        <pt x="342" y="206" on="1"/>
        <pt x="342" y="278" on="0"/>
        <pt x="274" y="291" on="1"/>
        <pt x="181" y="303" on="1"/>
        <pt x="111" y="316" on="0"/>
        <pt x="30" y="414" on="0"/>
        <pt x="30" y="584" on="0"/>
        <pt x="116" y="696" on="0"/>
        <pt x="190" y="712" on="1"/>
        <pt x="190" y="786" on="1"/>
        <pt x="291" y="786" on="1"/>
        <pt x="291" y="714" on="1"/>
        <pt x="372" y="701" on="0"/>
        <pt x="467" y="594" on="0"/>
        <pt x="467" y="516" on="1"/>
        <pt x="342" y="510" on="1"/>
        <pt x="334" y="560" on="0"/>
        <pt x="286" y="597" on="0"/>
        <pt x="211" y="597" on="0"/>
        <pt x="164" y="543" on="0"/>
        <pt x="164" y="474" on="0"/>
        <pt x="204" y="433" on="0"/>
        <pt x="233" y="428" on="1"/>
        <pt x="298" y="416" on="1"/>
        <pt x="376" y="403" on="0"/>
        <pt x="480" y="300" on="0"/>
        <pt x="480" y="128" on="0"/>
        <pt x="367" y="16" on="0"/>
        <pt x="291" y="0" on="1"/>
        <pt x="291" y="-109" on="1"/>
      </contour>
    </TTGlyph>
    <TTGlyph name="dotaccent" xMin="177" yMin="618" xMax="315" yMax="756">
      <contour>
        <pt x="289" y="756" on="0"/>
        <pt x="315" y="730" on="0"/>
        <pt x="315" y="645" on="0"/>
        <pt x="289" y="618" on="0"/>
        <pt x="204" y="618" on="0"/>
        <pt x="177" y="645" on="0"/>
        <pt x="177" y="730" on="0"/>
        <pt x="204" y="756" on="0"/>
      </contour>
    </TTGlyph>
    <TTGlyph name="dotaccentcmb" xMin="177" yMin="618" xMax="315" yMax="756">
      <contour>
        <pt x="289" y="756" on="0"/>
        <pt x="315" y="730" on="0"/>
        <pt x="315" y="645" on="0"/>
        <pt x="289" y="618" on="0"/>
        <pt x="204" y="618" on="0"/>
        <pt x="177" y="645" on="0"/>
        <pt x="177" y="730" on="0"/>
        <pt x="204" y="756" on="0"/>
      </contour>
    </TTGlyph>
    <TTGlyph name="dotlessi" xMin="73" yMin="0" xMax="203" yMax="521">
      <contour>
        <pt x="203" y="0" on="1"/>
        <pt x="73" y="0" on="1"/>
        <pt x="73" y="521" on="1"/>
        <pt x="203" y="521" on="1"/>
      </contour>
    </TTGlyph>
    <TTGlyph name="e" xMin="39" yMin="-13" xMax="503" yMax="578">
      <contour>
        <pt x="501" y="255" on="1"/>
        <pt x="168" y="255" on="1"/>
        <pt x="168" y="177" on="0"/>
        <pt x="217" y="105" on="0"/>
        <pt x="291" y="105" on="1"/>
        <pt x="339" y="105" on="0"/>
        <pt x="385" y="166" on="0"/>
        <pt x="385" y="194" on="1"/>
        <pt x="502" y="194" on="1"/>
        <pt x="502" y="87" on="0"/>
        <pt x="387" y="-13" on="0"/>
        <pt x="198" y="-13" on="0"/>
        <pt x="146" y="14" on="1"/>
        <pt x="39" y="69" on="0"/>
        <pt x="39" y="306" on="1"/>
        <pt x="39" y="447" on="0"/>
        <pt x="161" y="578" on="0"/>
        <pt x="286" y="578" on="1"/>
        <pt x="503" y="578" on="0"/>
        <pt x="503" y="337" on="1"/>
        <pt x="503" y="311" on="0"/>
      </contour>
      <contour>
        <pt x="171" y="344" on="1"/>
        <pt x="385" y="344" on="1"/>
        <pt x="385" y="410" on="0"/>
        <pt x="335" y="470" on="0"/>
        <pt x="232" y="470" on="0"/>
        <pt x="171" y="409" on="0"/>
      </contour>
    </TTGlyph>
    <TTGlyph name="eacute" xMin="39" yMin="-14" xMax="503" yMax="782">
      <contour>
        <pt x="501" y="255" on="1"/>
        <pt x="171" y="255" on="1"/>
        <pt x="171" y="168" on="0"/>
        <pt x="217" y="95" on="0"/>
        <pt x="291" y="95" on="1"/>
        <pt x="343" y="95" on="0"/>
        <pt x="385" y="146" on="0"/>
        <pt x="385" y="199" on="1"/>
        <pt x="502" y="199" on="1"/>
        <pt x="502" y="86" on="0"/>
        <pt x="390" y="-13" on="0"/>
        <pt x="294" y="-13" on="1"/>
        <pt x="200" y="-13" on="0"/>
        <pt x="93" y="42" on="0"/>
        <pt x="39" y="181" on="0"/>
        <pt x="39" y="447" on="0"/>
        <pt x="161" y="578" on="0"/>
        <pt x="286" y="578" on="1"/>
        <pt x="503" y="578" on="0"/>
        <pt x="503" y="337" on="1"/>
        <pt x="503" y="311" on="0"/>
      </contour>
      <contour>
        <pt x="171" y="344" on="1"/>
        <pt x="385" y="344" on="1"/>
        <pt x="385" y="423" on="0"/>
        <pt x="339" y="475" on="0"/>
        <pt x="230" y="475" on="0"/>
        <pt x="171" y="421" on="0"/>
      </contour>
      <contour>
        <pt x="428" y="782" on="1"/>
        <pt x="354" y="676" on="1"/>
        <pt x="320" y="628" on="0"/>
        <pt x="277" y="628" on="1"/>
        <pt x="249" y="628" on="0"/>
        <pt x="249" y="654" on="1"/>
        <pt x="249" y="664" on="0"/>
        <pt x="253" y="676" on="1"/>
        <pt x="291" y="782" on="1"/>
      </contour>
    </TTGlyph>
    <TTGlyph name="ecircumflex" xMin="39" yMin="-14" xMax="503" yMax="783">
      <contour>
        <pt x="501" y="255" on="1"/>
        <pt x="171" y="255" on="1"/>
        <pt x="171" y="168" on="0"/>
        <pt x="217" y="95" on="0"/>
        <pt x="291" y="95" on="1"/>
        <pt x="343" y="95" on="0"/>
        <pt x="385" y="146" on="0"/>
        <pt x="385" y="199" on="1"/>
        <pt x="502" y="199" on="1"/>
        <pt x="502" y="86" on="0"/>
        <pt x="390" y="-13" on="0"/>
        <pt x="294" y="-13" on="1"/>
        <pt x="200" y="-13" on="0"/>
        <pt x="93" y="42" on="0"/>
        <pt x="39" y="181" on="0"/>
        <pt x="39" y="447" on="0"/>
        <pt x="161" y="578" on="0"/>
        <pt x="286" y="578" on="1"/>
        <pt x="503" y="578" on="0"/>
        <pt x="503" y="337" on="1"/>
        <pt x="503" y="311" on="0"/>
      </contour>
      <contour>
        <pt x="171" y="344" on="1"/>
        <pt x="385" y="344" on="1"/>
        <pt x="385" y="423" on="0"/>
        <pt x="339" y="475" on="0"/>
        <pt x="230" y="475" on="0"/>
        <pt x="171" y="421" on="0"/>
      </contour>
      <contour>
        <pt x="277" y="718" on="1"/>
        <pt x="232" y="662" on="1"/>
        <pt x="193" y="614" on="0"/>
        <pt x="155" y="614" on="1"/>
        <pt x="142" y="614" on="0"/>
        <pt x="126" y="632" on="0"/>
        <pt x="126" y="654" on="0"/>
        <pt x="131" y="662" on="1"/>
        <pt x="225" y="783" on="1"/>
        <pt x="329" y="783" on="1"/>
        <pt x="423" y="662" on="1"/>
        <pt x="428" y="654" on="0"/>
        <pt x="428" y="633" on="0"/>
        <pt x="411" y="614" on="0"/>
        <pt x="399" y="614" on="1"/>
        <pt x="361" y="614" on="0"/>
        <pt x="322" y="662" on="1"/>
      </contour>
    </TTGlyph>
    <TTGlyph name="edieresis" xMin="39" yMin="-14" xMax="503" yMax="761">
      <contour>
        <pt x="501" y="255" on="1"/>
        <pt x="171" y="255" on="1"/>
        <pt x="171" y="168" on="0"/>
        <pt x="217" y="95" on="0"/>
        <pt x="291" y="95" on="1"/>
        <pt x="343" y="95" on="0"/>
        <pt x="385" y="146" on="0"/>
        <pt x="385" y="199" on="1"/>
        <pt x="502" y="199" on="1"/>
        <pt x="502" y="86" on="0"/>
        <pt x="390" y="-13" on="0"/>
        <pt x="294" y="-13" on="1"/>
        <pt x="200" y="-13" on="0"/>
        <pt x="93" y="42" on="0"/>
        <pt x="39" y="181" on="0"/>
        <pt x="39" y="447" on="0"/>
        <pt x="161" y="578" on="0"/>
        <pt x="286" y="578" on="1"/>
        <pt x="503" y="578" on="0"/>
        <pt x="503" y="337" on="1"/>
        <pt x="503" y="311" on="0"/>
      </contour>
      <contour>
        <pt x="171" y="344" on="1"/>
        <pt x="385" y="344" on="1"/>
        <pt x="385" y="423" on="0"/>
        <pt x="339" y="475" on="0"/>
        <pt x="230" y="475" on="0"/>
        <pt x="171" y="421" on="0"/>
      </contour>
      <contour>
        <pt x="457" y="733" on="0"/>
        <pt x="457" y="655" on="0"/>
        <pt x="422" y="627" on="0"/>
        <pt x="358" y="627" on="0"/>
        <pt x="323" y="655" on="0"/>
        <pt x="323" y="733" on="0"/>
        <pt x="358" y="761" on="0"/>
        <pt x="422" y="761" on="0"/>
      </contour>
      <contour>
        <pt x="231" y="733" on="0"/>
        <pt x="231" y="655" on="0"/>
        <pt x="196" y="627" on="0"/>
        <pt x="132" y="627" on="0"/>
        <pt x="97" y="655" on="0"/>
        <pt x="97" y="733" on="0"/>
        <pt x="132" y="761" on="0"/>
        <pt x="196" y="761" on="0"/>
      </contour>
    </TTGlyph>
    <TTGlyph name="egrave" xMin="39" yMin="-14" xMax="503" yMax="782">
      <contour>
        <pt x="501" y="255" on="1"/>
        <pt x="171" y="255" on="1"/>
        <pt x="171" y="168" on="0"/>
        <pt x="217" y="95" on="0"/>
        <pt x="291" y="95" on="1"/>
        <pt x="343" y="95" on="0"/>
        <pt x="385" y="146" on="0"/>
        <pt x="385" y="199" on="1"/>
        <pt x="502" y="199" on="1"/>
        <pt x="502" y="86" on="0"/>
        <pt x="390" y="-13" on="0"/>
        <pt x="294" y="-13" on="1"/>
        <pt x="200" y="-13" on="0"/>
        <pt x="93" y="42" on="0"/>
        <pt x="39" y="181" on="0"/>
        <pt x="39" y="447" on="0"/>
        <pt x="161" y="578" on="0"/>
        <pt x="286" y="578" on="1"/>
        <pt x="503" y="578" on="0"/>
        <pt x="503" y="337" on="1"/>
        <pt x="503" y="311" on="0"/>
      </contour>
      <contour>
        <pt x="171" y="344" on="1"/>
        <pt x="385" y="344" on="1"/>
        <pt x="385" y="423" on="0"/>
        <pt x="339" y="475" on="0"/>
        <pt x="230" y="475" on="0"/>
        <pt x="171" y="421" on="0"/>
      </contour>
      <contour>
        <pt x="203" y="676" on="1"/>
        <pt x="129" y="782" on="1"/>
        <pt x="266" y="782" on="1"/>
        <pt x="304" y="676" on="1"/>
        <pt x="308" y="664" on="0"/>
        <pt x="308" y="654" on="1"/>
        <pt x="308" y="628" on="0"/>
        <pt x="280" y="628" on="1"/>
        <pt x="237" y="628" on="0"/>
      </contour>
    </TTGlyph>
    <TTGlyph name="eight" xMin="52" yMin="-6" xMax="508" yMax="718">
      <contour>
        <pt x="52" y="197" on="1"/>
        <pt x="52" y="238" on="0"/>
        <pt x="90" y="340" on="0"/>
        <pt x="115" y="377" on="1"/>
        <pt x="62" y="428" on="0"/>
        <pt x="62" y="522" on="1"/>
        <pt x="62" y="718" on="0"/>
        <pt x="280" y="718" on="1"/>
        <pt x="388" y="718" on="0"/>
        <pt x="508" y="622" on="0"/>
        <pt x="508" y="420" on="0"/>
        <pt x="437" y="336" on="1"/>
        <pt x="508" y="288" on="0"/>
        <pt x="508" y="197" on="1"/>
        <pt x="508" y="84" on="0"/>
        <pt x="396" y="-6" on="0"/>
        <pt x="169" y="-6" on="0"/>
        <pt x="52" y="97" on="0"/>
      </contour>
      <contour>
        <pt x="195" y="510" on="1"/>
        <pt x="195" y="477" on="0"/>
        <pt x="260" y="421" on="0"/>
        <pt x="341" y="383" on="1"/>
        <pt x="384" y="437" on="0"/>
        <pt x="384" y="506" on="1"/>
        <pt x="384" y="548" on="0"/>
        <pt x="334" y="599" on="0"/>
        <pt x="283" y="599" on="1"/>
        <pt x="195" y="599" on="0"/>
      </contour>
      <contour>
        <pt x="182" y="159" on="0"/>
        <pt x="233" y="117" on="0"/>
        <pt x="334" y="117" on="0"/>
        <pt x="378" y="155" on="0"/>
        <pt x="378" y="195" on="1"/>
        <pt x="378" y="223" on="0"/>
        <pt x="300" y="291" on="0"/>
        <pt x="218" y="325" on="1"/>
        <pt x="182" y="270" on="0"/>
        <pt x="182" y="193" on="1"/>
      </contour>
    </TTGlyph>
    <TTGlyph name="ellipsis" xMin="63" yMin="-13" xMax="744" yMax="150">
      <contour>
        <pt x="226" y="119" on="0"/>
        <pt x="226" y="19" on="0"/>
        <pt x="195" y="-13" on="0"/>
        <pt x="95" y="-13" on="0"/>
        <pt x="63" y="19" on="0"/>
        <pt x="63" y="119" on="0"/>
        <pt x="95" y="150" on="0"/>
        <pt x="195" y="150" on="0"/>
      </contour>
      <contour>
        <pt x="486" y="119" on="0"/>
        <pt x="486" y="19" on="0"/>
        <pt x="455" y="-13" on="0"/>
        <pt x="355" y="-13" on="0"/>
        <pt x="323" y="19" on="0"/>
        <pt x="323" y="119" on="0"/>
        <pt x="355" y="150" on="0"/>
        <pt x="455" y="150" on="0"/>
      </contour>
      <contour>
        <pt x="744" y="119" on="0"/>
        <pt x="744" y="19" on="0"/>
        <pt x="713" y="-13" on="0"/>
        <pt x="613" y="-13" on="0"/>
        <pt x="581" y="19" on="0"/>
        <pt x="581" y="119" on="0"/>
        <pt x="613" y="150" on="0"/>
        <pt x="713" y="150" on="0"/>
      </contour>
    </TTGlyph>
    <TTGlyph name="emdash" xMin="59" yMin="226" xMax="968" yMax="351">
      <contour>
        <pt x="968" y="226" on="1"/>
        <pt x="59" y="226" on="1"/>
        <pt x="59" y="351" on="1"/>
        <pt x="968" y="351" on="1"/>
      </contour>
    </TTGlyph>
    <TTGlyph name="endash" xMin="50" yMin="225" xMax="493" yMax="346">
      <contour>
        <pt x="493" y="225" on="1"/>
        <pt x="50" y="225" on="1"/>
        <pt x="50" y="346" on="1"/>
        <pt x="493" y="346" on="1"/>
      </contour>
    </TTGlyph>
    <TTGlyph name="equal" xMin="50" yMin="116" xMax="493" yMax="455">
      <contour>
        <pt x="493" y="333" on="1"/>
        <pt x="50" y="333" on="1"/>
        <pt x="50" y="455" on="1"/>
        <pt x="493" y="455" on="1"/>
      </contour>
      <contour>
        <pt x="493" y="116" on="1"/>
        <pt x="50" y="116" on="1"/>
        <pt x="50" y="238" on="1"/>
        <pt x="493" y="238" on="1"/>
      </contour>
    </TTGlyph>
    <TTGlyph name="estimated" xMin="90" yMin="-21" xMax="917" yMax="723">
      <contour>
        <pt x="917" y="341" on="1"/>
        <pt x="247" y="341" on="1"/>
        <pt x="241" y="341" on="0"/>
        <pt x="241" y="336" on="1"/>
        <pt x="241" y="134" on="1"/>
        <pt x="241" y="118" on="0"/>
        <pt x="251" y="111" on="1"/>
        <pt x="359" y="0" on="0"/>
        <pt x="504" y="0" on="1"/>
        <pt x="582" y="0" on="0"/>
        <pt x="720" y="66" on="0"/>
        <pt x="770" y="123" on="1"/>
        <pt x="831" y="123" on="1"/>
        <pt x="774" y="56" on="0"/>
        <pt x="601" y="-21" on="0"/>
        <pt x="503" y="-21" on="1"/>
        <pt x="331" y="-21" on="0"/>
        <pt x="90" y="196" on="0"/>
        <pt x="90" y="505" on="0"/>
        <pt x="331" y="723" on="0"/>
        <pt x="674" y="723" on="0"/>
        <pt x="917" y="505" on="0"/>
        <pt x="917" y="351" on="1"/>
      </contour>
      <contour>
        <pt x="765" y="367" on="1"/>
        <pt x="765" y="572" on="1"/>
        <pt x="765" y="584" on="0"/>
        <pt x="755" y="596" on="1"/>
        <pt x="647" y="702" on="0"/>
        <pt x="360" y="702" on="0"/>
        <pt x="252" y="592" on="1"/>
        <pt x="241" y="582" on="0"/>
        <pt x="241" y="567" on="1"/>
        <pt x="241" y="367" on="1"/>
        <pt x="241" y="361" on="0"/>
        <pt x="247" y="361" on="1"/>
        <pt x="760" y="361" on="1"/>
        <pt x="765" y="361" on="0"/>
      </contour>
    </TTGlyph>
    <TTGlyph name="eth" xMin="31" yMin="-6" xMax="500" yMax="752">
      <contour>
        <pt x="358" y="152" on="1"/>
        <pt x="358" y="430" on="1"/>
        <pt x="259" y="430" on="1"/>
        <pt x="161" y="430" on="0"/>
        <pt x="161" y="271" on="1"/>
        <pt x="161" y="189" on="0"/>
        <pt x="202" y="121" on="0"/>
        <pt x="259" y="121" on="1"/>
        <pt x="264" y="122" on="0"/>
        <pt x="290" y="124" on="0"/>
        <pt x="298" y="125" on="0"/>
        <pt x="318" y="129" on="0"/>
        <pt x="327" y="132" on="0"/>
        <pt x="334" y="135" on="1"/>
        <pt x="345" y="139" on="0"/>
      </contour>
      <contour>
        <pt x="249" y="582" on="1"/>
        <pt x="249" y="658" on="1"/>
        <pt x="312" y="679" on="1"/>
        <pt x="298" y="704" on="0"/>
        <pt x="266" y="752" on="1"/>
        <pt x="396" y="752" on="1"/>
        <pt x="419" y="716" on="1"/>
        <pt x="500" y="743" on="1"/>
        <pt x="500" y="667" on="1"/>
        <pt x="451" y="650" on="1"/>
        <pt x="488" y="553" on="0"/>
        <pt x="488" y="430" on="1"/>
        <pt x="488" y="109" on="1"/>
        <pt x="387" y="-6" on="0"/>
        <pt x="259" y="-6" on="1"/>
        <pt x="117" y="-6" on="0"/>
        <pt x="71" y="72" on="1"/>
        <pt x="48" y="112" on="0"/>
        <pt x="31" y="203" on="0"/>
        <pt x="31" y="302" on="0"/>
        <pt x="33" y="347" on="0"/>
        <pt x="41" y="409" on="0"/>
        <pt x="56" y="452" on="0"/>
        <pt x="84" y="499" on="0"/>
        <pt x="104" y="514" on="1"/>
        <pt x="149" y="547" on="0"/>
        <pt x="221" y="547" on="1"/>
        <pt x="358" y="547" on="1"/>
        <pt x="353" y="580" on="0"/>
        <pt x="341" y="613" on="1"/>
      </contour>
    </TTGlyph>
    <TTGlyph name="exclam" xMin="112" yMin="-13" xMax="275" yMax="712">
      <contour>
        <pt x="273" y="712" on="1"/>
        <pt x="243" y="280" on="1"/>
        <pt x="239" y="252" on="0"/>
        <pt x="208" y="221" on="0"/>
        <pt x="170" y="221" on="0"/>
        <pt x="141" y="253" on="0"/>
        <pt x="141" y="280" on="1"/>
        <pt x="112" y="712" on="1"/>
      </contour>
      <contour>
        <pt x="275" y="119" on="0"/>
        <pt x="275" y="19" on="0"/>
        <pt x="244" y="-13" on="0"/>
        <pt x="144" y="-13" on="0"/>
        <pt x="112" y="19" on="0"/>
        <pt x="112" y="119" on="0"/>
        <pt x="144" y="150" on="0"/>
        <pt x="244" y="150" on="0"/>
      </contour>
    </TTGlyph>
    <TTGlyph name="exclamdown" xMin="100" yMin="-170" xMax="264" yMax="554">
      <contour>
        <pt x="234" y="262" on="1"/>
        <pt x="264" y="-170" on="1"/>
        <pt x="103" y="-170" on="1"/>
        <pt x="132" y="262" on="1"/>
        <pt x="132" y="289" on="0"/>
        <pt x="161" y="321" on="0"/>
        <pt x="198" y="321" on="0"/>
        <pt x="230" y="290" on="0"/>
      </contour>
      <contour>
        <pt x="263" y="523" on="0"/>
        <pt x="263" y="423" on="0"/>
        <pt x="232" y="391" on="0"/>
        <pt x="132" y="391" on="0"/>
        <pt x="100" y="423" on="0"/>
        <pt x="100" y="523" on="0"/>
        <pt x="132" y="554" on="0"/>
        <pt x="232" y="554" on="0"/>
      </contour>
    </TTGlyph>
    <TTGlyph name="f" xMin="25" yMin="0" xMax="315" yMax="753">
      <contour>
        <pt x="315" y="450" on="1"/>
        <pt x="209" y="450" on="1"/>
        <pt x="209" y="0" on="1"/>
        <pt x="79" y="0" on="1"/>
        <pt x="79" y="450" on="1"/>
        <pt x="25" y="450" on="1"/>
        <pt x="25" y="549" on="1"/>
        <pt x="79" y="549" on="1"/>
        <pt x="79" y="604" on="1"/>
        <pt x="79" y="665" on="0"/>
        <pt x="157" y="753" on="0"/>
        <pt x="231" y="753" on="1"/>
        <pt x="315" y="753" on="1"/>
        <pt x="315" y="643" on="1"/>
        <pt x="254" y="643" on="1"/>
        <pt x="209" y="643" on="0"/>
        <pt x="209" y="596" on="1"/>
        <pt x="209" y="549" on="1"/>
        <pt x="315" y="549" on="1"/>
      </contour>
    </TTGlyph>
    <TTGlyph name="ff" xMin="25" yMin="0" xMax="637" yMax="753">
      <contour>
        <pt x="637" y="450" on="1"/>
        <pt x="531" y="450" on="1"/>
        <pt x="531" y="0" on="1"/>
        <pt x="401" y="0" on="1"/>
        <pt x="401" y="450" on="1"/>
        <pt x="209" y="450" on="1"/>
        <pt x="209" y="0" on="1"/>
        <pt x="79" y="0" on="1"/>
        <pt x="79" y="450" on="1"/>
        <pt x="25" y="450" on="1"/>
        <pt x="25" y="549" on="1"/>
        <pt x="79" y="549" on="1"/>
        <pt x="79" y="604" on="1"/>
        <pt x="79" y="665" on="0"/>
        <pt x="157" y="753" on="0"/>
        <pt x="231" y="753" on="1"/>
        <pt x="315" y="753" on="1"/>
        <pt x="315" y="643" on="1"/>
        <pt x="254" y="643" on="1"/>
        <pt x="209" y="643" on="0"/>
        <pt x="209" y="596" on="1"/>
        <pt x="209" y="549" on="1"/>
        <pt x="401" y="549" on="1"/>
        <pt x="401" y="604" on="1"/>
        <pt x="401" y="665" on="0"/>
        <pt x="479" y="753" on="0"/>
        <pt x="553" y="753" on="1"/>
        <pt x="637" y="753" on="1"/>
        <pt x="637" y="643" on="1"/>
        <pt x="576" y="643" on="1"/>
        <pt x="531" y="643" on="0"/>
        <pt x="531" y="596" on="1"/>
        <pt x="531" y="549" on="1"/>
        <pt x="637" y="549" on="1"/>
      </contour>
    </TTGlyph>
    <TTGlyph name="ffi" xMin="25" yMin="0" xMax="860" yMax="787">
      <contour>
        <pt x="832" y="787" on="0"/>
        <pt x="860" y="758" on="0"/>
        <pt x="860" y="665" on="0"/>
        <pt x="831" y="636" on="0"/>
        <pt x="738" y="636" on="0"/>
        <pt x="709" y="666" on="0"/>
        <pt x="709" y="758" on="0"/>
        <pt x="738" y="787" on="0"/>
      </contour>
      <contour>
        <pt x="848" y="0" on="1"/>
        <pt x="718" y="0" on="1"/>
        <pt x="718" y="450" on="1"/>
        <pt x="528" y="450" on="1"/>
        <pt x="528" y="0" on="1"/>
        <pt x="398" y="0" on="1"/>
        <pt x="398" y="450" on="1"/>
        <pt x="209" y="450" on="1"/>
        <pt x="209" y="0" on="1"/>
        <pt x="79" y="0" on="1"/>
        <pt x="79" y="450" on="1"/>
        <pt x="25" y="450" on="1"/>
        <pt x="25" y="549" on="1"/>
        <pt x="79" y="549" on="1"/>
        <pt x="79" y="604" on="1"/>
        <pt x="79" y="665" on="0"/>
        <pt x="157" y="753" on="0"/>
        <pt x="231" y="753" on="1"/>
        <pt x="315" y="753" on="1"/>
        <pt x="315" y="643" on="1"/>
        <pt x="254" y="643" on="1"/>
        <pt x="209" y="643" on="0"/>
        <pt x="209" y="596" on="1"/>
        <pt x="209" y="549" on="1"/>
        <pt x="398" y="549" on="1"/>
        <pt x="398" y="604" on="1"/>
        <pt x="398" y="665" on="0"/>
        <pt x="476" y="753" on="0"/>
        <pt x="550" y="753" on="1"/>
        <pt x="634" y="753" on="1"/>
        <pt x="634" y="643" on="1"/>
        <pt x="573" y="643" on="1"/>
        <pt x="528" y="643" on="0"/>
        <pt x="528" y="596" on="1"/>
        <pt x="528" y="549" on="1"/>
        <pt x="848" y="549" on="1"/>
      </contour>
    </TTGlyph>
    <TTGlyph name="ffl" xMin="25" yMin="-1" xMax="847" yMax="753">
      <contour>
        <pt x="847" y="0" on="1"/>
        <pt x="717" y="-1" on="1"/>
        <pt x="717" y="643" on="1"/>
        <pt x="572" y="643" on="1"/>
        <pt x="527" y="643" on="0"/>
        <pt x="527" y="596" on="1"/>
        <pt x="527" y="549" on="1"/>
        <pt x="633" y="549" on="1"/>
        <pt x="633" y="450" on="1"/>
        <pt x="527" y="450" on="1"/>
        <pt x="527" y="0" on="1"/>
        <pt x="397" y="0" on="1"/>
        <pt x="397" y="450" on="1"/>
        <pt x="209" y="450" on="1"/>
        <pt x="209" y="0" on="1"/>
        <pt x="79" y="0" on="1"/>
        <pt x="79" y="450" on="1"/>
        <pt x="25" y="450" on="1"/>
        <pt x="25" y="549" on="1"/>
        <pt x="79" y="549" on="1"/>
        <pt x="79" y="604" on="1"/>
        <pt x="79" y="665" on="0"/>
        <pt x="157" y="753" on="0"/>
        <pt x="231" y="753" on="1"/>
        <pt x="315" y="753" on="1"/>
        <pt x="315" y="643" on="1"/>
        <pt x="254" y="643" on="1"/>
        <pt x="209" y="643" on="0"/>
        <pt x="209" y="596" on="1"/>
        <pt x="209" y="549" on="1"/>
        <pt x="397" y="549" on="1"/>
        <pt x="397" y="604" on="1"/>
        <pt x="397" y="665" on="0"/>
        <pt x="475" y="752" on="0"/>
        <pt x="549" y="752" on="1"/>
        <pt x="847" y="752" on="1"/>
      </contour>
    </TTGlyph>
    <TTGlyph name="fi" xMin="25" yMin="0" xMax="541" yMax="787">
      <contour>
        <pt x="529" y="0" on="1"/>
        <pt x="399" y="0" on="1"/>
        <pt x="399" y="450" on="1"/>
        <pt x="209" y="450" on="1"/>
        <pt x="209" y="0" on="1"/>
        <pt x="79" y="0" on="1"/>
        <pt x="79" y="450" on="1"/>
        <pt x="25" y="450" on="1"/>
        <pt x="25" y="549" on="1"/>
        <pt x="79" y="549" on="1"/>
        <pt x="79" y="604" on="1"/>
        <pt x="79" y="665" on="0"/>
        <pt x="157" y="753" on="0"/>
        <pt x="231" y="753" on="1"/>
        <pt x="315" y="753" on="1"/>
        <pt x="315" y="643" on="1"/>
        <pt x="254" y="643" on="1"/>
        <pt x="209" y="643" on="0"/>
        <pt x="209" y="596" on="1"/>
        <pt x="209" y="549" on="1"/>
        <pt x="529" y="549" on="1"/>
      </contour>
      <contour>
        <pt x="512" y="787" on="0"/>
        <pt x="541" y="758" on="0"/>
        <pt x="541" y="665" on="0"/>
        <pt x="512" y="636" on="0"/>
        <pt x="420" y="636" on="0"/>
        <pt x="390" y="666" on="0"/>
        <pt x="390" y="758" on="0"/>
        <pt x="419" y="787" on="0"/>
      </contour>
    </TTGlyph>
    <TTGlyph name="five" xMin="36" yMin="-6" xMax="474" yMax="700">
      <contour>
        <pt x="77" y="700" on="1"/>
        <pt x="454" y="700" on="1"/>
        <pt x="454" y="589" on="1"/>
        <pt x="205" y="589" on="1"/>
        <pt x="205" y="477" on="1"/>
        <pt x="359" y="477" on="0"/>
        <pt x="474" y="351" on="0"/>
        <pt x="474" y="230" on="1"/>
        <pt x="474" y="-6" on="0"/>
        <pt x="246" y="-6" on="1"/>
        <pt x="141" y="-6" on="0"/>
        <pt x="36" y="104" on="0"/>
        <pt x="36" y="196" on="1"/>
        <pt x="163" y="196" on="1"/>
        <pt x="163" y="179" on="0"/>
        <pt x="172" y="146" on="0"/>
        <pt x="210" y="113" on="0"/>
        <pt x="242" y="113" on="1"/>
        <pt x="295" y="113" on="0"/>
        <pt x="344" y="172" on="0"/>
        <pt x="344" y="252" on="0"/>
        <pt x="333" y="298" on="0"/>
        <pt x="315" y="322" on="1"/>
        <pt x="279" y="372" on="0"/>
        <pt x="154" y="372" on="1"/>
        <pt x="77" y="372" on="1"/>
      </contour>
    </TTGlyph>
    <TTGlyph name="fj" xMin="25" yMin="-170" xMax="541" yMax="787">
      <contour>
        <pt x="512" y="787" on="0"/>
        <pt x="541" y="758" on="0"/>
        <pt x="541" y="665" on="0"/>
        <pt x="512" y="636" on="0"/>
        <pt x="420" y="636" on="0"/>
        <pt x="390" y="666" on="0"/>
        <pt x="390" y="758" on="0"/>
        <pt x="419" y="787" on="0"/>
      </contour>
      <contour>
        <pt x="529" y="549" on="1"/>
        <pt x="529" y="-21" on="1"/>
        <pt x="529" y="-82" on="0"/>
        <pt x="452" y="-170" on="0"/>
        <pt x="377" y="-170" on="1"/>
        <pt x="303" y="-170" on="1"/>
        <pt x="303" y="-60" on="1"/>
        <pt x="353" y="-60" on="1"/>
        <pt x="399" y="-60" on="0"/>
        <pt x="399" y="-13" on="1"/>
        <pt x="399" y="450" on="1"/>
        <pt x="209" y="450" on="1"/>
        <pt x="209" y="0" on="1"/>
        <pt x="79" y="0" on="1"/>
        <pt x="79" y="450" on="1"/>
        <pt x="25" y="450" on="1"/>
        <pt x="25" y="549" on="1"/>
        <pt x="79" y="549" on="1"/>
        <pt x="79" y="604" on="1"/>
        <pt x="79" y="665" on="0"/>
        <pt x="157" y="753" on="0"/>
        <pt x="231" y="753" on="1"/>
        <pt x="315" y="753" on="1"/>
        <pt x="315" y="643" on="1"/>
        <pt x="254" y="643" on="1"/>
        <pt x="209" y="643" on="0"/>
        <pt x="209" y="596" on="1"/>
        <pt x="209" y="549" on="1"/>
      </contour>
    </TTGlyph>
    <TTGlyph name="fl" xMin="25" yMin="0" xMax="529" yMax="752">
      <contour>
        <pt x="529" y="0" on="1"/>
        <pt x="399" y="0" on="1"/>
        <pt x="399" y="643" on="1"/>
        <pt x="254" y="643" on="1"/>
        <pt x="209" y="643" on="0"/>
        <pt x="209" y="596" on="1"/>
        <pt x="209" y="549" on="1"/>
        <pt x="315" y="549" on="1"/>
        <pt x="315" y="450" on="1"/>
        <pt x="209" y="450" on="1"/>
        <pt x="209" y="0" on="1"/>
        <pt x="79" y="0" on="1"/>
        <pt x="79" y="450" on="1"/>
        <pt x="25" y="450" on="1"/>
        <pt x="25" y="549" on="1"/>
        <pt x="79" y="549" on="1"/>
        <pt x="79" y="604" on="1"/>
        <pt x="79" y="665" on="0"/>
        <pt x="157" y="752" on="0"/>
        <pt x="231" y="752" on="1"/>
        <pt x="529" y="752" on="1"/>
      </contour>
    </TTGlyph>
    <TTGlyph name="florin" xMin="4" yMin="-169" xMax="386" yMax="753">
      <contour>
        <pt x="335" y="417" on="1"/>
        <pt x="229" y="417" on="1"/>
        <pt x="133" y="-169" on="1"/>
        <pt x="4" y="-169" on="1"/>
        <pt x="99" y="417" on="1"/>
        <pt x="9" y="417" on="1"/>
        <pt x="24" y="516" on="1"/>
        <pt x="114" y="516" on="1"/>
        <pt x="128" y="604" on="1"/>
        <pt x="138" y="666" on="0"/>
        <pt x="228" y="753" on="0"/>
        <pt x="302" y="753" on="1"/>
        <pt x="386" y="753" on="1"/>
        <pt x="368" y="643" on="1"/>
        <pt x="307" y="643" on="1"/>
        <pt x="265" y="643" on="0"/>
        <pt x="257" y="596" on="1"/>
        <pt x="244" y="516" on="1"/>
        <pt x="350" y="516" on="1"/>
      </contour>
    </TTGlyph>
    <TTGlyph name="foundryicon" xMin="40" yMin="23" xMax="1201" yMax="569">
      <contour>
        <pt x="186" y="157" on="1"/>
        <pt x="40" y="300" on="1"/>
        <pt x="186" y="441" on="1"/>
        <pt x="226" y="409" on="1"/>
        <pt x="138" y="325" on="1"/>
        <pt x="386" y="325" on="1"/>
        <pt x="380" y="355" on="0"/>
        <pt x="380" y="387" on="1"/>
        <pt x="380" y="469" on="0"/>
        <pt x="465" y="569" on="0"/>
        <pt x="535" y="569" on="1"/>
        <pt x="584" y="569" on="0"/>
        <pt x="643" y="536" on="0"/>
        <pt x="668" y="501" on="1"/>
        <pt x="714" y="569" on="0"/>
        <pt x="804" y="569" on="1"/>
        <pt x="875" y="569" on="0"/>
        <pt x="957" y="469" on="0"/>
        <pt x="957" y="387" on="1"/>
        <pt x="957" y="360" on="0"/>
        <pt x="950" y="325" on="1"/>
        <pt x="1151" y="325" on="1"/>
        <pt x="1151" y="441" on="1"/>
        <pt x="1201" y="441" on="1"/>
        <pt x="1201" y="157" on="1"/>
        <pt x="1151" y="157" on="1"/>
        <pt x="1151" y="273" on="1"/>
        <pt x="935" y="273" on="1"/>
        <pt x="895" y="171" on="0"/>
        <pt x="713" y="23" on="0"/>
        <pt x="618" y="23" on="0"/>
        <pt x="440" y="170" on="0"/>
        <pt x="401" y="273" on="1"/>
        <pt x="139" y="273" on="1"/>
        <pt x="226" y="188" on="1"/>
      </contour>
      <contour>
        <pt x="668" y="73" on="1"/>
        <pt x="695" y="77" on="0"/>
        <pt x="773" y="130" on="0"/>
        <pt x="850" y="210" on="0"/>
        <pt x="905" y="323" on="0"/>
        <pt x="905" y="444" on="0"/>
        <pt x="845" y="521" on="0"/>
        <pt x="790" y="521" on="1"/>
        <pt x="707" y="521" on="0"/>
        <pt x="676" y="437" on="1"/>
        <pt x="660" y="437" on="1"/>
        <pt x="629" y="521" on="0"/>
        <pt x="546" y="521" on="1"/>
        <pt x="492" y="521" on="0"/>
        <pt x="432" y="443" on="0"/>
        <pt x="432" y="376" on="1"/>
        <pt x="432" y="352" on="0"/>
        <pt x="437" y="325" on="1"/>
        <pt x="635" y="325" on="1"/>
        <pt x="635" y="273" on="1"/>
        <pt x="455" y="273" on="1"/>
        <pt x="488" y="196" on="0"/>
        <pt x="621" y="80" on="0"/>
      </contour>
    </TTGlyph>
    <TTGlyph name="four" xMin="37" yMin="0" xMax="550" yMax="712">
      <contour>
        <pt x="550" y="153" on="1"/>
        <pt x="470" y="153" on="1"/>
        <pt x="470" y="0" on="1"/>
        <pt x="346" y="0" on="1"/>
        <pt x="346" y="153" on="1"/>
        <pt x="139" y="153" on="1"/>
        <pt x="88" y="153" on="0"/>
        <pt x="37" y="196" on="0"/>
        <pt x="37" y="234" on="1"/>
        <pt x="37" y="254" on="0"/>
        <pt x="71" y="356" on="0"/>
        <pt x="149" y="567" on="1"/>
        <pt x="288" y="567" on="1"/>
        <pt x="179" y="276" on="1"/>
        <pt x="346" y="276" on="1"/>
        <pt x="346" y="712" on="1"/>
        <pt x="470" y="712" on="1"/>
        <pt x="470" y="276" on="1"/>
        <pt x="550" y="276" on="1"/>
      </contour>
    </TTGlyph>
    <TTGlyph name="fraction" xMin="-115" yMin="0" xMax="323" yMax="712">
      <contour>
        <pt x="323" y="712" on="1"/>
        <pt x="-14" y="0" on="1"/>
        <pt x="-115" y="0" on="1"/>
        <pt x="222" y="712" on="1"/>
      </contour>
    </TTGlyph>
    <TTGlyph name="g" xMin="26" yMin="-170" xMax="483" yMax="575">
      <contour>
        <pt x="353" y="567" on="1"/>
        <pt x="483" y="575" on="1"/>
        <pt x="483" y="26" on="1"/>
        <pt x="483" y="-69" on="0"/>
        <pt x="376" y="-170" on="0"/>
        <pt x="271" y="-170" on="1"/>
        <pt x="190" y="-170" on="0"/>
        <pt x="129" y="-138" on="1"/>
        <pt x="97" y="-122" on="0"/>
        <pt x="59" y="-58" on="0"/>
        <pt x="59" y="-14" on="1"/>
        <pt x="180" y="-8" on="1"/>
        <pt x="180" y="-36" on="0"/>
        <pt x="220" y="-60" on="0"/>
        <pt x="317" y="-60" on="0"/>
        <pt x="352" y="-12" on="0"/>
        <pt x="352" y="33" on="1"/>
        <pt x="357" y="119" on="1"/>
        <pt x="217" y="44" on="1"/>
        <pt x="102" y="44" on="0"/>
        <pt x="62" y="122" on="1"/>
        <pt x="26" y="191" on="0"/>
        <pt x="26" y="291" on="1"/>
        <pt x="26" y="410" on="0"/>
        <pt x="44" y="459" on="1"/>
        <pt x="63" y="513" on="0"/>
        <pt x="98" y="537" on="1"/>
        <pt x="143" y="567" on="0"/>
        <pt x="216" y="567" on="1"/>
      </contour>
      <contour>
        <pt x="353" y="232" on="1"/>
        <pt x="353" y="450" on="1"/>
        <pt x="254" y="450" on="1"/>
        <pt x="198" y="450" on="0"/>
        <pt x="156" y="374" on="0"/>
        <pt x="156" y="238" on="0"/>
        <pt x="199" y="181" on="0"/>
        <pt x="254" y="181" on="1"/>
      </contour>
    </TTGlyph>
    <TTGlyph name="germandbls" xMin="73" yMin="-10" xMax="546" yMax="718">
      <contour>
        <pt x="546" y="217" on="1"/>
        <pt x="546" y="-10" on="0"/>
        <pt x="349" y="-10" on="1"/>
        <pt x="297" y="-10" on="1"/>
        <pt x="297" y="100" on="1"/>
        <pt x="323" y="100" on="1"/>
        <pt x="364" y="100" on="0"/>
        <pt x="415" y="161" on="0"/>
        <pt x="415" y="277" on="0"/>
        <pt x="343" y="343" on="0"/>
        <pt x="295" y="343" on="1"/>
        <pt x="295" y="445" on="1"/>
        <pt x="319" y="445" on="0"/>
        <pt x="355" y="497" on="0"/>
        <pt x="355" y="565" on="0"/>
        <pt x="318" y="605" on="0"/>
        <pt x="237" y="605" on="0"/>
        <pt x="203" y="551" on="0"/>
        <pt x="203" y="501" on="1"/>
        <pt x="203" y="0" on="1"/>
        <pt x="73" y="0" on="1"/>
        <pt x="73" y="511" on="1"/>
        <pt x="73" y="718" on="0"/>
        <pt x="285" y="718" on="1"/>
        <pt x="485" y="718" on="0"/>
        <pt x="485" y="533" on="1"/>
        <pt x="485" y="490" on="0"/>
        <pt x="449" y="421" on="0"/>
        <pt x="424" y="406" on="1"/>
        <pt x="546" y="343" on="0"/>
      </contour>
    </TTGlyph>
    <TTGlyph name="grave" xMin="102" yMin="628" xMax="281" yMax="782">
      <contour>
        <pt x="176" y="676" on="1"/>
        <pt x="102" y="782" on="1"/>
        <pt x="239" y="782" on="1"/>
        <pt x="277" y="676" on="1"/>
        <pt x="281" y="664" on="0"/>
        <pt x="281" y="654" on="1"/>
        <pt x="281" y="628" on="0"/>
        <pt x="253" y="628" on="1"/>
        <pt x="210" y="628" on="0"/>
      </contour>
    </TTGlyph>
    <TTGlyph name="greater" xMin="56" yMin="40" xMax="441" yMax="523">
      <contour>
        <pt x="56" y="40" on="1"/>
        <pt x="56" y="170" on="1"/>
        <pt x="308" y="281" on="1"/>
        <pt x="56" y="393" on="1"/>
        <pt x="56" y="523" on="1"/>
        <pt x="441" y="335" on="1"/>
        <pt x="441" y="229" on="1"/>
      </contour>
    </TTGlyph>
    <TTGlyph name="greaterequal" xMin="50" yMin="0" xMax="493" yMax="620">
      <contour>
        <pt x="98" y="157" on="1"/>
        <pt x="98" y="287" on="1"/>
        <pt x="350" y="388" on="1"/>
        <pt x="98" y="490" on="1"/>
        <pt x="98" y="620" on="1"/>
        <pt x="483" y="442" on="1"/>
        <pt x="483" y="336" on="1"/>
      </contour>
      <contour>
        <pt x="493" y="0" on="1"/>
        <pt x="50" y="0" on="1"/>
        <pt x="50" y="122" on="1"/>
        <pt x="493" y="122" on="1"/>
      </contour>
    </TTGlyph>
    <TTGlyph name="guillemotleft" xMin="47" yMin="27" xMax="564" yMax="523">
      <contour>
        <pt x="283" y="27" on="1"/>
        <pt x="89" y="200" on="1"/>
        <pt x="47" y="247" on="0"/>
        <pt x="47" y="308" on="0"/>
        <pt x="91" y="352" on="1"/>
        <pt x="283" y="523" on="1"/>
        <pt x="283" y="368" on="1"/>
        <pt x="169" y="275" on="1"/>
        <pt x="283" y="182" on="1"/>
      </contour>
      <contour>
        <pt x="564" y="27" on="1"/>
        <pt x="370" y="200" on="1"/>
        <pt x="328" y="247" on="0"/>
        <pt x="328" y="308" on="0"/>
        <pt x="372" y="352" on="1"/>
        <pt x="564" y="523" on="1"/>
        <pt x="564" y="368" on="1"/>
        <pt x="450" y="275" on="1"/>
        <pt x="564" y="182" on="1"/>
      </contour>
    </TTGlyph>
    <TTGlyph name="guillemotright" xMin="66" yMin="27" xMax="583" yMax="523">
      <contour>
        <pt x="347" y="523" on="1"/>
        <pt x="541" y="350" on="1"/>
        <pt x="583" y="303" on="0"/>
        <pt x="583" y="242" on="0"/>
        <pt x="539" y="198" on="1"/>
        <pt x="347" y="27" on="1"/>
        <pt x="347" y="182" on="1"/>
        <pt x="461" y="275" on="1"/>
        <pt x="347" y="368" on="1"/>
      </contour>
      <contour>
        <pt x="66" y="523" on="1"/>
        <pt x="260" y="350" on="1"/>
        <pt x="302" y="303" on="0"/>
        <pt x="302" y="242" on="0"/>
        <pt x="258" y="198" on="1"/>
        <pt x="66" y="27" on="1"/>
        <pt x="66" y="182" on="1"/>
        <pt x="180" y="275" on="1"/>
        <pt x="66" y="368" on="1"/>
      </contour>
    </TTGlyph>
    <TTGlyph name="guilsinglleft" xMin="67" yMin="27" xMax="303" yMax="523">
      <contour>
        <pt x="303" y="27" on="1"/>
        <pt x="109" y="200" on="1"/>
        <pt x="67" y="247" on="0"/>
        <pt x="67" y="308" on="0"/>
        <pt x="111" y="352" on="1"/>
        <pt x="303" y="523" on="1"/>
        <pt x="303" y="368" on="1"/>
        <pt x="189" y="275" on="1"/>
        <pt x="303" y="182" on="1"/>
      </contour>
    </TTGlyph>
    <TTGlyph name="guilsinglright" xMin="67" yMin="27" xMax="303" yMax="523">
      <contour>
        <pt x="67" y="523" on="1"/>
        <pt x="261" y="350" on="1"/>
        <pt x="303" y="303" on="0"/>
        <pt x="303" y="242" on="0"/>
        <pt x="259" y="198" on="1"/>
        <pt x="67" y="27" on="1"/>
        <pt x="67" y="182" on="1"/>
        <pt x="181" y="275" on="1"/>
        <pt x="67" y="368" on="1"/>
      </contour>
    </TTGlyph>
    <TTGlyph name="h" xMin="58" yMin="0" xMax="514" yMax="752">
      <contour>
        <pt x="514" y="0" on="1"/>
        <pt x="384" y="0" on="1"/>
        <pt x="384" y="358" on="1"/>
        <pt x="384" y="450" on="0"/>
        <pt x="312" y="450" on="1"/>
        <pt x="188" y="401" on="1"/>
        <pt x="188" y="0" on="1"/>
        <pt x="58" y="0" on="1"/>
        <pt x="58" y="752" on="1"/>
        <pt x="188" y="752" on="1"/>
        <pt x="188" y="503" on="1"/>
        <pt x="353" y="577" on="1"/>
        <pt x="441" y="577" on="0"/>
        <pt x="514" y="477" on="0"/>
        <pt x="514" y="387" on="1"/>
      </contour>
    </TTGlyph>
    <TTGlyph name="hbar" xMin="-1" yMin="0" xMax="532" yMax="752">
      <contour>
        <pt x="295" y="594" on="1"/>
        <pt x="206" y="594" on="1"/>
        <pt x="206" y="503" on="1"/>
        <pt x="371" y="577" on="1"/>
        <pt x="459" y="577" on="0"/>
        <pt x="532" y="477" on="0"/>
        <pt x="532" y="387" on="1"/>
        <pt x="532" y="0" on="1"/>
        <pt x="402" y="0" on="1"/>
        <pt x="402" y="358" on="1"/>
        <pt x="402" y="450" on="0"/>
        <pt x="330" y="450" on="1"/>
        <pt x="206" y="401" on="1"/>
        <pt x="206" y="0" on="1"/>
        <pt x="76" y="0" on="1"/>
        <pt x="76" y="594" on="1"/>
        <pt x="-1" y="594" on="1"/>
        <pt x="-1" y="681" on="1"/>
        <pt x="76" y="681" on="1"/>
        <pt x="76" y="752" on="1"/>
        <pt x="206" y="752" on="1"/>
        <pt x="206" y="681" on="1"/>
        <pt x="295" y="681" on="1"/>
      </contour>
    </TTGlyph>
    <TTGlyph name="hungarumlaut" xMin="81" yMin="628" xMax="468" yMax="782">
      <contour>
        <pt x="260" y="782" on="1"/>
        <pt x="186" y="676" on="1"/>
        <pt x="152" y="628" on="0"/>
        <pt x="109" y="628" on="1"/>
        <pt x="81" y="628" on="0"/>
        <pt x="81" y="654" on="1"/>
        <pt x="81" y="664" on="0"/>
        <pt x="85" y="676" on="1"/>
        <pt x="123" y="782" on="1"/>
      </contour>
      <contour>
        <pt x="468" y="782" on="1"/>
        <pt x="394" y="676" on="1"/>
        <pt x="360" y="628" on="0"/>
        <pt x="317" y="628" on="1"/>
        <pt x="289" y="628" on="0"/>
        <pt x="289" y="654" on="1"/>
        <pt x="289" y="664" on="0"/>
        <pt x="293" y="676" on="1"/>
        <pt x="331" y="782" on="1"/>
      </contour>
    </TTGlyph>
    <TTGlyph name="hyphen" xMin="59" yMin="225" xMax="367" yMax="346">
      <contour>
        <pt x="367" y="225" on="1"/>
        <pt x="59" y="225" on="1"/>
        <pt x="59" y="346" on="1"/>
        <pt x="367" y="346" on="1"/>
      </contour>
    </TTGlyph>
    <TTGlyph name="i" xMin="63" yMin="0" xMax="214" yMax="789">
      <contour>
        <pt x="186" y="789" on="0"/>
        <pt x="214" y="760" on="0"/>
        <pt x="214" y="667" on="0"/>
        <pt x="185" y="638" on="0"/>
        <pt x="92" y="638" on="0"/>
        <pt x="63" y="668" on="0"/>
        <pt x="63" y="760" on="0"/>
        <pt x="92" y="789" on="0"/>
      </contour>
      <contour>
        <pt x="203" y="0" on="1"/>
        <pt x="73" y="0" on="1"/>
        <pt x="73" y="550" on="1"/>
        <pt x="203" y="550" on="1"/>
      </contour>
    </TTGlyph>
    <TTGlyph name="iacute" xMin="73" yMin="0" xMax="265" yMax="782">
      <contour>
        <pt x="203" y="0" on="1"/>
        <pt x="73" y="0" on="1"/>
        <pt x="73" y="521" on="1"/>
        <pt x="203" y="521" on="1"/>
      </contour>
      <contour>
        <pt x="265" y="782" on="1"/>
        <pt x="191" y="676" on="1"/>
        <pt x="157" y="628" on="0"/>
        <pt x="114" y="628" on="1"/>
        <pt x="86" y="628" on="0"/>
        <pt x="86" y="654" on="1"/>
        <pt x="86" y="664" on="0"/>
        <pt x="90" y="676" on="1"/>
        <pt x="128" y="782" on="1"/>
      </contour>
    </TTGlyph>
    <TTGlyph name="icircumflex" xMin="-11" yMin="0" xMax="291" yMax="783">
      <contour>
        <pt x="203" y="0" on="1"/>
        <pt x="73" y="0" on="1"/>
        <pt x="73" y="521" on="1"/>
        <pt x="203" y="521" on="1"/>
      </contour>
      <contour>
        <pt x="140" y="718" on="1"/>
        <pt x="95" y="662" on="1"/>
        <pt x="56" y="614" on="0"/>
        <pt x="18" y="614" on="1"/>
        <pt x="5" y="614" on="0"/>
        <pt x="-11" y="632" on="0"/>
        <pt x="-11" y="654" on="0"/>
        <pt x="-6" y="662" on="1"/>
        <pt x="88" y="783" on="1"/>
        <pt x="192" y="783" on="1"/>
        <pt x="286" y="662" on="1"/>
        <pt x="291" y="654" on="0"/>
        <pt x="291" y="633" on="0"/>
        <pt x="274" y="614" on="0"/>
        <pt x="262" y="614" on="1"/>
        <pt x="224" y="614" on="0"/>
        <pt x="185" y="662" on="1"/>
      </contour>
    </TTGlyph>
    <TTGlyph name="idieresis" xMin="-43" yMin="0" xMax="317" yMax="761">
      <contour>
        <pt x="203" y="0" on="1"/>
        <pt x="73" y="0" on="1"/>
        <pt x="73" y="521" on="1"/>
        <pt x="203" y="521" on="1"/>
      </contour>
      <contour>
        <pt x="317" y="733" on="0"/>
        <pt x="317" y="655" on="0"/>
        <pt x="282" y="627" on="0"/>
        <pt x="218" y="627" on="0"/>
        <pt x="183" y="655" on="0"/>
        <pt x="183" y="733" on="0"/>
        <pt x="218" y="761" on="0"/>
        <pt x="282" y="761" on="0"/>
      </contour>
      <contour>
        <pt x="91" y="733" on="0"/>
        <pt x="91" y="655" on="0"/>
        <pt x="56" y="627" on="0"/>
        <pt x="-8" y="627" on="0"/>
        <pt x="-43" y="655" on="0"/>
        <pt x="-43" y="733" on="0"/>
        <pt x="-8" y="761" on="0"/>
        <pt x="56" y="761" on="0"/>
      </contour>
    </TTGlyph>
    <TTGlyph name="igrave" xMin="17" yMin="0" xMax="203" yMax="782">
      <contour>
        <pt x="203" y="0" on="1"/>
        <pt x="73" y="0" on="1"/>
        <pt x="73" y="521" on="1"/>
        <pt x="203" y="521" on="1"/>
      </contour>
      <contour>
        <pt x="91" y="676" on="1"/>
        <pt x="17" y="782" on="1"/>
        <pt x="154" y="782" on="1"/>
        <pt x="192" y="676" on="1"/>
        <pt x="196" y="664" on="0"/>
        <pt x="196" y="654" on="1"/>
        <pt x="196" y="628" on="0"/>
        <pt x="168" y="628" on="1"/>
        <pt x="125" y="628" on="0"/>
      </contour>
    </TTGlyph>
    <TTGlyph name="ij" xMin="63" yMin="-170" xMax="489" yMax="789">
      <contour>
        <pt x="478" y="550" on="1"/>
        <pt x="478" y="-21" on="1"/>
        <pt x="478" y="-82" on="0"/>
        <pt x="401" y="-170" on="0"/>
        <pt x="326" y="-170" on="1"/>
        <pt x="252" y="-170" on="1"/>
        <pt x="252" y="-60" on="1"/>
        <pt x="302" y="-60" on="1"/>
        <pt x="348" y="-60" on="0"/>
        <pt x="348" y="-13" on="1"/>
        <pt x="348" y="550" on="1"/>
      </contour>
      <contour>
        <pt x="460" y="789" on="0"/>
        <pt x="489" y="760" on="0"/>
        <pt x="489" y="667" on="0"/>
        <pt x="460" y="638" on="0"/>
        <pt x="368" y="638" on="0"/>
        <pt x="338" y="668" on="0"/>
        <pt x="338" y="760" on="0"/>
        <pt x="367" y="789" on="0"/>
      </contour>
      <contour>
        <pt x="186" y="789" on="0"/>
        <pt x="214" y="760" on="0"/>
        <pt x="214" y="667" on="0"/>
        <pt x="185" y="638" on="0"/>
        <pt x="92" y="638" on="0"/>
        <pt x="63" y="668" on="0"/>
        <pt x="63" y="760" on="0"/>
        <pt x="92" y="789" on="0"/>
      </contour>
      <contour>
        <pt x="203" y="0" on="1"/>
        <pt x="73" y="0" on="1"/>
        <pt x="73" y="550" on="1"/>
        <pt x="203" y="550" on="1"/>
      </contour>
    </TTGlyph>
    <TTGlyph name="infinity" xMin="45" yMin="146" xMax="688" yMax="474">
      <contour>
        <pt x="688" y="382" on="0"/>
        <pt x="688" y="236" on="0"/>
        <pt x="610" y="146" on="0"/>
        <pt x="533" y="146" on="1"/>
        <pt x="437" y="146" on="0"/>
        <pt x="366" y="227" on="1"/>
        <pt x="295" y="146" on="0"/>
        <pt x="200" y="146" on="1"/>
        <pt x="123" y="146" on="0"/>
        <pt x="45" y="236" on="0"/>
        <pt x="45" y="382" on="0"/>
        <pt x="123" y="474" on="0"/>
        <pt x="200" y="474" on="1"/>
        <pt x="294" y="474" on="0"/>
        <pt x="366" y="392" on="1"/>
        <pt x="438" y="474" on="0"/>
        <pt x="533" y="474" on="1"/>
        <pt x="610" y="474" on="0"/>
      </contour>
      <contour>
        <pt x="583" y="278" on="0"/>
        <pt x="583" y="340" on="0"/>
        <pt x="553" y="375" on="0"/>
        <pt x="527" y="375" on="1"/>
        <pt x="479" y="375" on="0"/>
        <pt x="425" y="309" on="1"/>
        <pt x="479" y="244" on="0"/>
        <pt x="527" y="244" on="1"/>
        <pt x="553" y="244" on="0"/>
      </contour>
      <contour>
        <pt x="298" y="309" on="1"/>
        <pt x="244" y="376" on="0"/>
        <pt x="196" y="376" on="1"/>
        <pt x="170" y="376" on="0"/>
        <pt x="141" y="340" on="0"/>
        <pt x="141" y="278" on="0"/>
        <pt x="170" y="244" on="0"/>
        <pt x="196" y="244" on="1"/>
        <pt x="244" y="244" on="0"/>
      </contour>
    </TTGlyph>
    <TTGlyph name="integral" xMin="57" yMin="-186" xMax="433" yMax="725">
      <contour>
        <pt x="433" y="615" on="1"/>
        <pt x="384" y="615" on="1"/>
        <pt x="348" y="615" on="0"/>
        <pt x="313" y="588" on="0"/>
        <pt x="313" y="554" on="1"/>
        <pt x="313" y="-15" on="1"/>
        <pt x="313" y="-186" on="0"/>
        <pt x="142" y="-186" on="1"/>
        <pt x="57" y="-186" on="1"/>
        <pt x="57" y="-76" on="1"/>
        <pt x="106" y="-76" on="1"/>
        <pt x="142" y="-76" on="0"/>
        <pt x="177" y="-50" on="0"/>
        <pt x="177" y="-16" on="1"/>
        <pt x="177" y="553" on="1"/>
        <pt x="177" y="725" on="0"/>
        <pt x="348" y="725" on="1"/>
        <pt x="433" y="725" on="1"/>
      </contour>
    </TTGlyph>
    <TTGlyph name="itilde" xMin="-43" yMin="0" xMax="318" yMax="743">
      <contour>
        <pt x="272" y="724" on="1"/>
        <pt x="318" y="674" on="1"/>
        <pt x="259" y="615" on="0"/>
        <pt x="205" y="615" on="1"/>
        <pt x="168" y="615" on="0"/>
        <pt x="97" y="656" on="0"/>
        <pt x="34" y="656" on="0"/>
        <pt x="7" y="632" on="1"/>
        <pt x="-43" y="684" on="1"/>
        <pt x="-10" y="717" on="0"/>
        <pt x="40" y="743" on="0"/>
        <pt x="108" y="743" on="0"/>
        <pt x="179" y="701" on="0"/>
        <pt x="248" y="701" on="0"/>
      </contour>
      <contour>
        <pt x="203" y="0" on="1"/>
        <pt x="73" y="0" on="1"/>
        <pt x="73" y="521" on="1"/>
        <pt x="203" y="521" on="1"/>
      </contour>
    </TTGlyph>
    <TTGlyph name="j" xMin="-23" yMin="-170" xMax="214" yMax="789">
      <contour>
        <pt x="203" y="550" on="1"/>
        <pt x="203" y="-21" on="1"/>
        <pt x="203" y="-82" on="0"/>
        <pt x="126" y="-170" on="0"/>
        <pt x="51" y="-170" on="1"/>
        <pt x="-23" y="-170" on="1"/>
        <pt x="-23" y="-60" on="1"/>
        <pt x="27" y="-60" on="1"/>
        <pt x="73" y="-60" on="0"/>
        <pt x="73" y="-13" on="1"/>
        <pt x="73" y="550" on="1"/>
      </contour>
      <contour>
        <pt x="186" y="789" on="0"/>
        <pt x="214" y="760" on="0"/>
        <pt x="214" y="667" on="0"/>
        <pt x="185" y="638" on="0"/>
        <pt x="92" y="638" on="0"/>
        <pt x="63" y="668" on="0"/>
        <pt x="63" y="760" on="0"/>
        <pt x="92" y="789" on="0"/>
      </contour>
    </TTGlyph>
    <TTGlyph name="jcircumflex" xMin="-23" yMin="-170" xMax="289" yMax="783">
      <contour>
        <pt x="138" y="718" on="1"/>
        <pt x="93" y="662" on="1"/>
        <pt x="54" y="614" on="0"/>
        <pt x="16" y="614" on="1"/>
        <pt x="3" y="614" on="0"/>
        <pt x="-13" y="632" on="0"/>
        <pt x="-13" y="654" on="0"/>
        <pt x="-8" y="662" on="1"/>
        <pt x="86" y="783" on="1"/>
        <pt x="190" y="783" on="1"/>
        <pt x="284" y="662" on="1"/>
        <pt x="289" y="654" on="0"/>
        <pt x="289" y="633" on="0"/>
        <pt x="272" y="614" on="0"/>
        <pt x="260" y="614" on="1"/>
        <pt x="222" y="614" on="0"/>
        <pt x="183" y="662" on="1"/>
      </contour>
      <contour>
        <pt x="203" y="550" on="1"/>
        <pt x="203" y="-21" on="1"/>
        <pt x="203" y="-82" on="0"/>
        <pt x="126" y="-170" on="0"/>
        <pt x="51" y="-170" on="1"/>
        <pt x="-23" y="-170" on="1"/>
        <pt x="-23" y="-60" on="1"/>
        <pt x="27" y="-60" on="1"/>
        <pt x="73" y="-60" on="0"/>
        <pt x="73" y="-13" on="1"/>
        <pt x="73" y="550" on="1"/>
      </contour>
    </TTGlyph>
    <TTGlyph name="k" xMin="71" yMin="0" xMax="564" yMax="752">
      <contour>
        <pt x="564" y="0" on="1"/>
        <pt x="408" y="0" on="1"/>
        <pt x="258" y="202" on="1"/>
        <pt x="201" y="121" on="1"/>
        <pt x="201" y="0" on="1"/>
        <pt x="71" y="0" on="1"/>
        <pt x="71" y="752" on="1"/>
        <pt x="201" y="752" on="1"/>
        <pt x="201" y="277" on="1"/>
        <pt x="383" y="548" on="1"/>
        <pt x="530" y="548" on="1"/>
        <pt x="343" y="292" on="1"/>
      </contour>
    </TTGlyph>
    <TTGlyph name="kcommaaccent" xMin="71" yMin="-327" xMax="564" yMax="752">
      <contour>
        <pt x="356" y="-60" on="1"/>
        <pt x="356" y="-145" on="1"/>
        <pt x="356" y="-204" on="0"/>
        <pt x="271" y="-308" on="0"/>
        <pt x="223" y="-327" on="1"/>
        <pt x="223" y="-60" on="1"/>
      </contour>
      <contour>
        <pt x="564" y="0" on="1"/>
        <pt x="408" y="0" on="1"/>
        <pt x="258" y="202" on="1"/>
        <pt x="201" y="121" on="1"/>
        <pt x="201" y="0" on="1"/>
        <pt x="71" y="0" on="1"/>
        <pt x="71" y="752" on="1"/>
        <pt x="201" y="752" on="1"/>
        <pt x="201" y="277" on="1"/>
        <pt x="383" y="548" on="1"/>
        <pt x="530" y="548" on="1"/>
        <pt x="343" y="292" on="1"/>
      </contour>
    </TTGlyph>
    <TTGlyph name="kgreenlandic" xMin="71" yMin="0" xMax="564" yMax="571">
      <contour>
        <pt x="564" y="0" on="1"/>
        <pt x="408" y="0" on="1"/>
        <pt x="265" y="195" on="1"/>
        <pt x="245" y="173" on="0"/>
        <pt x="235" y="153" on="1"/>
        <pt x="208" y="102" on="0"/>
        <pt x="201" y="82" on="1"/>
        <pt x="201" y="0" on="1"/>
        <pt x="71" y="0" on="1"/>
        <pt x="71" y="571" on="1"/>
        <pt x="201" y="571" on="1"/>
        <pt x="201" y="277" on="1"/>
        <pt x="223" y="335" on="0"/>
        <pt x="330" y="470" on="0"/>
        <pt x="392" y="526" on="1"/>
        <pt x="559" y="526" on="1"/>
        <pt x="499" y="486" on="0"/>
        <pt x="366" y="345" on="0"/>
        <pt x="344" y="301" on="1"/>
      </contour>
    </TTGlyph>
    <TTGlyph name="l" xMin="68" yMin="-1" xMax="198" yMax="752">
      <contour>
        <pt x="198" y="0" on="1"/>
        <pt x="68" y="-1" on="1"/>
        <pt x="68" y="752" on="1"/>
        <pt x="198" y="752" on="1"/>
      </contour>
    </TTGlyph>
    <TTGlyph name="ldot" xMin="68" yMin="-1" xMax="426" yMax="752">
      <contour>
        <pt x="426" y="454" on="0"/>
        <pt x="426" y="354" on="0"/>
        <pt x="395" y="322" on="0"/>
        <pt x="295" y="322" on="0"/>
        <pt x="263" y="354" on="0"/>
        <pt x="263" y="454" on="0"/>
        <pt x="295" y="485" on="0"/>
        <pt x="395" y="485" on="0"/>
      </contour>
      <contour>
        <pt x="198" y="0" on="1"/>
        <pt x="68" y="-1" on="1"/>
        <pt x="68" y="752" on="1"/>
        <pt x="198" y="752" on="1"/>
      </contour>
    </TTGlyph>
    <TTGlyph name="less" xMin="56" yMin="40" xMax="441" yMax="523">
      <contour>
        <pt x="441" y="170" on="1"/>
        <pt x="441" y="40" on="1"/>
        <pt x="56" y="229" on="1"/>
        <pt x="56" y="335" on="1"/>
        <pt x="441" y="523" on="1"/>
        <pt x="441" y="393" on="1"/>
        <pt x="189" y="281" on="1"/>
      </contour>
    </TTGlyph>
    <TTGlyph name="lessequal" xMin="50" yMin="0" xMax="493" yMax="620">
      <contour>
        <pt x="445" y="287" on="1"/>
        <pt x="445" y="157" on="1"/>
        <pt x="60" y="336" on="1"/>
        <pt x="60" y="442" on="1"/>
        <pt x="445" y="620" on="1"/>
        <pt x="445" y="490" on="1"/>
        <pt x="193" y="388" on="1"/>
      </contour>
      <contour>
        <pt x="493" y="0" on="1"/>
        <pt x="50" y="0" on="1"/>
        <pt x="50" y="122" on="1"/>
        <pt x="493" y="122" on="1"/>
      </contour>
    </TTGlyph>
    <TTGlyph name="litre" xMin="27" yMin="-16" xMax="431" yMax="734">
      <contour>
        <pt x="399" y="123" on="1"/>
        <pt x="421" y="11" on="1"/>
        <pt x="345" y="-16" on="0"/>
        <pt x="261" y="-16" on="1"/>
        <pt x="207" y="-16" on="0"/>
        <pt x="123" y="60" on="0"/>
        <pt x="109" y="118" on="1"/>
        <pt x="78" y="97" on="0"/>
        <pt x="66" y="90" on="1"/>
        <pt x="27" y="197" on="1"/>
        <pt x="67" y="221" on="0"/>
        <pt x="79" y="236" on="1"/>
        <pt x="67" y="280" on="0"/>
        <pt x="67" y="403" on="1"/>
        <pt x="67" y="465" on="0"/>
        <pt x="90" y="577" on="0"/>
        <pt x="121" y="644" on="0"/>
        <pt x="144" y="672" on="1"/>
        <pt x="192" y="734" on="0"/>
        <pt x="278" y="734" on="1"/>
        <pt x="338" y="734" on="0"/>
        <pt x="431" y="638" on="0"/>
        <pt x="431" y="562" on="1"/>
        <pt x="431" y="457" on="0"/>
        <pt x="329" y="274" on="0"/>
        <pt x="215" y="181" on="1"/>
        <pt x="217" y="150" on="0"/>
        <pt x="254" y="110" on="0"/>
        <pt x="283" y="110" on="1"/>
        <pt x="367" y="110" on="0"/>
      </contour>
      <contour>
        <pt x="195" y="299" on="1"/>
        <pt x="309" y="439" on="0"/>
        <pt x="309" y="607" on="0"/>
        <pt x="258" y="607" on="1"/>
        <pt x="216" y="607" on="0"/>
        <pt x="198" y="508" on="1"/>
        <pt x="189" y="452" on="0"/>
        <pt x="189" y="347" on="0"/>
      </contour>
    </TTGlyph>
    <TTGlyph name="logicalnot" xMin="56" yMin="90" xMax="497" yMax="360">
      <contour>
        <pt x="497" y="90" on="1"/>
        <pt x="376" y="90" on="1"/>
        <pt x="376" y="245" on="1"/>
        <pt x="56" y="245" on="1"/>
        <pt x="56" y="360" on="1"/>
        <pt x="497" y="360" on="1"/>
      </contour>
    </TTGlyph>
    <TTGlyph name="lozenge" xMin="55" yMin="-20" xMax="581" yMax="720">
      <contour>
        <pt x="581" y="351" on="1"/>
        <pt x="381" y="21" on="1"/>
        <pt x="349" y="-20" on="0"/>
        <pt x="285" y="-20" on="0"/>
        <pt x="256" y="21" on="1"/>
        <pt x="55" y="351" on="1"/>
        <pt x="248" y="678" on="1"/>
        <pt x="282" y="720" on="0"/>
        <pt x="356" y="720" on="0"/>
        <pt x="389" y="678" on="1"/>
      </contour>
      <contour>
        <pt x="435" y="351" on="1"/>
        <pt x="318" y="575" on="1"/>
        <pt x="201" y="351" on="1"/>
        <pt x="318" y="136" on="1"/>
      </contour>
    </TTGlyph>
    <TTGlyph name="lslash" xMin="30" yMin="-1" xMax="274" yMax="752">
      <contour>
        <pt x="214" y="0" on="1"/>
        <pt x="84" y="-1" on="1"/>
        <pt x="84" y="322" on="1"/>
        <pt x="30" y="289" on="1"/>
        <pt x="30" y="398" on="1"/>
        <pt x="84" y="432" on="1"/>
        <pt x="84" y="752" on="1"/>
        <pt x="214" y="752" on="1"/>
        <pt x="214" y="510" on="1"/>
        <pt x="274" y="547" on="1"/>
        <pt x="274" y="438" on="1"/>
        <pt x="214" y="400" on="1"/>
      </contour>
    </TTGlyph>
    <TTGlyph name="m" xMin="73" yMin="0" xMax="809" yMax="577">
      <contour>
        <pt x="809" y="0" on="1"/>
        <pt x="679" y="0" on="1"/>
        <pt x="679" y="355" on="1"/>
        <pt x="679" y="408" on="0"/>
        <pt x="654" y="450" on="0"/>
        <pt x="623" y="450" on="1"/>
        <pt x="506" y="401" on="1"/>
        <pt x="506" y="0" on="1"/>
        <pt x="376" y="0" on="1"/>
        <pt x="376" y="355" on="1"/>
        <pt x="376" y="450" on="0"/>
        <pt x="310" y="450" on="1"/>
        <pt x="203" y="401" on="1"/>
        <pt x="203" y="0" on="1"/>
        <pt x="73" y="0" on="1"/>
        <pt x="73" y="571" on="1"/>
        <pt x="170" y="571" on="1"/>
        <pt x="200" y="503" on="1"/>
        <pt x="350" y="577" on="1"/>
        <pt x="428" y="577" on="0"/>
        <pt x="468" y="501" on="1"/>
        <pt x="654" y="577" on="1"/>
        <pt x="732" y="577" on="0"/>
        <pt x="809" y="472" on="0"/>
        <pt x="809" y="383" on="1"/>
      </contour>
    </TTGlyph>
    <TTGlyph name="macron" xMin="92" yMin="630" xMax="408" yMax="717">
      <contour>
        <pt x="408" y="630" on="1"/>
        <pt x="92" y="630" on="1"/>
        <pt x="92" y="717" on="1"/>
        <pt x="408" y="717" on="1"/>
      </contour>
    </TTGlyph>
    <TTGlyph name="minus" xMin="50" yMin="225" xMax="493" yMax="346">
      <contour>
        <pt x="493" y="225" on="1"/>
        <pt x="50" y="225" on="1"/>
        <pt x="50" y="346" on="1"/>
        <pt x="493" y="346" on="1"/>
      </contour>
    </TTGlyph>
    <TTGlyph name="mu" xMin="47" yMin="-140" xMax="500" yMax="571">
      <contour>
        <pt x="48" y="-140" on="1"/>
        <pt x="48" y="159" on="1"/>
        <pt x="47" y="168" on="0"/>
        <pt x="47" y="188" on="1"/>
        <pt x="47" y="571" on="1"/>
        <pt x="177" y="571" on="1"/>
        <pt x="177" y="211" on="1"/>
        <pt x="178" y="164" on="0"/>
        <pt x="220" y="121" on="0"/>
        <pt x="253" y="121" on="1"/>
        <pt x="370" y="184" on="1"/>
        <pt x="370" y="571" on="1"/>
        <pt x="500" y="571" on="1"/>
        <pt x="500" y="0" on="1"/>
        <pt x="403" y="0" on="1"/>
        <pt x="373" y="68" on="1"/>
        <pt x="213" y="-6" on="1"/>
        <pt x="194" y="-6" on="0"/>
        <pt x="177" y="-3" on="1"/>
        <pt x="177" y="-39" on="1"/>
        <pt x="177" y="-73" on="0"/>
        <pt x="121" y="-140" on="0"/>
        <pt x="89" y="-140" on="1"/>
      </contour>
    </TTGlyph>
</ttFont>
